<svg width="607" height="130" viewBox="0 0 607 130" fill="none" xmlns="http://www.w3.org/2000/svg">
<path d="M42.838 62.4437C44.7445 63.6147 44.7445 66.3853 42.838 67.5563L16.3201 83.8437C14.3212 85.0714 11.75 83.6332 11.75 81.2873L11.75 48.7127C11.75 46.3668 14.3212 44.9286 16.3201 46.1563L42.838 62.4437Z" fill="#E23624"/>
<path d="M65.2 99L90.8 29H106.1L131.6 99H117.3L98.4 44.4L79.4 99H65.2ZM76.5 83.1L80.1 72.6H115.7L119.2 83.1H76.5ZM168.195 100.2C161.195 100.2 155.161 98.7 150.095 95.7C145.095 92.6333 141.228 88.4 138.495 83C135.828 77.5333 134.495 71.2333 134.495 64.1C134.495 56.9667 135.828 50.6667 138.495 45.2C141.228 39.7333 145.095 35.4667 150.095 32.4C155.161 29.3333 161.195 27.8 168.195 27.8C176.661 27.8 183.595 29.9 188.995 34.1C194.395 38.3 197.761 44.2333 199.095 51.9H184.395C183.528 48.1667 181.695 45.2667 178.895 43.2C176.161 41.0667 172.561 40 168.095 40C163.961 40 160.395 41 157.395 43C154.461 44.9333 152.195 47.7 150.595 51.3C148.995 54.8333 148.195 59.1 148.195 64.1C148.195 69.0333 148.995 73.3 150.595 76.9C152.195 80.5 154.461 83.2667 157.395 85.2C160.395 87.1333 163.961 88.1 168.095 88.1C172.561 88.1 176.161 87.1333 178.895 85.2C181.628 83.2 183.428 80.4333 184.295 76.9H199.095C197.761 84.1667 194.395 89.8667 188.995 94C183.595 98.1333 176.661 100.2 168.195 100.2ZM242.923 100.2C236.123 100.2 230.123 98.6667 224.923 95.6C219.723 92.5333 215.656 88.3 212.723 82.9C209.789 77.4333 208.323 71.1333 208.323 64C208.323 56.8667 209.789 50.6 212.723 45.2C215.656 39.7333 219.723 35.4667 224.923 32.4C230.123 29.3333 236.123 27.8 242.923 27.8C249.789 27.8 255.823 29.3333 261.023 32.4C266.223 35.4667 270.256 39.7333 273.123 45.2C276.056 50.6 277.523 56.8667 277.523 64C277.523 71.1333 276.056 77.4333 273.123 82.9C270.256 88.3 266.223 92.5333 261.023 95.6C255.823 98.6667 249.789 100.2 242.923 100.2ZM242.923 88.1C247.189 88.1 250.856 87.1333 253.923 85.2C257.056 83.2 259.489 80.4 261.223 76.8C262.956 73.2 263.823 68.9333 263.823 64C263.823 59 262.956 54.7333 261.223 51.2C259.489 47.6 257.056 44.8333 253.923 42.9C250.856 40.9667 247.189 40 242.923 40C238.723 40 235.056 40.9667 231.923 42.9C228.789 44.8333 226.356 47.6 224.623 51.2C222.889 54.7333 222.023 59 222.023 64C222.023 68.9333 222.889 73.2 224.623 76.8C226.356 80.4 228.789 83.2 231.923 85.2C235.056 87.1333 238.723 88.1 242.923 88.1ZM316.141 100.2C311.007 100.2 306.341 99.1667 302.141 97.1C297.941 95.0333 294.607 91.9333 292.141 87.8C289.674 83.6667 288.441 78.4 288.441 72V29H301.941V72.1C301.941 75.5667 302.507 78.5 303.641 80.9C304.774 83.2333 306.407 84.9667 308.541 86.1C310.741 87.2333 313.341 87.8 316.341 87.8C319.407 87.8 322.007 87.2333 324.141 86.1C326.341 84.9667 328.007 83.2333 329.141 80.9C330.274 78.5 330.841 75.5667 330.841 72.1V29H344.341V72C344.341 78.4 343.074 83.6667 340.541 87.8C338.007 91.9333 334.574 95.0333 330.241 97.1C325.974 99.1667 321.274 100.2 316.141 100.2ZM381.598 100.2C376.531 100.2 371.998 99.3333 367.998 97.6C364.064 95.8667 360.931 93.3333 358.598 90C356.331 86.6667 355.164 82.6333 355.098 77.9H369.398C369.464 79.9667 369.998 81.8333 370.998 83.5C371.998 85.1667 373.364 86.5 375.098 87.5C376.898 88.4333 379.031 88.9 381.498 88.9C383.631 88.9 385.464 88.5667 386.998 87.9C388.598 87.1667 389.831 86.1667 390.698 84.9C391.564 83.6333 391.998 82.1333 391.998 80.4C391.998 78.4 391.498 76.7333 390.498 75.4C389.564 74.0667 388.231 72.9333 386.498 72C384.831 71.0667 382.864 70.2333 380.598 69.5C378.398 68.7 376.064 67.8667 373.598 67C368.064 65.2 363.831 62.8 360.898 59.8C358.031 56.8 356.598 52.8333 356.598 47.9C356.598 43.7 357.598 40.1 359.598 37.1C361.664 34.1 364.498 31.8 368.098 30.2C371.698 28.6 375.798 27.8 380.398 27.8C385.131 27.8 389.264 28.6333 392.798 30.3C396.398 31.9 399.231 34.2333 401.298 37.3C403.431 40.3667 404.531 43.9667 404.598 48.1H390.198C390.131 46.5667 389.664 45.1333 388.798 43.8C387.998 42.4 386.864 41.3 385.398 40.5C383.931 39.6333 382.198 39.2 380.198 39.2C378.464 39.1333 376.864 39.4 375.398 40C373.998 40.6 372.864 41.5 371.998 42.7C371.198 43.8333 370.798 45.2667 370.798 47C370.798 48.6667 371.198 50.0667 371.998 51.2C372.864 52.3333 374.031 53.3333 375.498 54.2C376.964 55 378.698 55.7667 380.698 56.5C382.698 57.1667 384.864 57.8667 387.198 58.6C390.664 59.8 393.864 61.2333 396.798 62.9C399.731 64.5 402.064 66.6 403.798 69.2C405.531 71.8 406.398 75.2333 406.398 79.5C406.398 83.1667 405.431 86.5667 403.498 89.7C401.564 92.8333 398.764 95.3667 395.098 97.3C391.498 99.2333 386.998 100.2 381.598 100.2ZM433.466 99V39.9H412.966V29H467.266V39.9H446.866V99H433.466ZM476.834 99V29H502.934C508.6 29 513.267 29.9667 516.934 31.9C520.6 33.8333 523.334 36.4333 525.134 39.7C526.934 42.9 527.834 46.4667 527.834 50.4C527.834 54.1333 526.967 57.6333 525.234 60.9C523.5 64.1 520.767 66.7 517.034 68.7C513.367 70.6333 508.634 71.6 502.834 71.6H490.334V99H476.834ZM513.134 99L498.734 68.2H513.334L528.534 99H513.134ZM490.334 61.8H502.134C506.2 61.8 509.2 60.8 511.134 58.8C513.067 56.8 514.034 54.1667 514.034 50.9C514.034 47.6333 513.067 45.0667 511.134 43.2C509.267 41.2667 506.267 40.3 502.134 40.3H490.334V61.8ZM535.22 99L560.82 29H576.12L601.62 99H587.32L568.42 44.4L549.42 99H535.22ZM546.52 83.1L550.12 72.6H585.72L589.22 83.1H546.52Z" fill="url(#paint0_linear_445_28)"/>
<defs>
<linearGradient id="paint0_linear_445_28" x1="63" y1="65" x2="607" y2="65" gradientUnits="userSpaceOnUse">
<stop stop-color="#FA2812"/>
<stop offset="0.538462" stop-color="#FDDBD4"/>
<stop offset="1" stop-color="#FDFDF9"/>
</linearGradient>
</defs>
</svg>
