<svg width="495" height="322" viewBox="0 0 495 322" fill="none" xmlns="http://www.w3.org/2000/svg">
<g clip-path="url(#clip0_651_53)">
<path d="M66.522 205.142C61.0034 200.798 55.7946 196.466 50.8958 192.193C24.0056 168.688 7.58072 147.433 2.02629 128.986C-3.6235 110.122 2.40771 94.6626 19.9054 83.0469C73.2565 47.7836 111.899 30.4196 137.419 18.8635C148.933 13.6865 158.027 9.59248 164.297 5.67697C174.738 -0.821108 198.291 -1.80889 225.741 3.09442C255.289 8.36667 282.835 19.1849 301.322 32.7761C326.818 51.5205 359.429 65.6711 382.302 74.24C408.942 84.2252 438.192 92.4965 460.541 96.3763C474.963 98.8756 485.453 106.849 490.864 119.429C500.233 141.232 493.248 174.008 472.52 204.963C462.818 219.649 452.638 234.812 441.994 248.772C430.23 264.22 419.109 276.478 407.988 286.296C395.696 297.324 381.581 306.139 366.271 312.348C349.738 318.93 332.205 322.083 312.633 322C279.188 321.857 208.398 294.199 140.494 254.758C114.707 239.963 89.9893 223.384 66.522 205.142ZM479.171 105.171C473.701 100.963 467.257 98.2001 460.434 97.138C438.037 93.2582 408.739 84.9749 382.064 74.966C359.143 66.3852 326.46 52.1989 300.893 33.4069C282.501 19.887 255.075 9.11643 225.634 3.85608C198.362 -1.01153 175.036 -0.0594319 164.75 6.34344C158.432 10.2827 149.314 14.3887 137.776 19.5776C112.221 31.0861 73.6022 48.4738 20.3941 83.7015C3.15863 95.1029 -2.7653 110.265 2.77721 128.76C8.26013 147.064 24.6135 168.2 51.3845 191.598C74.8656 212.116 105.796 233.729 140.839 254.08C208.661 293.437 279.259 321.072 312.633 321.215C332.11 321.298 349.584 318.168 365.973 311.634C381.201 305.441 395.236 296.654 407.452 285.666C432.268 263.874 452.424 233.705 471.924 204.523C492.461 173.782 499.47 141.304 490.232 119.679C487.828 113.98 484.023 108.978 479.171 105.136V105.171Z" fill="url(#paint0_linear_651_53)"/>
<path d="M78.0957 197.525C73.7451 194.086 69.5853 190.658 65.6638 187.266C40.8715 165.844 25.6862 146.516 20.5251 129.724C15.3044 112.741 20.5251 98.7805 36.1872 88.2955C83.1138 56.2336 119.301 38.9292 143.247 27.4802C154.487 22.1127 163.367 17.864 169.684 13.8771C179.899 7.4504 202.069 6.09366 227.541 10.3067C254.812 14.8649 280.582 24.7548 298.235 37.4534C321.835 54.6269 351.753 67.8016 372.695 75.8349C397.261 85.3202 423.317 93.0203 444.056 96.9834C457.168 99.4946 466.703 106.969 471.543 118.608C480.017 138.84 473.533 168.962 454.629 197.287C436.821 224.029 418.406 251.688 395.139 272.015C383.792 282.178 370.776 290.314 356.664 296.067C340.945 302.245 324.172 305.309 307.282 305.089C276.291 305.184 210.949 280.096 148.241 244.19C123.761 230.348 100.317 214.752 78.0957 197.525ZM460.434 104.981C455.591 101.261 449.919 98.7656 443.902 97.7094C423.114 93.7225 397.058 86.0224 372.385 76.5728C351.407 68.5157 321.418 55.3053 297.758 38.0961C280.189 25.4689 254.538 15.6146 227.374 11.0803C202.069 6.84343 180.102 8.16447 170.03 14.5078C163.665 18.5066 154.773 22.7673 143.509 28.1466C119.587 39.5837 83.4356 56.8643 36.5447 88.843C21.2283 99.1495 16.0553 112.812 21.1807 129.45C26.306 146.088 41.4436 165.356 66.0929 186.659C87.8338 205.368 116.345 225.1 148.611 243.595C211.211 279.489 276.458 304.493 307.282 304.41C324.078 304.622 340.756 301.574 356.389 295.437C370.426 289.718 383.369 281.626 394.651 271.515C417.846 251.2 436.237 223.577 454.021 196.882C472.794 168.748 479.243 138.876 470.863 118.894C468.635 113.442 465.044 108.652 460.434 104.981Z" fill="url(#paint1_linear_651_53)"/>
<path d="M89.741 189.896C86.5068 187.35 83.4078 184.815 80.4439 182.292C57.797 163.012 43.8156 145.552 39.0121 130.39C34.2086 115.228 38.7379 102.886 52.4214 93.4964C93.3168 64.4811 125.749 47.9503 149.457 35.8944C160.185 30.4198 168.719 26.0877 175 22.0889C185.156 15.6266 205.454 13.9485 229.281 17.6141C254.312 21.4582 278.27 30.4317 295.088 42.2139C334.422 70.5032 395.855 90.8424 427.524 97.6023C439.289 100.125 447.787 107.123 452.162 117.834C459.742 136.448 453.807 163.964 436.666 189.658C421.338 212.747 403.948 238.977 382.302 257.876C371.897 267.16 359.982 274.602 347.068 279.882C332.695 285.555 317.361 288.408 301.906 288.284C287.603 288.451 265.814 283.143 238.733 272.931C210.196 261.897 182.515 248.769 155.917 233.657C130.875 219.531 108.192 204.547 89.741 189.896ZM441.744 104.814C437.543 101.568 432.648 99.3322 427.441 98.2807C395.711 91.497 334.196 71.122 294.754 42.7733C278.067 31.0506 254.133 22.1246 229.198 18.2924C205.526 14.6506 185.418 16.2811 175.394 22.6602C169.088 26.6828 160.578 30.9911 149.803 36.5013C126.107 48.5573 93.6625 65.0643 52.8028 94.1152C39.3935 103.315 34.9237 115.478 39.6915 130.247C44.4592 145.279 58.3334 162.631 80.9206 181.827C100.814 198.739 126.918 216.484 156.406 233.122C182.972 248.193 210.617 261.284 239.115 272.289C266.076 282.464 287.817 287.76 302.001 287.594C317.357 287.716 332.593 284.888 346.878 279.263C359.7 274.002 371.527 266.592 381.849 257.353C403.423 238.513 420.79 212.33 436.118 189.23C453.115 163.714 459.015 136.448 451.518 118.049C449.474 112.86 446.104 108.297 441.744 104.814Z" fill="url(#paint2_linear_651_53)"/>
<path d="M101.327 182.446C99.2049 180.772 97.1469 179.102 95.1524 177.436C74.5557 160.25 61.8615 144.695 57.4156 131.188C53.065 117.977 56.8196 107.088 68.584 98.8043C103.806 72.4312 134.212 55.9598 156.418 43.892C165.953 38.703 174.237 34.2163 180.328 30.2889C190.269 23.886 209.221 21.8628 231.021 24.8738C253.752 28.0157 275.957 36.061 291.941 46.9387C307.627 58.0426 328.891 69.194 353.386 79.1792C372.11 86.8865 391.361 93.25 410.992 98.2211C415.91 99.275 420.484 101.546 424.293 104.825C428.102 108.105 431.025 112.288 432.793 116.989C439.456 133.961 434.08 158.882 418.716 181.934C402.732 206.189 387.964 227.588 369.465 243.69C360.01 252.107 349.198 258.867 337.485 263.684C324.479 268.843 310.609 271.484 296.614 271.468C283.502 271.753 263.597 267.124 238.984 258.091C213.079 248.342 187.936 236.686 163.76 223.22C139.957 210.021 118.538 196.037 101.327 182.446ZM423.019 104.612C419.429 101.83 415.277 99.8603 410.849 98.84C391.188 93.8653 371.905 87.5019 353.147 79.798C328.582 69.7891 307.294 58.6138 291.572 47.4861C275.683 36.6679 253.573 28.6584 230.938 25.5284C209.28 22.5411 190.495 24.5287 180.674 30.8482C174.571 34.7875 166.299 39.2743 156.716 44.4751C134.534 56.5073 104.151 73.0381 68.9655 99.3518C57.4514 107.457 53.7683 118.108 58.0235 131.021C62.4337 144.41 75.0563 159.87 95.5576 176.972C113.675 192.074 137.359 207.915 164.07 222.661C188.201 236.106 213.301 247.738 239.162 257.46C263.764 266.457 283.586 271.063 296.602 270.825C310.52 270.841 324.314 268.212 337.247 263.077C348.891 258.307 359.64 251.599 369.036 243.238C387.487 227.159 402.219 205.796 418.215 181.566C433.436 158.691 438.788 133.961 432.185 117.204C430.316 112.261 427.15 107.912 423.019 104.612Z" fill="url(#paint3_linear_651_53)"/>
<path d="M112.984 175.02C111.923 174.187 110.886 173.354 109.861 172.521C91.3739 157.442 79.9194 143.791 75.831 131.937C71.9215 120.607 74.9371 111.229 84.7825 104.065C114.772 80.0003 143.521 63.3267 164.523 51.1517C172.867 46.3198 180.018 42.1544 185.656 38.4888C195.525 32.0502 212.701 29.7414 232.762 32.1335C253.239 34.5852 273.669 41.6545 288.783 51.6635C318.2 72.1217 364.173 90.4615 394.448 98.84C398.789 99.963 402.788 102.132 406.095 105.157C409.401 108.183 411.913 111.972 413.412 116.192C419.169 131.664 414.33 153.859 400.789 174.258C387.189 194.978 373.577 214.806 356.616 229.492C348.107 237.019 338.398 243.073 327.89 247.403C316.238 252.045 303.819 254.467 291.274 254.544C279.354 254.949 261.332 250.974 239.139 243.131C215.86 234.668 193.246 224.484 171.484 212.663C149.028 200.548 128.884 187.516 112.984 175.02ZM404.293 104.386C401.329 102.088 397.932 100.408 394.305 99.447C363.982 91.0566 317.926 72.6811 288.461 52.1871C273.419 42.2496 253.036 35.1803 232.69 32.7286C212.773 30.3484 195.74 32.6215 185.978 38.9768C180.352 42.6542 173.153 46.8316 164.821 51.6635C143.831 63.8265 115.105 80.5002 85.152 104.529C75.5211 111.539 72.577 120.691 76.3912 131.735C80.4438 143.493 91.8269 157.061 110.242 172.068C126.572 185.362 147.848 199.239 171.77 212.164C193.503 223.974 216.09 234.146 239.341 242.595C261.464 250.438 279.414 254.377 291.262 253.973C303.74 253.884 316.091 251.462 327.676 246.832C338.142 242.517 347.811 236.483 356.282 228.98C373.184 214.33 386.784 194.55 400.384 173.865C413.817 153.633 418.632 131.58 412.935 116.335C411.22 111.629 408.228 107.492 404.293 104.386Z" fill="url(#paint4_linear_651_53)"/>
<path d="M124.665 167.712L124.546 167.617C108.145 154.645 97.9416 142.898 94.2109 132.687C90.7542 123.166 93.0189 115.371 100.993 109.313C126.143 87.0457 154.106 69.6937 174.44 57.126C180.817 53.1748 186.36 49.7591 190.972 46.6886C200.651 40.3095 216.516 37.6556 234.502 39.4051C252.739 41.1664 271.452 47.3551 285.648 56.3762C298.461 65.0998 314.755 73.871 334.077 82.4756C348.399 88.8653 363.034 94.5295 377.928 99.4468C381.699 100.627 385.132 102.692 387.94 105.468C390.748 108.245 392.848 111.653 394.067 115.406C398.894 129.224 394.603 148.825 382.863 166.582C371.551 183.958 359.203 202.024 343.791 215.305C336.226 221.952 327.616 227.308 318.307 231.158C308.011 235.309 297.036 237.528 285.934 237.704C264.658 238.691 221.76 224.41 179.208 202.178C158.075 191.086 139.23 179.185 124.665 167.712ZM385.556 104.088C383.222 102.266 380.583 100.872 377.761 99.9705C362.848 95.0436 348.193 89.3714 333.85 82.9755C314.505 74.359 298.187 65.564 285.35 56.7928C271.166 47.8192 252.608 41.6544 234.454 39.893C216.575 38.1673 200.854 40.7856 191.27 47.0932C186.634 50.1638 181.115 53.5794 174.726 57.5425C154.368 70.1578 126.477 87.4266 101.339 109.694C93.5792 115.644 91.3621 123.249 94.7234 132.449C98.4184 142.565 108.562 154.24 124.891 167.141L125.011 167.236C139.54 178.709 158.385 190.598 179.458 201.655C221.939 223.886 264.718 238.144 285.922 237.12C296.958 236.932 307.866 234.726 318.105 230.61C327.353 226.79 335.91 221.479 343.433 214.889C358.797 201.655 371.11 183.624 382.41 166.284C394.055 148.682 398.322 129.259 393.554 115.597C392.051 111.073 389.274 107.078 385.556 104.088Z" fill="url(#paint5_linear_651_53)"/>
<path d="M136.334 160.512C123.687 150.527 115.689 141.47 112.495 133.461C109.503 125.868 111.065 119.524 117.132 114.585C137.716 93.3653 166.275 74.6089 187.134 60.9106C190.4 58.7684 193.487 56.7332 196.252 54.8886C205.883 48.4738 220.091 45.5461 236.194 46.6648C252.531 47.8077 268.373 52.7516 282.453 61.101C291.56 67.123 317.449 82.9517 361.348 100.078C364.545 101.323 367.411 103.289 369.722 105.822C372.034 108.355 373.728 111.386 374.674 114.68C378.559 126.891 374.805 143.838 364.876 158.905C355.71 173.104 344.768 189.254 330.906 201.119C316.961 213.358 299.165 220.335 280.606 220.839C271.07 221.482 256.767 218.9 239.413 213.377C221.37 207.505 203.808 200.252 186.884 191.681C168.48 182.458 151.996 172.437 139.206 162.726C138.221 161.988 137.263 161.25 136.334 160.512ZM366.807 103.719C365.111 102.39 363.227 101.319 361.217 100.542C354.196 97.8044 340.048 92.0799 324.207 84.5702C309.701 77.8638 295.678 70.1612 282.239 61.5176C268.225 53.2133 252.462 48.2943 236.206 47.1527C220.187 46.0578 206.122 48.9498 196.574 55.3051C193.821 57.1498 190.722 59.173 187.444 61.3271C166.609 75.0136 138.074 93.758 117.525 114.942C111.637 119.703 110.123 125.879 113.031 133.246C116.321 141.577 125.487 151.658 139.516 162.309C152.294 171.997 168.754 181.994 187.134 191.217C204.032 199.777 221.566 207.022 239.579 212.889C256.886 218.4 271.07 220.97 280.582 220.328C299.055 219.847 316.772 212.905 330.644 200.714C344.47 188.897 355.376 172.782 364.53 158.608C374.376 143.66 378.107 126.879 374.28 114.799C372.964 110.439 370.359 106.577 366.807 103.719Z" fill="url(#paint6_linear_651_53)"/>
<path d="M148.289 153.752C139.302 146.611 133.306 139.994 130.791 134.27C128.276 128.545 129.135 123.678 133.366 119.846C149.1 98.6256 185.907 73.7282 201.628 63.0885C221.283 49.8305 253.251 50.9612 279.367 65.8258C299.391 78.5602 325.006 91.0326 340.31 98.4709L344.816 100.637C347.434 101.957 349.731 103.832 351.549 106.13C353.367 108.428 354.661 111.094 355.341 113.943C358.249 124.547 355.019 138.816 346.914 151.17C338.844 163.844 329.762 176.948 318.045 186.873C306.113 197.241 291.01 203.258 275.207 203.94C258.675 205.439 226.981 196.513 194.477 181.173C180.238 174.594 166.602 166.784 153.724 157.834C151.853 156.489 150.006 155.109 148.289 153.752ZM348.034 103.22C346.991 102.398 345.864 101.688 344.673 101.101L340.12 98.8756C324.803 91.4254 299.165 78.9529 279.128 66.2067C253.168 51.4253 221.403 50.2947 201.879 63.4575C186.169 74.0853 149.433 98.9708 133.724 120.131C129.635 123.821 128.801 128.462 131.244 134.056C134.2 140.804 142.103 148.908 154.094 157.477C166.941 166.418 180.55 174.216 194.763 180.78C227.195 196.085 258.806 204.999 275.266 203.511C311.537 201.5 330.405 176.448 346.64 150.955C354.661 138.709 357.88 124.582 354.983 114.062C353.898 109.794 351.46 105.991 348.034 103.22Z" fill="url(#paint7_linear_651_53)"/>
<path d="M160.208 147.349C154.714 143.017 150.828 138.888 148.921 135.21C146.871 131.259 147.085 127.867 149.552 125.13C152.246 118.096 160.185 108.754 173.141 97.3405C183.899 88.0168 195.186 79.3185 206.944 71.2886C226.289 58.0902 252.238 57.8165 276.22 70.5389C284.313 75.4184 292.907 80.3574 301.119 85.1179C311.847 91.2827 321.883 97.1024 328.343 101.327C333.767 104.898 336.687 111.372 336.687 119.584C336.414 128.13 333.76 136.43 329.023 143.553C318.295 160.845 310.655 168.236 305.255 172.735C295.332 181.197 282.945 186.246 269.926 187.135C255.623 188.873 229.71 182.625 202.153 170.831C184.572 163.285 169.887 155.002 160.208 147.349ZM329.249 102.47C328.892 102.184 328.51 101.911 328.129 101.661C321.68 97.4476 311.596 91.6279 300.917 85.463C292.645 80.7025 284.11 75.7635 276.017 70.8959C252.178 58.233 226.397 58.5067 207.171 71.6219C195.424 79.6399 184.15 88.3263 173.403 97.638C160.483 109.027 152.58 118.334 149.922 125.308C147.538 127.915 147.359 131.164 149.326 134.972C154.559 145.041 174.881 158.62 202.379 170.39C229.877 182.161 255.754 188.409 269.938 186.671C282.877 185.793 295.191 180.786 305.065 172.39C315.291 163.857 323.087 152.36 328.737 143.303C333.436 136.229 336.066 127.986 336.329 119.501C336.329 112.11 333.838 106.088 329.249 102.47Z" fill="url(#paint8_linear_651_53)"/>
<path d="M172.116 141.673C170.165 140.212 168.421 138.494 166.931 136.567C165.25 134.187 164.845 132.163 165.739 130.438C164.142 124.035 172.891 113.502 180.567 105.79C190.365 96.1322 200.977 87.3326 212.284 79.4885C221.951 72.8119 231.498 69.2059 241.475 68.4561C251.654 67.6825 262 69.908 273.085 75.2636C289.212 84.2133 304.409 94.6864 311.835 101.958C315.411 105.528 317.258 111.098 316.96 117.68C316.59 124.143 314.576 130.406 311.108 135.877C302.323 150.396 289.105 167.427 264.622 170.271C252.762 172.247 232.357 168.653 210.032 160.655C193.702 154.8 179.887 147.814 172.116 141.673ZM304.791 96.3407C294.708 88.6207 284.049 81.6819 272.906 75.5849C261.893 70.2532 251.606 68.0395 241.487 68.8012C231.57 69.551 222.082 73.1452 212.475 79.7861C191.497 94.3056 163.248 119.608 166.097 130.414V130.485C165.238 132.104 165.632 134.056 167.289 136.305C172.342 143.315 189.185 152.717 210.198 160.25C232.464 168.236 252.81 171.83 264.622 169.867C288.974 167.034 302.121 150.087 310.858 135.627C314.295 130.211 316.289 124.009 316.65 117.608C316.936 111.122 315.16 105.636 311.632 102.137C309.454 100.087 307.171 98.1524 304.791 96.3407Z" fill="url(#paint9_linear_651_53)"/>
<path d="M183.904 137.971C183.1 137.406 182.436 136.665 181.961 135.805C181.095 135.344 180.369 134.659 179.86 133.821C179.35 132.984 179.076 132.025 179.065 131.045C178.791 124.987 185.93 116.085 191.962 109.694C199.769 101.538 208.342 94.1486 217.565 87.629C227.565 80.6311 235.444 76.9179 243.155 75.6564C251.368 74.2877 259.843 75.6564 269.891 79.9289C280.976 85.2845 290.928 94.1509 295.267 102.541C299.117 110.087 297.198 121.488 293.121 128.141C285.088 142.208 273.693 150.753 259.235 153.36C253.609 154.669 246.278 154.895 237.482 154.014C229.157 153.127 220.912 151.603 212.821 149.456C199.554 146.017 188.434 141.518 183.904 137.971ZM182.2 135.591C182.651 136.429 183.292 137.15 184.071 137.698C193.964 145.505 237.351 158.144 259.163 153.062C273.466 150.42 284.861 141.982 292.835 127.998C296.876 121.405 298.795 110.146 294.981 102.696C290.678 94.3651 280.773 85.5463 269.748 80.2265C259.783 75.9658 251.344 74.6091 243.203 75.9658C235.551 77.2393 227.708 80.9286 217.719 87.8671C208.544 94.4036 200.015 101.8 192.248 109.956C186.288 116.323 179.136 125.142 179.434 131.08C179.453 132.008 179.721 132.913 180.209 133.702C180.698 134.492 181.389 135.136 182.212 135.567L182.2 135.591Z" fill="url(#paint10_linear_651_53)"/>
<path d="M192.605 139.09C191.653 138.351 190.974 137.317 190.674 136.15C189.9 133.163 190.925 127.343 200.21 116.549C206.952 108.804 214.572 101.867 222.916 95.8766C232.452 89.1405 238.662 84.9155 244.931 82.9637C251.416 80.9643 257.757 81.4642 266.78 84.7013C269.109 85.4597 271.242 86.7208 273.028 88.3951C274.814 90.0693 276.209 92.1157 277.114 94.3889C281.19 104.434 276.577 117.751 275.219 120.5C272.68 125.653 268.067 130.021 261.523 133.342C254.875 136.569 247.779 138.784 240.474 139.911C226.528 142.173 212.343 142.573 198.291 141.101C196.245 140.972 194.276 140.275 192.605 139.09ZM271.905 87.7957C270.334 86.5723 268.575 85.6117 266.696 84.9513C257.721 81.7379 251.439 81.2381 245.015 83.2256C238.59 85.2131 232.559 89.3785 223.071 96.1027C208.399 106.492 188.505 126.713 190.889 136.079C191.58 138.733 194.071 140.328 198.279 140.839C212.305 142.319 226.465 141.939 240.39 139.709C247.671 138.583 254.741 136.377 261.368 133.163C267.864 129.819 272.429 125.534 274.944 120.441C276.291 117.703 280.904 104.481 276.84 94.5317C275.822 91.8891 274.119 89.5642 271.905 87.7957Z" fill="url(#paint11_linear_651_53)"/>
</g>
<defs>
<linearGradient id="paint0_linear_651_53" x1="247.494" y1="0.000103474" x2="247.494" y2="322" gradientUnits="userSpaceOnUse">
<stop stop-color="#515676"/>
<stop offset="1" stop-color="#9E3749"/>
</linearGradient>
<linearGradient id="paint1_linear_651_53" x1="246.886" y1="7.90264" x2="246.886" y2="305.136" gradientUnits="userSpaceOnUse">
<stop stop-color="#515676"/>
<stop offset="1" stop-color="#9E3749"/>
</linearGradient>
<linearGradient id="paint2_linear_651_53" x1="246.266" y1="15.6979" x2="246.266" y2="288.284" gradientUnits="userSpaceOnUse">
<stop stop-color="#515676"/>
<stop offset="1" stop-color="#9E3749"/>
</linearGradient>
<linearGradient id="paint3_linear_651_53" x1="245.635" y1="23.5051" x2="245.635" y2="271.432" gradientUnits="userSpaceOnUse">
<stop stop-color="#515676"/>
<stop offset="1" stop-color="#9E3749"/>
</linearGradient>
<linearGradient id="paint4_linear_651_53" x1="244.991" y1="31.2171" x2="244.991" y2="254.592" gradientUnits="userSpaceOnUse">
<stop stop-color="#515676"/>
<stop offset="1" stop-color="#9E3749"/>
</linearGradient>
<linearGradient id="paint5_linear_651_53" x1="244.335" y1="38.8695" x2="244.335" y2="237.763" gradientUnits="userSpaceOnUse">
<stop stop-color="#515676"/>
<stop offset="1" stop-color="#9E3749"/>
</linearGradient>
<linearGradient id="paint6_linear_651_53" x1="243.644" y1="46.4267" x2="243.644" y2="220.947" gradientUnits="userSpaceOnUse">
<stop stop-color="#515676"/>
<stop offset="1" stop-color="#9E3749"/>
</linearGradient>
<linearGradient id="paint7_linear_651_53" x1="242.917" y1="53.8532" x2="242.917" y2="204.154" gradientUnits="userSpaceOnUse">
<stop stop-color="#515676"/>
<stop offset="1" stop-color="#9E3749"/>
</linearGradient>
<linearGradient id="paint8_linear_651_53" x1="242.118" y1="61.1845" x2="242.118" y2="187.421" gradientUnits="userSpaceOnUse">
<stop stop-color="#515676"/>
<stop offset="1" stop-color="#9E3749"/>
</linearGradient>
<linearGradient id="paint9_linear_651_53" x1="241.129" y1="68.3014" x2="241.129" y2="170.807" gradientUnits="userSpaceOnUse">
<stop stop-color="#515676"/>
<stop offset="1" stop-color="#9E3749"/>
</linearGradient>
<linearGradient id="paint10_linear_651_53" x1="238.245" y1="75.2041" x2="238.245" y2="154.597" gradientUnits="userSpaceOnUse">
<stop stop-color="#515676"/>
<stop offset="1" stop-color="#9E3749"/>
</linearGradient>
<linearGradient id="paint11_linear_651_53" x1="234.609" y1="81.7855" x2="234.609" y2="141.934" gradientUnits="userSpaceOnUse">
<stop stop-color="#515676"/>
<stop offset="1" stop-color="#9E3749"/>
</linearGradient>
<clipPath id="clip0_651_53">
<rect width="495" height="322" fill="white" transform="matrix(-1 0 0 -1 495 322)"/>
</clipPath>
</defs>
</svg>
