<svg width="789" height="520" viewBox="0 0 789 520" fill="none" xmlns="http://www.w3.org/2000/svg">
<g opacity="0.3" clip-path="url(#clip0_2006_68)">
<path d="M715.687 145.295C717.642 145.871 719.377 147.028 720.66 148.612C722.541 151.2 722.247 154.444 719.883 158.46C710.597 173.782 656.936 218.314 592.278 264.39C485.101 340.763 426.255 367.369 405.925 375.264C317.057 409.843 238.139 424.581 204.991 412.948C190.509 407.82 193.421 394.716 196.499 380.854C200.703 362.082 205.383 340.853 177.777 324.567C154.037 310.594 121.486 298.97 92.7561 288.718C55.9191 275.603 26.8958 265.176 26.0282 253.68C25.8758 252.208 26.0448 250.721 26.5235 249.322C27.0021 247.922 27.7789 246.643 28.8001 245.574C38.4799 235.387 73.5544 236.249 150.399 238.068C164.204 238.477 179.642 238.881 196.293 239.232C249.49 240.346 364.629 213.289 475.994 187.115C607.586 156.226 692.881 137.229 715.687 145.295ZM206.053 409.654C242.926 422.565 332.349 400.056 404.586 372.024C447.285 355.433 514.966 315.23 590.186 261.555C654.503 215.724 707.755 171.607 716.846 156.713C719.262 152.723 718.145 151.192 717.786 150.698C713.293 144.498 686.778 145.835 638.965 154.653C594.741 162.735 537.455 176.252 476.75 190.511C365.188 216.731 249.834 243.841 196.185 242.71C179.516 242.366 164.097 241.955 150.305 241.648C79.1013 239.88 39.9104 238.957 31.2763 247.98C30.5875 248.694 30.067 249.553 29.7532 250.495C29.4393 251.436 29.34 252.437 29.4625 253.422C30.2879 262.68 61.1644 273.75 93.932 285.449C122.789 295.763 155.506 307.437 179.418 321.478C209.206 339.06 204.054 362.574 199.782 381.518C196.384 396.87 195.015 405.73 206.053 409.654Z" fill="url(#paint0_linear_2006_68)"/>
<path d="M687.984 159.254C689.861 159.815 691.534 160.913 692.797 162.414C694.562 164.786 694.425 167.807 692.413 171.362C684.871 187.937 630.047 232.42 579.008 269.216C512.294 317.289 448.791 355.492 409.136 371.427C404.392 373.322 399.56 375.205 394.81 377.017C320.629 405.076 253.826 416.636 224.621 406.546C211.291 401.811 213.78 389.829 216.428 377.133C219.984 360.069 224.012 340.72 198.684 325.824C176.896 313.033 146.931 302.396 120.514 293.012C86.9125 281.109 60.3035 271.6 58.8653 261.106C58.405 259.704 58.2911 258.211 58.5335 256.756C58.7759 255.3 59.3673 253.925 60.2571 252.749C68.0129 242.645 102.844 243.229 179.346 244.293L208.357 244.675C256.28 245.317 360.071 221.261 460.483 198.06C585.243 169.227 666.139 151.519 687.984 159.254ZM225.582 403.456C254.125 413.347 320.052 401.767 393.555 373.961C398.286 372.156 403.099 370.279 407.842 368.384C497.082 332.531 676.778 197.987 689.379 169.933L689.493 169.894C691.524 166.332 690.466 164.909 690.119 164.453C685.724 158.539 660.37 159.734 614.75 167.953C572.613 175.556 518.463 188.067 461.129 201.26C360.546 224.519 256.577 248.551 208.249 247.963L179.288 247.543C106.223 246.601 69.5055 246.023 62.7049 254.761C62.1248 255.561 61.7505 256.493 61.615 257.473C61.4795 258.453 61.5869 259.451 61.9278 260.38L62.0057 260.608C62.9909 269.153 91.4212 279.273 121.507 289.954C148.071 299.393 178.189 310.106 200.238 323.041C227.563 339.062 223.094 360.538 219.495 377.786C216.493 391.686 215.437 399.844 225.582 403.456Z" fill="url(#paint1_linear_2006_68)"/>
<path d="M660.306 173.226C662.111 173.754 663.722 174.8 664.94 176.234C666.563 178.378 666.59 181.067 664.937 184.245C661.79 194.922 634.132 224.057 565.711 274.03C520.159 307.318 455.954 349.372 412.365 367.584C408.091 369.361 403.728 371.127 399.314 372.867C332.753 398.941 271.819 409.666 244.136 400.183C232.035 395.815 234.031 384.999 236.237 373.495C239.171 358.089 242.533 340.646 219.515 327.234C199.579 315.639 172.206 305.944 148.069 297.397C117.562 286.541 93.4504 278.007 91.5188 268.616C89.8792 265.118 89.8067 262.232 91.3384 259.818C97.5588 249.94 131.001 250 211.829 250.183L220.422 250.119C263.017 250.199 355.468 229.227 444.736 209.001C562.766 182.146 639.379 165.815 660.306 173.226ZM245.118 397.214C272.188 406.459 332.265 395.771 398.193 369.956C402.487 368.236 406.831 366.477 411.092 364.725C454.434 346.597 518.405 304.729 563.888 271.487C619.163 231.121 658.595 195.63 662.014 183.203L661.968 183.07L662.043 182.916C663.703 179.758 662.645 178.462 662.489 178.005C658.166 172.363 633.916 173.373 590.42 181.037C550.387 188.092 499.393 199.653 445.387 211.902C355.884 232.187 263.332 253.172 220.4 253.101L211.774 253.07C136.816 252.923 99.2191 252.816 93.8584 261.295C93.2685 262.24 92.6072 263.847 94.2849 267.332L94.3563 267.542L94.4213 267.732C95.8083 275.651 121.658 284.739 149.056 294.447C173.334 303.031 200.853 312.782 221.032 324.528C245.906 339.027 242.19 358.419 239.207 373.99C236.787 386.608 235.87 393.932 245.118 397.214Z" fill="url(#paint2_linear_2006_68)"/>
<path d="M632.641 187.172C634.368 187.688 635.917 188.675 637.115 190.022C637.862 191.043 638.289 192.263 638.342 193.527C638.396 194.791 638.074 196.042 637.417 197.122C634.261 225.182 485.912 332.943 415.538 363.761C411.634 365.461 407.778 367.096 403.97 368.665C344.111 393.11 290.396 402.731 263.823 393.762L263.709 393.801C252.679 389.896 254.339 380.15 256.097 369.819C258.44 356.102 261.073 340.501 240.391 328.587C222.318 318.161 197.544 309.428 175.694 301.8C148.341 292.163 126.681 284.534 124.255 276.119C121.559 272.323 120.888 269.238 122.19 266.647C126.695 257.652 154.438 256.555 232.52 255.721C269.757 255.335 350.563 237.423 428.687 220.109C540.214 195.218 612.548 180.028 632.641 187.172ZM264.647 391.016C290.227 399.623 344.467 389.801 402.8 365.983C406.591 364.406 410.434 362.776 414.33 361.092C488.452 328.635 632.515 220.997 634.535 196.575L634.552 196.315L634.665 196.085C635.821 193.566 635.266 192.438 634.753 191.805C624.853 179.335 520.889 202.388 429.189 222.7C350.907 240.047 269.942 257.927 232.438 258.404C166.214 259.101 128.554 259.865 124.599 267.737C123.81 269.345 124.437 271.553 126.587 274.495L126.671 274.742L126.769 275.028C128.562 282.022 151.909 290.244 176.664 299.047C198.636 306.782 223.531 315.559 241.859 326.11C264.276 339.068 261.313 356.375 258.934 370.296C256.979 381.48 256.291 388.046 264.647 391.016Z" fill="url(#paint3_linear_2006_68)"/>
<path d="M605.085 201.251C606.668 201.727 608.094 202.62 609.214 203.836C609.896 204.685 610.327 205.708 610.46 206.789C610.592 207.869 610.421 208.966 609.965 209.954C610.515 216.289 603.827 226.539 590.084 240.365C574.057 255.912 557.019 270.379 539.081 283.671C497.707 315.087 449.34 345.723 418.685 359.924L408.486 364.489C356.335 386.898 308.395 395.653 283.351 387.373C273.328 383.932 274.558 375.226 275.88 366.042C277.625 353.995 279.587 340.344 261.202 329.812C244.929 320.494 222.773 312.779 203.19 305.95C178.92 297.449 159.668 290.719 156.868 283.324C154.18 280.609 150.949 276.676 152.401 272.972C155.406 265.424 175.179 262.861 244.45 261.019C276.291 260.18 345.198 245.331 412.005 230.922C514.693 208.794 585.68 194.382 605.085 201.251ZM284.17 384.799L284.317 384.855C303.458 391.198 345.906 388.545 407.573 362.06L417.695 357.521C448.166 343.404 496.337 312.877 537.56 281.577C582.66 247.339 608.73 220.574 607.336 209.959L607.225 209.635L607.362 209.291C608.217 207.194 607.65 206.155 607.144 205.541C597.248 193.706 499.144 214.78 412.609 233.5C342.694 248.565 276.687 262.892 244.641 263.63C187.271 265.151 157.655 267.164 155.07 273.889C154.371 275.636 155.75 278.246 159.155 281.631L159.385 281.871L159.489 282.175C161.448 288.412 182.234 295.659 204.276 303.412C223.961 310.292 246.257 318.107 262.715 327.469C282.657 338.892 280.472 354.128 278.709 366.373C277.152 376.359 276.712 382.16 284.17 384.799Z" fill="url(#paint4_linear_2006_68)"/>
<path d="M577.536 215.349C578.999 215.787 580.325 216.592 581.39 217.688C582.009 218.379 582.435 219.222 582.625 220.13C582.816 221.038 582.765 221.981 582.477 222.862C584.402 228.94 579.84 237.955 568.551 250.455C558.869 261.132 544.124 274.323 525.893 288.555C492.779 314.389 449.993 342.164 422.016 356.068L413.225 360.279C368.738 380.647 326.533 388.549 303.075 380.875C294.154 377.865 294.986 370.293 295.879 362.276C297.008 351.905 298.317 340.198 282.204 331.037C267.82 323.028 248.225 316.224 230.954 310.263C209.709 302.854 192.858 297.004 189.749 290.629C183.501 285.878 181.169 282.34 182.142 279.16C184.261 272.063 203.103 268.947 256.648 266.48C282.986 265.246 337.221 253.854 394.704 241.969C478.054 224.549 557.143 208.074 577.536 215.349ZM303.693 378.582L303.865 378.651C326.73 386.081 368.262 378.196 412.205 358.099L420.958 353.901C448.833 340.01 491.385 312.357 524.399 286.6C563.417 256.116 583.703 233.046 580.072 223.279L579.936 222.88L580.073 222.472C580.314 221.948 580.398 221.365 580.316 220.794C580.234 220.222 579.989 219.687 579.61 219.251C569.547 207.983 476.944 227.265 395.242 244.292C337.677 256.311 283.309 267.622 256.768 268.882C220.487 270.642 186.562 273.084 184.473 279.895C183.859 281.889 186.194 284.938 191.476 288.914L191.732 289.103L191.842 289.426C194.171 295.006 212.39 301.259 231.737 307.956C249.116 313.987 268.82 320.796 283.478 328.987C300.988 338.883 299.53 352.022 298.384 362.59C297.343 371.231 297.127 376.255 303.693 378.582Z" fill="url(#paint5_linear_2006_68)"/>
<path d="M549.96 229.307C551.285 229.733 552.504 230.441 553.532 231.381C554.094 231.926 554.519 232.596 554.772 233.337C555.025 234.078 555.099 234.869 554.987 235.644C555.724 237.038 556.177 238.565 556.32 240.136C556.463 241.707 556.292 243.29 555.818 244.794C548.634 272.741 466.921 329.588 425.271 352.301L417.869 356.166C380.432 374.743 344.882 381.628 322.731 374.613C314.963 371.995 315.39 365.539 315.803 358.727C316.36 350.038 316.959 340.167 303.156 332.491C290.61 325.576 273.576 319.747 258.553 314.59C240.334 308.337 225.891 303.386 222.529 298.011C213.564 292.7 209.933 288.712 210.738 285.038C211.852 280.409 219.596 275.492 268.681 271.892C289.37 270.334 331.305 261.949 375.764 253.065C451.667 237.889 530.013 222.22 549.96 229.307ZM323.216 372.365L323.407 372.428C331.481 375.005 362.137 381.263 416.894 354.119L424.252 350.248C465.713 327.79 546.701 271.552 553.604 244.274C554.031 242.996 554.182 241.64 554.046 240.299C553.91 238.957 553.49 237.659 552.815 236.491L552.577 236.105L552.675 235.647C552.812 235.172 552.817 234.669 552.688 234.193C552.558 233.716 552.301 233.284 551.943 232.943C551.115 232.159 550.117 231.576 549.028 231.24C529.979 224.483 445.164 241.404 376.193 255.255C331.67 264.077 289.64 272.557 268.863 274.103C245.578 275.825 214.445 278.865 212.888 285.558C212.335 287.978 216.033 291.539 223.874 296.171L224.136 296.316L224.233 296.601C226.847 301.339 242.545 306.732 259.217 312.43C274.316 317.624 291.427 323.491 304.151 330.494C319.204 338.848 318.506 349.922 317.931 358.808C317.516 366.11 317.548 370.369 323.216 372.365Z" fill="url(#paint6_linear_2006_68)"/>
<path d="M522.358 243.316C523.548 243.694 524.655 244.298 525.618 245.094C526.133 245.518 526.55 246.05 526.84 246.652C527.129 247.254 527.285 247.911 527.295 248.579C528.505 249.928 529.395 251.532 529.901 253.272C530.407 255.012 530.515 256.843 530.216 258.63C528.769 269.747 515.352 285.523 490.324 305.581C470.595 321.058 449.961 335.343 428.532 348.363L422.518 351.881C392.288 368.572 363.102 374.518 342.392 368.116C335.738 365.904 335.73 360.595 335.776 354.949C335.749 347.904 335.701 339.932 324.171 333.69C313.45 327.958 299.034 323.147 286.246 318.758C271.014 313.609 258.928 309.533 255.395 305.151C242.768 299.241 237.507 294.705 238.205 290.473C238.904 286.24 244.292 281.384 280.885 277.309C295.355 275.685 322.267 270.537 353.447 264.59C434.793 249.193 503.934 236.772 522.358 243.316ZM342.746 366.231L342.937 366.294C363.125 372.534 391.734 366.637 421.431 350.127L427.426 346.615C448.806 333.653 469.386 319.414 489.055 303.974C513.318 284.539 526.862 268.762 528.226 258.332C528.499 256.769 528.398 255.163 527.932 253.645C527.466 252.128 526.647 250.742 525.543 249.602L525.242 249.28L525.284 248.841C525.315 248.406 525.241 247.971 525.068 247.571C524.895 247.171 524.627 246.819 524.288 246.546C512.701 236.223 420.777 253.764 353.646 266.541C322.428 272.5 295.471 277.642 280.938 279.267C254.524 282.205 240.814 286.055 239.986 290.779C239.488 293.859 244.97 298.107 256.284 303.403L256.514 303.516L256.592 303.744C259.518 307.717 272.687 312.168 286.544 316.893C299.375 321.225 313.913 326.143 324.786 331.95C337.363 338.77 337.412 347.74 337.459 354.969C337.685 360.416 337.702 364.383 342.746 366.168L342.746 366.231Z" fill="url(#paint7_linear_2006_68)"/>
<path d="M494.993 257.394C495.894 257.698 496.752 258.12 497.543 258.648C498.538 259.3 499.261 260.292 499.577 261.438C501.412 262.74 502.904 264.467 503.925 266.473C504.946 268.478 505.465 270.701 505.438 272.951C505.078 292.727 465.178 320.813 438.761 339.411C436.208 341.196 433.814 342.884 431.615 344.463L426.97 347.642C404.107 362.414 380.98 367.396 361.844 361.689C356.412 359.889 355.904 355.728 355.414 351.306C354.789 345.931 354.083 339.82 344.843 335.006C335.941 330.438 324.028 326.494 313.527 323.024C301.767 319.155 291.585 315.81 287.907 312.37C271.084 306.043 263.16 300.483 263.643 295.368C264.125 290.253 273.792 285.997 292.792 282.785C298.951 281.745 308.269 280.01 319.103 278.054C373.551 267.97 472.734 249.502 494.993 257.394ZM362.243 359.938L362.485 360.026C381.08 365.577 403.688 360.687 426.083 346.224C427.568 345.165 429.116 344.105 430.683 343.039L437.836 338.006C462.37 320.73 503.414 291.829 503.761 273.013C503.788 270.989 503.305 268.99 502.356 267.201C501.408 265.412 500.026 263.89 498.336 262.776L498.049 262.555L497.932 262.212C497.848 261.806 497.682 261.421 497.442 261.082C497.202 260.743 496.894 260.458 496.539 260.245C495.808 259.736 495.007 259.337 494.161 259.059C472.622 251.41 369.847 270.488 319.358 279.858C308.543 281.871 299.2 283.593 293.027 284.595C270.748 288.332 265.731 292.658 265.448 295.622C265.166 298.587 268.988 303.444 288.74 310.832L288.912 310.9L288.971 311.072C292.17 314.229 302.81 317.736 314.024 321.431C324.594 324.919 336.577 328.882 345.625 333.506C355.701 338.779 356.502 345.665 357.141 351.205C357.763 355.391 358.116 358.478 362.243 359.938Z" fill="url(#paint8_linear_2006_68)"/>
<path d="M467.621 271.516C469.375 271.981 470.921 273.026 472.007 274.481C478.425 278.24 481.89 282.794 482.297 287.966C483.312 301.324 464.535 316.443 447.956 329.793C443.131 333.564 438.611 337.231 434.946 340.607C433.768 341.59 432.676 342.536 431.671 343.446C415.939 356.357 399.093 360.343 381.524 355.312C377.22 353.956 376.295 350.935 375.293 347.751C374.744 345.229 373.596 342.876 371.947 340.891C370.298 338.906 368.197 337.347 365.82 336.345C357.736 332.806 349.43 329.799 340.955 327.345C332.105 324.544 324.446 322.123 320.699 319.662C305.362 315.017 287.173 307.733 287.329 299.67C287.396 295.143 293.268 291.269 304.673 288.312C320.014 284.266 360.56 277.099 396.454 272.901C423.622 269.684 455.623 267.261 467.621 271.516ZM381.779 353.696L382.11 353.795C399.099 358.62 415.489 354.79 430.754 342.25C431.744 341.36 432.836 340.392 434.029 339.411C437.713 336.029 442.233 332.362 447.096 328.578C462.564 316.139 481.827 300.641 480.837 288.103C480.484 283.337 477.303 279.303 471.159 275.727L470.949 275.607L470.877 275.398C464.196 262.041 339.582 280.732 305.401 289.763C294.808 292.55 289.188 295.976 289.1 299.576C289.002 305.07 300.791 311.818 321.442 318.049L321.537 318.016C325.061 320.383 333.033 322.91 341.482 325.593C350.027 328.092 358.402 331.138 366.557 334.712C369.128 335.809 371.404 337.501 373.195 339.648C374.987 341.796 376.244 344.338 376.863 347.066C377.816 350.353 378.512 352.58 381.779 353.696Z" fill="url(#paint9_linear_2006_68)"/>
<path d="M440.732 285.622C442.041 286.044 443.266 286.69 444.355 287.531C454.992 292.399 460.645 297.396 461.678 303.035C463.114 310.788 455.795 318.13 448.054 325.914C444.523 329.285 441.233 332.9 438.207 336.732C437.549 337.58 436.939 338.404 436.378 339.205C427.671 350.377 417.136 353.272 401.179 348.923C398.691 348.113 396.557 346.471 395.136 344.272C393.041 341.324 390.148 339.038 386.797 337.684C380.539 335.287 374.163 333.208 367.695 331.456C362.182 329.853 356.994 328.33 353.394 326.861C326.433 320.297 309.228 311.233 308.462 303.208C308.118 299.587 310.914 296.401 316.763 293.768C326.189 289.489 353.634 285.221 383.524 283.39C394.514 282.699 427.944 281.106 440.732 285.622ZM401.079 347.449C401.236 347.52 401.397 347.579 401.563 347.623C417.093 351.842 426.855 349.169 435.273 338.392C435.825 337.587 436.448 336.737 437.134 335.887C440.188 332.009 443.515 328.353 447.087 324.948C454.577 317.42 461.644 310.334 460.34 303.279C459.38 298.104 453.939 293.353 443.703 288.73L443.537 288.617C432.527 279.053 338.132 285.561 317.407 294.971C312.134 297.366 309.62 300.072 309.89 303.04C310.593 310.385 327.841 319.201 353.848 325.516C357.378 326.967 362.566 328.49 368.136 330.073C374.607 331.813 380.983 333.892 387.238 336.302C390.798 337.76 393.878 340.191 396.126 343.318C397.297 345.186 399.032 346.633 401.079 347.449Z" fill="url(#paint10_linear_2006_68)"/>
<path d="M416.702 300.58C436.299 307.575 444.27 311.844 446.115 316.377C447.298 319.224 446.004 321.897 444.359 325.284C442.773 328.278 441.631 331.488 440.969 334.812C440.289 339.038 438.88 341.686 436.68 343.075C432.495 345.735 425.449 343.806 413.795 340.623C406.52 338.644 397.425 336.182 386.071 334.002C354.819 327.925 329.884 316.358 326.78 306.454C326.374 305.199 326.339 303.853 326.68 302.58C327.021 301.306 327.723 300.158 328.701 299.275C338.983 288.861 400.5 294.891 416.702 300.58ZM357.465 325.046C366.9 328.336 376.564 330.925 386.379 332.791C397.74 334.991 406.816 337.46 414.116 339.451C425.471 342.566 432.345 344.427 436.094 342.042C437.978 340.847 439.122 338.48 439.899 334.54C440.57 331.113 441.743 327.806 443.383 324.725C444.965 321.465 446.097 319.124 445.114 316.74C443.431 312.619 435.365 308.382 416.373 301.606C400.7 296.162 339.336 290.27 329.546 300.134C328.719 300.87 328.124 301.831 327.833 302.9C327.542 303.968 327.568 305.099 327.908 306.154C329.943 312.364 341.206 319.377 357.472 325.129L357.465 325.046Z" fill="url(#paint11_linear_2006_68)"/>
</g>
<defs>
<linearGradient id="paint0_linear_2006_68" x1="430.253" y1="367.768" x2="350.459" y2="133.968" gradientUnits="userSpaceOnUse">
<stop stop-color="#9E3749"/>
<stop offset="1" stop-color="#515676"/>
</linearGradient>
<linearGradient id="paint1_linear_2006_68" x1="428.48" y1="365.93" x2="354.817" y2="150.094" gradientUnits="userSpaceOnUse">
<stop stop-color="#9E3749"/>
<stop offset="1" stop-color="#515676"/>
</linearGradient>
<linearGradient id="paint2_linear_2006_68" x1="426.707" y1="364.155" x2="359.071" y2="165.979" gradientUnits="userSpaceOnUse">
<stop stop-color="#9E3749"/>
<stop offset="1" stop-color="#515676"/>
</linearGradient>
<linearGradient id="paint3_linear_2006_68" x1="424.637" y1="362.567" x2="362.905" y2="181.689" gradientUnits="userSpaceOnUse">
<stop stop-color="#9E3749"/>
<stop offset="1" stop-color="#515676"/>
</linearGradient>
<linearGradient id="paint4_linear_2006_68" x1="422.257" y1="361.127" x2="366.299" y2="197.166" gradientUnits="userSpaceOnUse">
<stop stop-color="#9E3749"/>
<stop offset="1" stop-color="#515676"/>
</linearGradient>
<linearGradient id="paint5_linear_2006_68" x1="419.536" y1="359.868" x2="369.175" y2="212.311" gradientUnits="userSpaceOnUse">
<stop stop-color="#9E3749"/>
<stop offset="1" stop-color="#515676"/>
</linearGradient>
<linearGradient id="paint6_linear_2006_68" x1="416.403" y1="358.897" x2="371.349" y2="226.887" gradientUnits="userSpaceOnUse">
<stop stop-color="#9E3749"/>
<stop offset="1" stop-color="#515676"/>
</linearGradient>
<linearGradient id="paint7_linear_2006_68" x1="413.126" y1="358.061" x2="373.021" y2="240.552" gradientUnits="userSpaceOnUse">
<stop stop-color="#9E3749"/>
<stop offset="1" stop-color="#515676"/>
</linearGradient>
<linearGradient id="paint8_linear_2006_68" x1="409.792" y1="357.308" x2="374.214" y2="253.063" gradientUnits="userSpaceOnUse">
<stop stop-color="#9E3749"/>
<stop offset="1" stop-color="#515676"/>
</linearGradient>
<linearGradient id="paint9_linear_2006_68" x1="406.345" y1="356.721" x2="374.754" y2="264.16" gradientUnits="userSpaceOnUse">
<stop stop-color="#9E3749"/>
<stop offset="1" stop-color="#515676"/>
</linearGradient>
<linearGradient id="paint10_linear_2006_68" x1="403.184" y1="356.164" x2="375.049" y2="273.727" gradientUnits="userSpaceOnUse">
<stop stop-color="#9E3749"/>
<stop offset="1" stop-color="#515676"/>
</linearGradient>
<linearGradient id="paint11_linear_2006_68" x1="401.494" y1="355.317" x2="376.437" y2="281.9" gradientUnits="userSpaceOnUse">
<stop stop-color="#9E3749"/>
<stop offset="1" stop-color="#515676"/>
</linearGradient>
<clipPath id="clip0_2006_68">
<rect width="731" height="299" fill="white" transform="translate(0 236.112) rotate(-18.8443)"/>
</clipPath>
</defs>
</svg>
