<svg width="40" height="40" viewBox="0 0 40 40" fill="none" xmlns="http://www.w3.org/2000/svg">
<path d="M16.0018 30C15.4516 30 14.9808 29.8043 14.5894 29.413C14.1972 29.021 14.0012 28.55 14.0012 28C14.0012 27.45 14.1972 26.979 14.5894 26.587C14.9808 26.1957 15.4516 26 16.0018 26C16.552 26 17.0228 26.1957 17.4142 26.587C17.8063 26.979 18.0024 27.45 18.0024 28C18.0024 28.55 17.8063 29.021 17.4142 29.413C17.0228 29.8043 16.552 30 16.0018 30ZM26.0048 30C25.4546 30 24.9838 29.8043 24.5923 29.413C24.2002 29.021 24.0042 28.55 24.0042 28C24.0042 27.45 24.2002 26.979 24.5923 26.587C24.9838 26.1957 25.4546 26 26.0048 26C26.5549 26 27.0261 26.1957 27.4182 26.587C27.8096 26.979 28.0054 27.45 28.0054 28C28.0054 28.55 27.8096 29.021 27.4182 29.413C27.0261 29.8043 26.5549 30 26.0048 30ZM15.1515 14L17.5522 19H24.5543L27.3052 14H15.1515ZM14.2013 12H28.9556C29.4058 12 29.7142 12.1667 29.8809 12.5C30.0476 12.8333 30.0393 13.1833 29.8559 13.55L26.3049 19.95C26.1215 20.2833 25.8797 20.5417 25.5796 20.725C25.2795 20.9083 24.9378 21 24.5543 21H17.1021L16.0018 23H28.0054V25H16.0018C15.2516 25 14.6847 24.6707 14.3013 24.012C13.9178 23.354 13.9012 22.7 14.2513 22.05L15.6017 19.6L12.0006 12H10V10H13.251L14.2013 12Z" fill="#4B4B4B"/>
</svg>
