<svg width="1087" height="778" viewBox="0 0 1087 778" fill="none" xmlns="http://www.w3.org/2000/svg">
<g opacity="0.55" clip-path="url(#clip0_589_26)">
<path d="M1029.31 413.821C1049.83 423 1061.24 433.647 1063.54 445.761C1066.46 461.289 1054.29 479.045 1027.33 498.478C998.111 519.505 950.576 543.381 886.084 569.317C800.705 603.64 720.364 629.489 647.378 646.135C588.97 659.925 529.326 667.826 469.335 669.719C373.526 671.819 306.308 653.731 247.783 633.659C185.125 612.372 136.061 581.814 101.972 543.158C72.8336 510.782 54.2286 470.282 48.6393 427.063C37.0302 336.485 82.2119 247.673 132.687 214.129C156.361 198.384 179.857 195.84 198.821 206.93C279.105 253.924 352.879 289.866 424.344 316.905C522.796 354.138 615.876 373.518 700.933 374.47C761.708 375.15 849.932 378.175 924.767 388.485C971.131 394.972 1005.98 403.417 1029.31 413.821ZM248.258 631.945L248.86 630.197C306.995 650.064 374.037 668.129 469.274 666.039C529.012 664.165 588.405 656.294 646.563 642.546C719.359 625.949 799.493 600.085 884.705 565.906C948.951 540.066 996.193 516.368 1025.19 495.5C1050.89 476.966 1062.59 460.446 1059.99 446.43C1055.5 422.624 1008.55 403.902 924.391 392.175C849.707 381.792 761.665 378.823 700.97 378.055C615.467 377.081 521.998 357.63 423.123 320.201C351.404 293.227 277.439 257.197 196.964 210.117C179.268 199.754 157.186 202.276 134.724 217.203C85.1748 250.137 40.7944 337.32 52.4039 426.576C57.8666 469.055 76.1082 508.874 104.7 540.732C138.357 578.888 186.902 609.002 248.955 630.173L248.258 631.945Z" fill="url(#paint0_linear_589_26)"/>
<path d="M988.437 426.84C1007.32 435.283 1017.8 445.039 1019.86 456.108C1025.35 486.067 971.68 523.139 855.827 569.486C704.966 627.591 571.949 656.794 460.396 656.305C369.865 655.904 308.239 637.065 255.133 616.762C199.687 597.361 156.237 570.115 126.028 535.927C100.198 507.208 83.6981 471.297 78.7246 432.972C73.9683 393.799 80.0211 354.081 96.2245 318.141C110.927 284.752 133.232 256.236 157.387 239.859C181.542 223.482 206.076 220.503 225.739 231.415C374.006 312.203 533.574 387.323 695.818 390.322C750.904 391.37 830.347 394.57 896.148 404.07C936.876 409.939 967.639 417.529 988.437 426.84ZM224.68 600.944C234.853 605.465 245.456 609.684 256.489 613.601C309.333 633.802 370.616 652.491 460.631 652.99C571.747 653.489 704.343 624.36 854.768 566.4C914.051 542.71 957.672 520.988 984.457 501.803C1008.19 484.823 1019.01 469.718 1016.67 456.887C1012.67 435.126 972.008 418.526 895.85 407.536C830.224 398.06 750.916 394.859 695.934 393.819C532.767 390.784 372.769 315.435 224.079 234.45C205.524 224.035 182.54 226.991 159.279 242.631C136.017 258.27 113.831 286.722 99.3879 319.537C83.582 354.929 77.6829 393.975 82.3223 432.494C87.188 470.124 103.393 505.385 128.772 533.564C152.248 560.59 184.559 583.155 224.521 600.985L224.68 600.944Z" fill="url(#paint1_linear_589_26)"/>
<path d="M947.587 439.819C964.839 447.515 974.436 456.489 976.243 466.606C981.058 493.924 931.784 527.669 825.618 569.846C683.125 622.05 557.258 646.68 451.505 643.082C386.304 641.497 322.06 626.88 262.539 600.087C214.082 582.495 176.23 558.362 149.885 528.442C127.337 503.41 112.921 472.099 108.555 438.676C104.425 403.932 110.075 368.735 124.867 337.066C138.475 306.805 158.723 281.492 181.483 265.743C206.721 248.31 232.008 244.833 252.697 255.924L264.335 261.766C326.511 293.348 397.12 329.082 469.153 356.62C551.605 388.142 624.033 404.39 690.545 406.215C762.375 408.206 821.86 412.708 867.41 419.583C902.587 424.904 929.312 431.649 947.587 439.819ZM238.834 586.987C246.782 590.562 255.064 593.905 263.682 597.015C322.865 623.655 386.743 638.193 451.573 639.776C556.921 643.376 682.367 618.82 824.456 566.753C927.497 525.849 977.504 492.323 973.059 467.115C969.577 447.661 933.868 432.847 867.023 422.699C821.608 415.824 762.234 411.362 690.571 409.361C623.646 407.506 550.867 391.212 468.176 359.548C395.747 332.043 325.121 296.246 262.809 264.664L251.163 258.791C231.567 248.269 207.48 251.676 183.279 268.403C161.2 283.639 140.96 309.119 127.711 338.272C113.208 369.396 107.67 403.972 111.723 438.104C115.981 470.947 130.142 501.716 152.312 526.296C173.618 550.52 202.658 570.868 238.851 587.05L238.834 586.987Z" fill="url(#paint2_linear_589_26)"/>
<path d="M906.912 452.686C922.554 459.641 931.057 467.775 932.644 477.033C936.84 501.661 891.926 532.088 795.386 570.111C661.1 616.455 542.456 636.527 442.582 629.731C360.161 624.139 306.988 601.988 269.946 583.277C170.776 545.617 143.468 486.513 138.046 443.585C134.597 413.356 139.805 382.778 153.061 355.427C164.626 330.132 182.449 308.224 204.842 291.782C230.623 273.565 258.036 269.41 279.718 280.416C295.777 287.943 312.267 295.834 328.214 303.457C445.365 359.476 566.493 417.429 685.375 422.115C797.73 426.535 871.021 436.63 906.912 452.686ZM292.442 590.718C327.75 606.482 375.386 622.182 442.804 626.894C542.257 633.628 660.543 613.613 794.401 567.582C888.055 530.704 933.63 500.481 929.772 477.834C926.892 460.872 896.105 447.581 838.253 438.356C799.479 432.191 749.493 427.941 685.235 425.405C565.678 420.723 444.35 362.651 326.833 306.522C310.885 298.899 294.412 291.072 278.289 283.426C257.354 272.432 231.824 276.412 206.549 294.227C184.609 310.391 167.14 331.888 155.787 356.697C142.747 383.535 137.628 413.555 141.033 443.229C146.346 485.337 173.402 543.455 271.106 580.539C277.778 583.886 284.84 587.304 292.442 590.718Z" fill="url(#paint3_linear_589_26)"/>
<path d="M866.093 465.521C879.385 471.483 887.779 478.663 889.181 487.459C892.702 509.445 852.116 536.563 765.137 570.448C639.037 610.971 527.544 626.47 433.683 616.476C373.655 610.113 322.511 593.784 277.353 566.602C194.429 533.234 171.66 483.82 167.29 448.184C164.515 422.519 169.245 396.608 180.904 373.607C191.6 351.547 207.511 332.445 227.255 317.96C253.803 298.904 281.957 293.813 304.899 304.192L306.509 304.934C334.397 317.067 361.93 329.664 388.523 341.89C490.782 388.729 587.375 432.98 680.038 438.023C750.066 441.832 828.091 448.479 866.093 465.521ZM314.723 582.89C352.598 599.398 392.839 609.785 433.945 613.663C527.44 623.682 638.52 608.153 764.208 567.736C848.514 534.906 889.665 508.017 886.41 487.862C880.583 451.818 734.841 443.789 679.935 440.796C586.755 435.715 489.962 391.345 387.441 344.405C360.856 332.21 333.355 319.605 305.427 307.448C283.086 296.644 255.2 301.327 228.881 320.223C209.525 334.465 193.913 353.206 183.383 374.838C171.974 397.336 167.334 422.68 170.03 447.789C174.276 482.677 196.54 531.169 278.474 563.976C290.157 571.023 302.263 577.34 314.723 582.89Z" fill="url(#paint4_linear_589_26)"/>
<path d="M825.576 478.348C837.409 483.631 844.679 489.979 845.82 497.757C848.626 517.078 812.369 540.886 734.88 570.617C616.79 605.432 512.479 616.349 424.752 603.094C353.46 592.353 309.273 568.177 284.718 549.632C217.423 520.782 199.443 480.587 196.1 452.012C191.662 412.934 212.202 370.629 248.428 344.184C276.534 323.679 308.191 318.134 333.196 329.308L333.507 329.466C373.785 345.622 410.687 362.063 446.362 377.937C531.64 415.891 605.316 448.671 674.9 453.915C736.802 458.613 795.726 465.021 825.576 478.348ZM332.238 574.279C399.532 604.316 525.606 629.609 734.063 568.215C809.086 539.419 845.83 515.927 843.279 498.135C839.002 468.95 728.023 460.517 674.7 456.441C604.663 451.143 530.827 418.268 445.326 380.236C409.651 364.362 372.813 347.904 332.511 331.789L332.2 331.631C308.007 320.859 277.304 326.296 249.942 346.272C214.485 372.283 194.32 413.544 198.633 451.738C201.815 479.676 219.535 518.988 285.882 547.436C300.29 558.085 315.839 567.088 332.238 574.279Z" fill="url(#paint5_linear_589_26)"/>
<path d="M784.852 491.024C795.123 495.621 801.784 501.175 802.722 508.022C804.852 524.701 772.805 545.264 704.711 570.866C594.488 599.941 497.328 606.285 415.901 589.759C387.891 584.376 360.731 575.222 335.159 562.547C319.376 554.933 304.862 544.917 292.132 532.854C260.636 517.981 239.735 499.045 230.036 476.569C225.882 466.769 223.853 456.199 224.085 445.56C224.317 434.92 226.804 424.454 231.381 414.857C242.739 390.759 261.917 371.241 285.785 359.492C311.557 346.534 338.085 344.605 360.465 353.975C414.563 374.059 460.754 394.298 501.591 412.243C568.038 441.48 620.541 464.582 669.698 469.823L672.72 470.136C709.009 473.986 758.652 479.409 784.852 491.024ZM347.976 566.122C369.902 575.735 392.816 582.9 416.301 587.487C497.435 604.054 594.196 597.608 703.943 568.655C769.817 543.891 802.295 523.558 800.363 508.319C797.491 485.828 719.226 477.445 672.463 472.439L669.433 472.095C619.926 466.807 567.28 443.674 500.642 414.351C459.837 396.397 413.629 376.094 359.587 356.098C337.796 346.916 311.968 348.802 286.798 361.471C263.424 373.015 244.674 392.189 233.629 415.843C229.14 425.134 226.676 435.278 226.398 445.601C226.12 455.925 228.036 466.193 232.018 475.723C241.532 497.738 262.097 516.285 293.162 530.929C299.492 537.043 316.333 551.998 347.976 566.122Z" fill="url(#paint6_linear_589_26)"/>
<path d="M744.466 503.172C753.447 507.218 759.325 512.09 759.932 518.174C761.309 532.299 733.336 549.617 674.415 571.147C604.111 587.175 500.549 601.156 407.049 576.424C381.483 569.991 356.969 559.902 334.264 546.468C318.535 536.924 305.833 525.726 299.451 516.1C240.126 484.162 250.105 444.86 257.026 429.462C266.077 409.689 286.05 391.77 310.487 381.526C336.715 370.485 363.971 369.421 387.279 378.452C457.67 402.477 511.066 426.165 553.73 445.305C599.852 465.934 633.145 480.823 664.385 485.692L672.101 486.908C697.541 490.783 726.912 495.35 744.466 503.172ZM673.735 569.15C730.801 548.299 759.101 531.202 757.819 518.375C756.215 502.035 705.477 494.18 671.914 488.956L664.166 487.748C632.671 482.809 599.267 467.881 552.994 447.188C510.306 428.088 457.172 404.367 386.671 380.439C364.143 371.683 336.777 372.843 311.412 383.426C287.475 393.508 267.746 411.059 259.129 430.281C244.663 461.813 259.956 492.421 300.665 514.366L300.905 514.508L300.961 514.731C313.422 533.721 351.165 559.543 407.506 574.375C458.802 587.987 546.677 597.983 673.735 569.15Z" fill="url(#paint7_linear_589_26)"/>
<path d="M704.116 514.532C712.252 518.183 717.761 522.54 718.023 527.932C718.284 533.323 713.035 539.649 701.915 546.422C689.829 553.782 670.397 562.171 644.038 571.38C525.986 593.369 445.103 578.976 398.015 563.034C343.56 544.601 312.642 517.036 306.793 499.17C271.592 475.886 276.139 452.517 282 440.644C298.09 408.054 360.708 383.918 414.379 402.857C478.62 422.464 541.157 447.309 601.363 477.144C625.736 488.887 643.358 497.37 659.364 501.384L667.563 503.426C680.029 506.119 692.254 509.834 704.116 514.532ZM643.782 569.581C692.405 552.615 716.837 538.643 716.307 528.099C715.777 517.554 688.897 510.69 667.256 505.403L659.058 503.361C642.836 499.3 625.135 490.769 600.682 478.979C540.488 449.185 477.971 424.369 413.754 404.78C388.297 396.345 360.846 396.158 335.296 404.244C310.789 411.828 291.451 425.617 283.698 441.601C273.987 461.034 282.678 481.157 308.216 497.857L308.495 498.023L308.585 498.373C313.12 512.947 340.865 541.73 398.728 561.326C445.459 577.19 526.015 591.497 643.623 569.622L643.782 569.581Z" fill="url(#paint8_linear_589_26)"/>
<path d="M574.091 473.906C596.367 483.772 617.888 495.273 638.477 508.314C644.787 512.229 649.772 515.329 654.355 517.514L657.886 519.291C668.359 524.413 679.151 529.725 678.622 537.184C678.188 543.296 671.022 553.501 613.989 571.7L613.83 571.741C547.961 580.771 487.662 578.511 434.643 565.035C378.957 550.917 348.483 528.663 335.276 516.678C322.069 504.693 313.912 491.825 314.119 482.313C298.534 467.24 300.452 455.29 304.938 447.566C312.156 435.313 331.898 425.489 357.793 421.349C385.721 417.067 414.26 419.151 441.29 427.446C501.324 444.42 543.555 460.279 574.091 473.906ZM653.521 519.016C648.962 516.79 643.96 513.626 637.611 509.688C611.663 493.635 563.374 463.726 440.822 429.057C383.301 410.933 320.266 424.833 306.374 448.42C300.407 458.556 303.589 469.949 315.537 481.374L315.809 481.644L315.898 481.994C315.537 491.037 323.046 503.223 336.429 515.366C351.195 528.818 434.01 594.592 613.558 570.013C655.613 556.59 676.359 545.798 676.951 536.865C677.4 530.546 667.268 525.438 657.13 520.569L653.575 518.832L653.521 519.016Z" fill="url(#paint9_linear_589_26)"/>
<path d="M595.686 493.309C602.866 496.527 609.322 499.692 615.039 502.876C643.471 518.464 647.838 529.995 649.282 533.796C649.997 535.419 650.342 537.181 650.292 538.953C650.241 540.726 649.797 542.464 648.992 544.042C644.181 553.273 625.216 561.373 583.597 572.005C522.21 576.737 464.278 569.975 416.075 552.453C361.564 532.475 338.063 506.54 330.517 496.33C321.778 484.492 318.671 473.521 321.708 465.422C320.389 462.571 319.937 459.396 320.406 456.291C320.876 453.187 322.247 450.291 324.349 447.964C334.326 437.244 360.086 436.02 379.93 436.917C409.83 438.673 439.456 443.677 468.287 451.843C522.637 465.895 565.374 479.761 595.686 493.309ZM647.965 534.201C638.288 508.633 577.695 481.394 467.874 453.271C411.29 437.755 342.167 431.138 325.42 448.979C323.468 451.151 322.204 453.856 321.788 456.751C321.372 459.646 321.822 462.6 323.082 465.24L323.139 465.463C320.098 473.021 323.164 483.697 331.695 495.249C363.442 538.369 455.785 580.281 583.461 570.413C624.063 560.04 643.322 551.898 647.866 543.211C648.578 541.818 648.967 540.282 649.007 538.716C649.046 537.151 648.733 535.597 648.092 534.168L647.965 534.201Z" fill="url(#paint10_linear_589_26)"/>
<path d="M617.727 512.869C636.358 521.197 646.657 529.212 648.766 536.674C649.945 541.289 648.469 545.701 643.877 550.231C636.053 557.994 616.945 563.282 602.314 566.376C586.173 569.782 569.754 571.707 553.26 572.127C482.93 572.431 432.577 555.493 402.721 541.082C368.027 524.416 340.792 501.469 329.929 479.731C323.641 467.166 323.418 455.966 329.247 448.205C344.005 428.668 383.383 441.697 428.995 456.626C450.416 463.698 472.546 471.03 495.148 476.24C551.807 489.533 592.443 501.529 617.727 512.869ZM553.265 571.618L553.278 571.004C577.296 570.903 629.626 562.619 643.013 549.367C647.249 545.165 648.752 541.12 647.6 537.006C642.716 519.877 591.353 499.909 494.942 477.683C472.3 472.449 450.107 465.133 428.678 458.029C383.454 443.035 344.467 430.212 330.269 449.028C324.676 456.391 324.953 467.136 331.047 479.344C341.79 500.875 368.793 523.576 403.256 540.132C433.048 554.423 483.202 571.378 553.199 571.092L553.265 571.618Z" fill="url(#paint11_linear_589_26)"/>
</g>
<defs>
<linearGradient id="paint0_linear_589_26" x1="611.381" y1="655.738" x2="474.848" y2="121.323" gradientUnits="userSpaceOnUse">
<stop stop-color="#515676"/>
<stop offset="1" stop-color="#9E3749"/>
</linearGradient>
<linearGradient id="paint1_linear_589_26" x1="600.241" y1="646.684" x2="474.124" y2="153.039" gradientUnits="userSpaceOnUse">
<stop stop-color="#515676"/>
<stop offset="1" stop-color="#9E3749"/>
</linearGradient>
<linearGradient id="paint2_linear_589_26" x1="589.201" y1="638.282" x2="473.313" y2="184.676" gradientUnits="userSpaceOnUse">
<stop stop-color="#515676"/>
<stop offset="1" stop-color="#9E3749"/>
</linearGradient>
<linearGradient id="paint3_linear_589_26" x1="578.275" y1="630.461" x2="472.478" y2="216.353" gradientUnits="userSpaceOnUse">
<stop stop-color="#515676"/>
<stop offset="1" stop-color="#9E3749"/>
</linearGradient>
<linearGradient id="paint4_linear_589_26" x1="567.488" y1="623.317" x2="471.53" y2="247.72" gradientUnits="userSpaceOnUse">
<stop stop-color="#515676"/>
<stop offset="1" stop-color="#9E3749"/>
</linearGradient>
<linearGradient id="paint5_linear_589_26" x1="556.825" y1="616.921" x2="470.494" y2="279.008" gradientUnits="userSpaceOnUse">
<stop stop-color="#515676"/>
<stop offset="1" stop-color="#9E3749"/>
</linearGradient>
<linearGradient id="paint6_linear_589_26" x1="546.309" y1="611.368" x2="469.257" y2="309.771" gradientUnits="userSpaceOnUse">
<stop stop-color="#515676"/>
<stop offset="1" stop-color="#9E3749"/>
</linearGradient>
<linearGradient id="paint7_linear_589_26" x1="467.783" y1="339.949" x2="535.891" y2="606.537" gradientUnits="userSpaceOnUse">
<stop stop-color="#9E3749"/>
<stop offset="1" stop-color="#515676"/>
</linearGradient>
<linearGradient id="paint8_linear_589_26" x1="525.39" y1="601.76" x2="465.828" y2="368.624" gradientUnits="userSpaceOnUse">
<stop stop-color="#515676"/>
<stop offset="1" stop-color="#9E3749"/>
</linearGradient>
<linearGradient id="paint9_linear_589_26" x1="515.252" y1="596.891" x2="463.35" y2="393.736" gradientUnits="userSpaceOnUse">
<stop stop-color="#515676"/>
<stop offset="1" stop-color="#9E3749"/>
</linearGradient>
<linearGradient id="paint10_linear_589_26" x1="507.21" y1="591.487" x2="460.617" y2="409.115" gradientUnits="userSpaceOnUse">
<stop stop-color="#515676"/>
<stop offset="1" stop-color="#9E3749"/>
</linearGradient>
<linearGradient id="paint11_linear_589_26" x1="509.675" y1="590.281" x2="463.334" y2="408.896" gradientUnits="userSpaceOnUse">
<stop stop-color="#515676"/>
<stop offset="1" stop-color="#9E3749"/>
</linearGradient>
<clipPath id="clip0_589_26">
<rect width="980.232" height="551.581" fill="white" transform="translate(0 242.637) rotate(-14.3314)"/>
</clipPath>
</defs>
</svg>
