<svg width="741" height="323" viewBox="0 0 741 323" fill="none" xmlns="http://www.w3.org/2000/svg">
<g opacity="0.29" clip-path="url(#clip0_619_88)">
<path d="M711.339 168.402C712.964 169.632 714.176 171.328 714.816 173.264C715.659 176.35 714.236 179.281 710.603 182.199C696.495 193.242 630.545 215.896 553.764 236.101C426.491 269.591 362.037 273.644 340.229 273.831C244.875 274.714 165.85 260.563 138.965 237.95C127.236 228.027 134.598 216.802 142.384 204.927C152.96 188.859 164.852 170.661 144.798 145.657C127.542 124.185 101.213 101.791 77.9721 82.0341C48.1625 56.7289 24.7095 36.703 27.9672 25.6445C28.3458 24.214 29.0303 22.8829 29.9734 21.7433C30.9165 20.6037 32.0956 19.6828 33.4291 19.0445C46.0883 12.9431 78.5866 26.1651 149.812 55.0675C162.579 60.3366 176.874 66.1791 192.322 72.4016C241.681 92.2749 358.942 107.726 472.362 122.667C606.368 140.36 692.865 152.785 711.339 168.402ZM141.124 235.244C171.04 260.372 262.64 270.974 340.124 270.327C385.931 269.925 463.46 256.283 552.81 232.71C629.186 212.612 694.606 190.202 708.382 179.49C712.053 176.614 711.551 174.786 711.389 174.198C709.382 166.808 684.111 158.673 636.272 149.995C592.051 141.9 533.688 134.264 471.867 126.111C358.247 111.143 240.766 95.6649 190.99 75.6169C175.522 69.3938 161.247 63.552 148.457 58.3827C82.4891 31.5244 46.1626 16.7882 34.8935 22.1709C33.9965 22.5947 33.2056 23.2141 32.5787 23.9837C31.9519 24.7532 31.505 25.6535 31.2707 26.6184C28.7656 35.5691 53.7244 56.8518 80.2293 79.3924C103.567 99.2536 130.033 121.753 147.426 143.349C169.063 170.337 155.92 190.505 145.219 206.71C136.607 219.866 132.191 227.667 141.124 235.244Z" fill="url(#paint0_linear_619_88)"/>
<path d="M680.489 171.651C682.046 172.84 683.222 174.459 683.872 176.309C684.682 179.152 683.486 181.93 680.345 184.542C667.424 197.375 600.403 219.571 539.644 235.918C460.233 257.263 387.318 270.514 344.59 271.38C339.483 271.473 334.297 271.523 329.213 271.537C249.903 271.52 183.333 258.685 159.59 238.911C148.8 229.763 155.369 219.438 162.34 208.502C171.706 193.802 182.322 177.131 163.907 154.233C148.058 134.558 123.798 114.003 102.413 95.8759C75.2003 72.8492 53.6802 54.5367 56.0497 44.2134C56.1155 42.7389 56.5375 41.3023 57.2795 40.0267C58.0214 38.7512 59.0612 37.6748 60.3097 36.8898C71.1401 30.1849 103.509 43.0607 174.681 71.1365L201.679 81.7631C246.271 99.3267 351.858 113.568 453.981 127.413C580.87 144.61 662.797 156.683 680.489 171.651ZM161.583 236.361C184.777 255.714 250.534 268.221 329.121 268.235C334.185 268.22 339.351 268.169 344.458 268.076C440.611 266.133 656.298 203.909 678.013 182.132L678.134 182.135C681.294 179.524 680.808 177.818 680.645 177.269C678.628 170.181 654.493 162.325 608.917 153.863C566.817 146.058 511.744 138.591 453.453 130.635C351.149 116.784 245.405 102.457 200.413 84.7996L173.477 74.1549C105.476 47.4107 71.3401 33.8732 61.887 39.6376C61.061 40.1811 60.3812 40.9197 59.9076 41.7882C59.434 42.6567 59.181 43.6286 59.171 44.618L59.163 44.8592C57.0598 53.1995 80.067 72.7278 104.424 93.367C125.927 111.598 150.303 132.278 166.345 152.181C186.23 176.837 174.448 195.341 164.977 210.198C157.249 222.135 153.373 229.391 161.583 236.361Z" fill="url(#paint1_linear_619_88)"/>
<path d="M649.657 174.921C651.158 176.053 652.295 177.601 652.927 179.374C653.686 181.954 652.758 184.478 650.088 186.865C643.365 195.737 607.184 213.195 525.504 235.713C471.118 250.721 396.184 267.325 348.971 268.929C344.344 269.078 339.639 269.184 334.895 269.25C263.414 270.074 202.628 258.535 180.095 239.868C170.323 231.498 176.019 222.089 182.154 212.112C190.351 198.741 199.67 183.617 182.89 162.926C168.349 145.024 146.181 126.268 126.631 109.73C101.943 88.7787 82.4133 72.2619 83.9307 62.7958C83.6357 58.9435 84.5894 56.2186 86.8764 54.5034C96.1906 47.467 127.447 59.3605 202.976 88.1432L211.036 91.1246C250.845 106.277 344.734 119.389 435.381 132.072C555.275 148.736 632.708 160.581 649.657 174.921ZM182.064 237.438C204.109 255.667 264.08 266.937 334.877 266.131C339.501 266.041 344.187 265.934 348.792 265.804C395.745 264.192 470.395 247.679 524.7 232.689C590.684 214.503 640.126 195.268 647.723 184.856L647.727 184.715L647.852 184.598C650.522 182.232 649.991 180.645 650.007 180.163C647.961 173.356 624.924 165.716 581.531 157.487C541.592 149.915 489.808 142.676 434.963 135.015C344.075 122.305 250.087 109.17 209.96 93.9058L201.903 90.8238C131.85 64.1529 96.7256 50.7438 88.7104 56.7769C87.8241 57.4518 86.637 58.7204 86.9722 62.5741L86.9649 62.7952L86.9583 62.9961C85.4524 70.8933 106.412 88.5436 128.6 107.321C148.267 123.943 170.552 142.803 185.267 160.932C203.398 183.297 193.058 200.118 184.757 213.626C178.027 224.57 174.577 231.095 182.064 237.438Z" fill="url(#paint2_linear_619_88)"/>
<path d="M618.847 178.171C620.279 179.264 621.378 180.736 622.022 182.42C622.359 183.639 622.326 184.931 621.929 186.132C621.532 187.333 620.787 188.389 619.791 189.167C606.907 214.293 430.018 262.565 353.291 266.476C349.038 266.684 344.853 266.848 340.736 266.967C276.1 268.641 222.457 258.625 200.78 240.831L200.659 240.827C191.725 233.27 196.728 224.743 202.029 215.704C209.076 203.704 217.061 190.045 201.935 171.581C188.723 155.433 168.644 138.496 150.909 123.627C128.738 104.931 111.182 90.1292 111.891 81.401C110.713 76.8959 111.178 73.7727 113.312 71.811C120.71 64.9931 147.045 73.7872 220.367 100.646C255.33 113.467 337.244 125.319 416.438 136.779C529.555 152.979 602.583 164.377 618.847 178.171ZM202.522 238.554C223.399 255.659 277.604 265.673 340.592 264.045C344.695 263.912 348.867 263.748 353.106 263.552C433.919 259.434 606.755 209.761 617.289 187.636L617.397 187.398L617.584 187.223C619.557 185.276 619.438 184.025 619.182 183.252C614.336 168.084 508.944 152.843 415.991 139.38C336.637 127.894 254.585 115.957 219.341 103.127C157.157 80.3369 121.665 67.7205 115.18 73.6832C113.873 74.9076 113.677 77.1947 114.647 80.7071L114.638 80.9684L114.628 81.2698C113.829 88.4459 132.755 104.4 152.791 121.396C170.602 136.407 190.778 153.428 204.185 169.784C220.564 189.838 211.666 204.976 204.513 217.153C198.726 226.921 195.759 232.819 202.522 238.554Z" fill="url(#paint3_linear_619_88)"/>
<path d="M588.091 181.584C589.403 182.589 590.421 183.929 591.038 185.463C591.375 186.499 591.416 187.608 591.158 188.665C590.899 189.723 590.351 190.688 589.575 191.451C587.846 197.57 577.963 204.789 560.216 212.855C539.724 221.723 518.667 229.222 497.186 235.304C447.37 250.039 391.29 261.571 357.593 264.002L346.439 264.66C289.732 267.158 241.796 258.377 221.305 241.768C213.149 235.001 217.381 227.294 221.868 219.174C227.765 208.524 234.432 196.451 220.965 180.094C209.044 165.618 191.054 150.56 175.156 137.241C155.467 120.699 139.843 107.59 139.843 99.6839C138.29 96.1925 136.66 91.3707 139.329 88.4208C144.812 82.425 164.211 87.0273 229.65 109.824C259.726 120.311 329.427 130.815 397.01 140.988C500.882 156.641 572.374 168.291 588.091 181.584ZM222.982 239.651L223.099 239.755C238.756 252.463 279.394 265.007 346.444 262.065L357.517 261.404C391.013 258.987 446.871 247.488 496.504 232.807C550.804 216.75 584.661 200.946 587.114 190.525L587.125 190.183L587.375 189.909C588.917 188.25 588.754 187.078 588.498 186.325C583.432 171.753 484.221 156.736 396.662 143.612C325.941 132.954 259.136 122.987 228.904 112.335C174.71 93.4489 146.299 84.8479 141.5 90.2225C140.229 91.609 140.595 94.5382 142.581 98.909L142.711 99.2151L142.701 99.5366C142.325 106.063 159.2 120.199 177.07 135.252C193.046 148.654 211.132 163.856 223.21 178.438C237.817 196.18 230.38 209.656 224.397 220.484C219.406 229.272 216.941 234.543 222.982 239.651Z" fill="url(#paint4_linear_619_88)"/>
<path d="M557.335 185.017C558.548 185.944 559.504 187.167 560.111 188.569C560.445 189.435 560.546 190.373 560.403 191.29C560.26 192.207 559.878 193.07 559.296 193.793C558.946 200.159 551.488 206.975 536.505 214.67C523.67 221.228 505.211 228.345 483.123 235.203C443.008 247.642 393.16 258.474 362.073 261.574L352.36 262.401C303.544 265.702 261.274 258.154 242.052 242.673C234.774 236.699 238.232 229.913 241.905 222.731C246.632 213.431 252.001 202.945 240.174 188.673C229.556 176.092 213.638 162.792 199.596 151.103C182.349 136.653 168.66 125.218 168.008 118.155C163.847 111.499 162.918 107.365 164.954 104.736C169.448 98.8484 188.172 102.604 239.125 119.25C264.194 127.419 318.95 135.962 376.918 145.195C461.037 158.407 540.838 170.994 557.335 185.017ZM243.442 240.747L243.578 240.872C262.333 255.915 303.967 263.241 352.178 260.001L361.851 259.173C392.838 256.049 442.423 245.249 482.417 232.846C529.7 218.147 556.838 203.751 556.9 193.332L556.914 192.91L557.186 192.577C557.597 192.172 557.883 191.657 558.008 191.093C558.134 190.53 558.094 189.942 557.894 189.401C552.471 175.3 459.038 160.554 376.599 147.558C318.507 138.422 263.655 129.755 238.386 121.539C203.832 110.342 171.238 100.617 166.873 106.248C165.593 107.895 166.698 111.573 170.231 117.162L170.403 117.429L170.392 117.771C170.595 123.813 185.421 136.111 201.145 149.223C215.264 161.015 231.281 174.358 242.091 187.207C254.964 202.66 248.95 214.432 244.137 223.911C240.105 231.624 238.124 236.246 243.442 240.747Z" fill="url(#paint5_linear_619_88)"/>
<path d="M526.604 188.31C527.693 189.178 528.582 190.271 529.211 191.514C529.544 192.223 529.704 193 529.678 193.783C529.652 194.566 529.441 195.331 529.062 196.016C529.258 197.581 529.142 199.17 528.719 200.689C528.296 202.209 527.576 203.629 526.601 204.868C509.99 228.463 413.444 252.704 366.451 259.204L358.16 260.198C316.571 264.321 280.885 258.176 262.652 243.774C256.313 238.576 258.999 232.689 261.796 226.464C265.393 218.535 269.447 209.515 259.255 197.45C249.969 186.542 236.101 175.06 223.876 164.92C209.05 152.622 197.295 142.88 196.053 136.662C189.549 128.521 187.564 123.507 189.617 120.356C192.299 116.42 201.282 114.563 248.463 128.571C268.364 134.437 310.551 141.44 355.276 148.868C431.638 161.543 510.457 174.621 526.604 188.31ZM263.901 241.844L264.058 241.969C270.696 247.238 297.152 263.942 357.973 257.939L366.225 256.923C412.951 250.596 508.602 226.667 524.714 203.598C525.566 202.554 526.187 201.339 526.534 200.036C526.882 198.733 526.949 197.371 526.731 196.04L526.645 195.594L526.899 195.2C527.195 194.805 527.377 194.336 527.426 193.845C527.474 193.353 527.386 192.858 527.172 192.413C526.675 191.386 525.948 190.488 525.048 189.788C509.624 176.726 424.311 162.529 354.902 151.069C310.14 143.559 267.83 136.612 247.85 130.703C225.463 124.071 195.27 115.894 191.445 121.603C190.071 123.67 192.269 128.309 197.963 135.418L198.156 135.645L198.146 135.947C198.914 141.303 211.686 151.904 225.261 163.135C237.544 173.337 251.471 184.881 260.892 195.935C272.014 209.076 267.441 219.186 263.758 227.293C260.785 233.975 259.307 237.97 263.901 241.844Z" fill="url(#paint6_linear_619_88)"/>
<path d="M495.83 191.642C496.81 192.417 497.631 193.373 498.249 194.458C498.581 195.037 498.783 195.682 498.841 196.348C498.899 197.013 498.811 197.683 498.585 198.312C499.238 200.001 499.504 201.817 499.361 203.623C499.218 205.429 498.67 207.18 497.759 208.746C492.47 218.631 474.337 228.636 443.83 238.536C419.9 246.027 395.545 252.083 370.895 256.674L364.025 257.836C329.844 262.746 300.443 257.975 283.34 244.657C277.899 240.232 279.771 235.264 281.813 230C284.281 223.402 287.059 215.929 278.484 206.01C270.487 196.854 258.707 187.252 248.301 178.62C235.878 168.413 226.017 160.323 224.264 154.974C214.546 144.977 211.231 138.872 213.383 135.161C215.535 131.449 222.292 128.815 257.959 137.957C272.067 141.56 299.059 146.272 330.325 151.748C411.854 166.142 480.915 178.999 495.83 191.642ZM284.338 243.02L284.495 243.145C301.167 256.128 330.011 260.739 363.629 255.811L370.479 254.649C395.063 250.094 419.351 244.062 443.211 236.584C472.784 226.996 491.036 217.035 496.003 207.763C496.812 206.397 497.286 204.859 497.387 203.275C497.488 201.691 497.213 200.105 496.584 198.648L496.417 198.24L496.611 197.844C496.794 197.449 496.879 197.015 496.859 196.58C496.838 196.145 496.712 195.721 496.492 195.346C489.31 181.589 397.128 165.456 329.821 153.642C298.514 148.165 271.483 143.432 257.316 139.807C231.572 133.205 217.387 131.953 214.94 136.077C213.384 138.782 217.007 144.696 225.714 153.654L225.889 153.84L225.881 154.082C227.211 158.833 237.952 167.657 249.239 176.981C259.706 185.575 271.562 195.32 279.676 204.601C289.025 215.431 285.894 223.838 283.38 230.615C281.663 235.789 280.274 239.506 284.36 242.96L284.338 243.02Z" fill="url(#paint7_linear_619_88)"/>
<path d="M465.254 195.121C465.989 195.725 466.642 196.423 467.195 197.197C467.894 198.158 468.22 199.342 468.11 200.527C469.365 202.393 470.149 204.537 470.394 206.774C470.639 209.011 470.337 211.274 469.515 213.368C462.179 231.736 414.92 243.88 383.63 251.923C380.611 252.689 377.774 253.42 375.159 254.119L369.689 255.448C343.078 261.17 319.684 257.643 303.807 245.532C299.364 241.925 300.362 237.854 301.469 233.545C302.787 228.297 304.29 222.331 297.352 214.558C290.644 207.135 280.898 199.229 272.306 192.267C262.676 184.485 254.338 177.753 252.116 173.233C238.622 161.362 233.179 153.356 235.441 148.743C237.702 144.13 248.25 143.572 267.156 147.293C273.285 148.501 282.614 150.176 293.439 152.183C347.931 162.025 447.23 179.861 465.254 195.121ZM304.8 244.036L304.996 244.203C320.422 255.977 343.296 259.407 369.362 253.807C371.125 253.342 372.948 252.899 374.791 252.457L383.262 250.282C412.323 242.809 460.94 230.307 467.925 212.833C468.667 210.949 468.922 208.909 468.669 206.9C468.416 204.891 467.661 202.978 466.475 201.338L466.285 201.03L466.297 200.668C466.363 200.258 466.343 199.839 466.238 199.438C466.134 199.036 465.947 198.66 465.69 198.335C465.187 197.6 464.579 196.943 463.886 196.384C446.449 181.606 343.576 163.068 293.039 153.96C282.212 152.014 272.864 150.318 266.736 149.07C244.577 144.678 238.353 146.948 237.039 149.621C235.726 152.293 237.581 158.189 253.439 172.09L253.576 172.215L253.57 172.396C255.445 176.482 264.154 183.528 273.334 190.953C281.985 197.957 291.79 205.905 298.615 213.433C306.172 221.93 304.483 228.655 303.12 234.062C302.22 238.197 301.458 241.209 304.8 244.036Z" fill="url(#paint8_linear_619_88)"/>
<path d="M434.655 198.64C436.131 199.696 437.207 201.22 437.708 202.966C442.38 208.753 444.008 214.238 442.558 219.22C438.779 232.072 415.866 239.566 395.634 246.183C389.787 248.002 384.262 249.832 379.639 251.691C378.189 252.193 376.833 252.692 375.571 253.187C356.288 259.694 339.121 257.458 324.47 246.534C320.925 243.742 321.13 240.59 321.32 237.257C321.698 234.704 321.458 232.097 320.618 229.657C319.779 227.216 318.365 225.014 316.497 223.236C310.19 217.064 303.485 211.313 296.428 206.017C289.142 200.265 282.836 195.289 280.203 191.662C267.504 181.888 253.071 168.638 256.07 161.152C257.736 156.941 264.599 155.397 276.312 156.668C292.091 158.315 332.55 165.964 367.606 174.744C394.153 181.352 424.94 190.414 434.655 198.64ZM325.281 245.113L325.555 245.323C339.736 255.849 356.422 258.069 375.136 251.744C376.378 251.262 377.741 250.743 379.204 250.248C383.847 248.39 389.373 246.56 395.26 244.742C414.13 238.583 437.631 230.908 441.144 218.832C442.5 214.249 440.954 209.35 436.474 203.83L436.319 203.644L436.326 203.423C434.806 188.566 311.644 161.936 276.479 158.283C265.586 157.14 259.116 158.355 257.76 161.69C255.724 166.794 264.36 177.278 281.469 190.416L281.57 190.419C284.028 193.88 290.588 199.065 297.541 204.565C304.648 209.927 311.403 215.74 317.764 221.97C319.781 223.906 321.31 226.293 322.226 228.936C323.141 231.579 323.417 234.402 323.031 237.172C322.758 240.583 322.621 242.912 325.281 245.113Z" fill="url(#paint9_linear_619_88)"/>
<path d="M404.514 202.315C405.588 203.173 406.506 204.21 407.226 205.382C415.452 213.7 418.969 220.375 417.94 226.014C416.539 233.774 407.095 238.05 397.099 242.589C392.603 244.492 388.247 246.708 384.061 249.221C383.145 249.781 382.282 250.336 381.474 250.887C369.376 258.254 358.499 257.232 345.115 247.516C343.075 245.878 341.66 243.586 341.109 241.027C340.194 237.528 338.297 234.366 335.642 231.914C330.637 227.456 325.411 223.255 319.981 219.327C315.393 215.877 311.08 212.616 308.233 209.967C285.341 194.285 272.458 179.718 274.583 171.941C275.542 168.432 279.285 166.443 285.688 166.05C296.018 165.385 323.197 171.108 351.8 179.977C362.323 183.221 394.153 193.564 404.514 202.315ZM345.543 246.102C345.664 246.224 345.795 246.336 345.934 246.437C358.965 255.879 369.041 256.834 380.728 249.735C381.53 249.178 382.413 248.604 383.356 248.051C387.585 245.506 391.99 243.264 396.537 241.344C406.206 236.954 415.324 232.829 416.602 225.769C417.536 220.589 414.129 214.22 406.192 206.273L406.077 206.108C399.166 193.266 308.578 165.939 285.864 167.404C280.085 167.777 276.776 169.418 275.978 172.289C274.036 179.408 287.046 193.758 309.134 208.87C311.921 211.477 316.234 214.737 320.883 218.19C326.32 222.108 331.547 226.309 336.543 230.777C339.357 233.401 341.377 236.766 342.372 240.485C342.806 242.647 343.917 244.615 345.543 246.102Z" fill="url(#paint10_linear_619_88)"/>
<path d="M376.745 207.798C392.597 221.276 398.541 228.091 398.661 232.984C398.761 236.065 396.604 238.107 393.866 240.692C391.323 242.931 389.119 245.529 387.323 248.403C385.191 252.115 382.936 254.093 380.387 254.613C375.531 255.62 369.624 251.321 359.852 244.219C353.748 239.793 346.114 234.271 336.266 228.213C309.189 211.467 289.963 191.822 290.565 181.461C290.63 180.143 291.074 178.873 291.844 177.802C292.614 176.732 293.676 175.907 294.904 175.427C308.206 169.327 363.606 196.743 376.745 207.798ZM312.683 209.711C320.342 216.128 328.465 221.97 336.983 227.19C346.83 233.268 354.444 238.79 360.567 243.237C370.084 250.169 375.854 254.343 380.204 253.44C382.389 252.989 384.298 251.181 386.419 247.77C388.259 244.803 390.528 242.125 393.151 239.824C395.785 237.335 397.673 235.547 397.597 232.969C397.482 228.519 391.437 221.701 376.074 208.641C363.343 198.001 308.038 170.77 295.39 176.53C294.356 176.925 293.459 177.613 292.808 178.51C292.158 179.406 291.782 180.473 291.727 181.58C291.432 188.108 299.483 198.654 312.66 209.791L312.683 209.711Z" fill="url(#paint11_linear_619_88)"/>
</g>
<defs>
<linearGradient id="paint0_linear_619_88" x1="365.635" y1="275.433" x2="373.768" y2="28.5245" gradientUnits="userSpaceOnUse">
<stop stop-color="#515676"/>
<stop offset="1" stop-color="#9E3749"/>
</linearGradient>
<linearGradient id="paint1_linear_619_88" x1="364.628" y1="273.086" x2="372.135" y2="45.1489" gradientUnits="userSpaceOnUse">
<stop stop-color="#515676"/>
<stop offset="1" stop-color="#9E3749"/>
</linearGradient>
<linearGradient id="paint2_linear_619_88" x1="363.598" y1="270.798" x2="370.491" y2="61.5115" gradientUnits="userSpaceOnUse">
<stop stop-color="#515676"/>
<stop offset="1" stop-color="#9E3749"/>
</linearGradient>
<linearGradient id="paint3_linear_619_88" x1="362.224" y1="268.58" x2="368.516" y2="77.5613" gradientUnits="userSpaceOnUse">
<stop stop-color="#515676"/>
<stop offset="1" stop-color="#9E3749"/>
</linearGradient>
<linearGradient id="paint4_linear_619_88" x1="360.508" y1="266.391" x2="366.211" y2="93.2382" gradientUnits="userSpaceOnUse">
<stop stop-color="#515676"/>
<stop offset="1" stop-color="#9E3749"/>
</linearGradient>
<linearGradient id="paint5_linear_619_88" x1="358.408" y1="264.25" x2="363.541" y2="108.42" gradientUnits="userSpaceOnUse">
<stop stop-color="#515676"/>
<stop offset="1" stop-color="#9E3749"/>
</linearGradient>
<linearGradient id="paint6_linear_619_88" x1="355.822" y1="262.233" x2="360.414" y2="122.823" gradientUnits="userSpaceOnUse">
<stop stop-color="#515676"/>
<stop offset="1" stop-color="#9E3749"/>
</linearGradient>
<linearGradient id="paint7_linear_619_88" x1="353.053" y1="260.291" x2="357.14" y2="136.194" gradientUnits="userSpaceOnUse">
<stop stop-color="#515676"/>
<stop offset="1" stop-color="#9E3749"/>
</linearGradient>
<linearGradient id="paint8_linear_619_88" x1="353.743" y1="148.334" x2="350.121" y2="258.317" gradientUnits="userSpaceOnUse">
<stop stop-color="#515676"/>
<stop offset="1" stop-color="#9E3749"/>
</linearGradient>
<linearGradient id="paint9_linear_619_88" x1="347.185" y1="256.638" x2="350.405" y2="158.887" gradientUnits="userSpaceOnUse">
<stop stop-color="#515676"/>
<stop offset="1" stop-color="#9E3749"/>
</linearGradient>
<linearGradient id="paint10_linear_619_88" x1="344.426" y1="254.998" x2="347.294" y2="167.939" gradientUnits="userSpaceOnUse">
<stop stop-color="#515676"/>
<stop offset="1" stop-color="#9E3749"/>
</linearGradient>
<linearGradient id="paint11_linear_619_88" x1="343.146" y1="253.608" x2="345.7" y2="176.074" gradientUnits="userSpaceOnUse">
<stop stop-color="#515676"/>
<stop offset="1" stop-color="#9E3749"/>
</linearGradient>
<clipPath id="clip0_619_88">
<rect width="731" height="299" fill="white" transform="translate(9.84326) rotate(1.88654)"/>
</clipPath>
</defs>
</svg>
