<svg width="816" height="316" viewBox="0 0 816 316" fill="none" xmlns="http://www.w3.org/2000/svg">
<g opacity="0.3" clip-path="url(#clip0_2006_95)">
<path d="M4.59147 159.727C2.64905 158.357 1.16573 156.43 0.336387 154.2C-0.756816 150.628 0.790487 147.072 4.91102 143.618C20.9054 130.138 96.7905 101.306 185.357 74.8337C332.182 30.9546 407.008 23.7594 432.404 22.7147C543.406 18.0976 635.908 31.4602 667.997 56.7698H668.098C682.125 67.8912 673.985 81.2369 665.374 95.3746C653.735 114.483 640.549 136.136 664.835 164.462C685.657 188.744 717.158 213.801 744.942 235.909C780.547 264.235 808.684 286.613 805.303 299.672C804.925 301.352 804.184 302.929 803.132 304.291C802.08 305.653 800.743 306.768 799.215 307.558C784.718 315.158 746.388 301.003 662.397 269.964C647.428 264.437 630.442 258.169 612.261 251.53C554.052 230.281 416.998 216.767 284.434 203.724C127.821 188.373 26.6742 177.201 4.59147 159.727ZM665.559 60.022H665.474C629.685 31.8814 522.702 23.0686 432.538 26.8262C379.24 29.0337 289.581 47.9738 186.484 78.7768C98.4051 105.047 23.1255 133.642 7.50107 146.719C3.36372 150.207 3.986 152.313 4.20464 153.004C6.82833 161.429 36.5466 170.023 92.569 178.28C144.42 185.93 212.636 192.653 284.838 199.764C417.704 212.84 554.96 226.371 613.64 247.789C631.871 254.445 648.824 260.713 663.793 266.24C741.578 294.987 784.432 310.81 797.348 304.053C798.376 303.524 799.272 302.772 799.971 301.85C800.669 300.929 801.152 299.862 801.385 298.728C804.109 288.213 774.156 264.387 742.436 239.144C714.5 216.935 682.848 191.743 661.707 167.158C635.504 136.591 650.119 112.596 661.858 93.3189C671.428 77.7489 676.289 68.4979 665.592 60.022H665.559Z" fill="url(#paint0_linear_2006_95)"/>
<path d="M40.3644 154.739C38.4975 153.424 37.0632 151.583 36.2439 149.448C35.2012 146.179 36.4794 142.91 40.0281 139.742C54.5761 124.307 131.723 95.9307 201.805 74.5136C293.399 46.6089 377.744 28.3765 427.425 25.731C433.379 25.4277 439.4 25.1581 445.337 24.9558C537.62 21.9059 615.557 34.2911 643.98 56.4497H644.081C656.998 66.678 649.732 78.9621 642.063 91.954C631.72 109.428 619.997 129.261 642.299 155.144C661.505 177.437 690.517 200.455 716.098 220.76C748.659 246.609 774.408 267.032 772.053 279.148C772.028 280.865 771.591 282.55 770.78 284.063C769.97 285.576 768.809 286.872 767.395 287.843C755.016 295.965 716.72 282.299 632.847 252.322C622.89 248.772 612.278 244.991 601.009 240.981C548.451 222.311 425.037 209.689 305.676 197.506C157.337 182.442 61.5221 171.506 40.3644 154.739ZM641.727 59.5165H641.643C613.909 37.8803 536.914 25.8152 445.455 28.8146C439.552 29.0337 433.547 29.2865 427.61 29.5898C315.801 35.4706 67.274 116.269 42.7358 142.405L42.6181 142.523C39.0358 145.691 39.6581 147.578 39.8599 148.286C42.4836 156.475 70.8732 164.715 124.238 172.803C173.533 180.302 237.898 186.84 306.097 193.782C425.676 205.999 549.326 218.637 602.321 237.459L634.057 248.833C714.231 277.48 754.461 291.836 765.242 284.742C766.185 284.082 766.949 283.198 767.466 282.168C767.983 281.139 768.236 279.996 768.202 278.844V278.575C770.287 268.785 742.772 246.946 713.643 223.827C688.028 203.421 658.865 180.302 639.423 157.722C615.339 129.75 628.339 107.844 638.783 90.1004C647.243 75.8279 651.566 67.3015 641.727 59.5165Z" fill="url(#paint1_linear_2006_95)"/>
<path d="M76.1206 149.769C74.3436 148.497 72.9664 146.743 72.1514 144.713C71.1423 141.731 72.1514 138.748 75.1451 135.867C82.6293 125.268 124.07 103.564 218.254 74.1934C280.97 54.6467 367.552 32.4375 422.43 28.6967C427.795 28.3597 433.261 28.0564 438.677 27.7868C521.828 24.0965 592.97 35.201 619.947 56.0621L620.065 56.1632C631.837 65.5153 625.497 76.721 618.736 88.567C609.688 104.44 599.445 122.42 619.762 145.859C637.371 166.08 663.877 187.143 687.271 205.645C716.805 229.017 740.165 247.519 738.77 258.674C739.257 263.156 738.248 266.358 735.658 268.448C725.096 277.008 688.247 264.336 599.26 233.735L589.741 230.466C542.851 214.357 433.177 202.68 327.103 191.406C186.938 176.544 96.3869 165.81 76.1206 149.769ZM617.878 58.9773L617.76 58.893C591.423 38.5038 521.189 27.7025 438.845 31.3591C433.463 31.6119 428.014 31.932 422.666 32.269C368.09 35.9256 281.828 58.0673 219.313 77.5635C143.226 101.289 86.4471 125.571 78.0379 138.007L77.8697 138.175L77.7183 138.31C74.7078 141.158 75.3133 142.961 75.5151 143.551C78.1556 151.42 105.25 159.407 156.059 167.344C202.831 174.64 263.378 181.077 327.49 187.902C433.749 199.208 543.624 210.886 590.901 227.13L600.404 230.399C682.949 258.792 724.39 273.048 733.421 265.785C734.447 264.959 735.742 263.342 735.221 259.045V258.792V258.556C736.667 249.491 711.591 229.641 685.051 208.628C661.505 190.092 634.882 168.928 617.054 148.387C595.19 123.111 606.492 103.059 615.641 86.9999C623.075 73.8395 626.842 66.1051 617.878 58.9773Z" fill="url(#paint2_linear_2006_95)"/>
<path d="M111.877 144.781C110.17 143.569 108.841 141.898 108.042 139.961C107.369 138.108 107.252 135.26 110.262 132.025C124.339 102.267 328.297 39.3463 417.435 31.7803C422.481 31.3759 427.257 31.0389 432.034 30.7187C507.179 26.3039 569.945 35.9087 595.913 55.7925L596.065 55.9104C606.744 64.3357 601.245 74.4461 595.409 85.2137C587.672 99.4525 578.893 115.545 597.208 136.591C613.219 154.908 637.236 173.848 658.428 190.513C684.95 211.425 705.957 228.006 705.519 238.184C707.05 243.374 706.629 247.047 704.224 249.406C695.815 257.629 664.903 248.395 578.557 219.918C537.368 206.437 441.587 195.686 348.967 185.374C216.723 170.714 131.302 160.165 111.877 144.781ZM594.03 58.5223L593.895 58.4212C568.953 39.2957 505.497 29.7751 432.236 34.0215C427.493 34.3416 422.632 34.6786 417.704 35.0662C323.823 42.9691 124.592 107.44 113.172 133.626L113.054 133.912L112.835 134.131C110.615 136.389 110.817 137.906 111.154 138.849C117.376 156.323 240.656 170.04 349.287 182.139C442.074 192.468 538.024 203.151 579.532 216.834C652.76 240.964 694.554 254.276 701.853 247.165C703.35 245.699 703.535 243.02 702.223 238.976L702.122 238.656V238.335C702.946 229.91 680.258 212.133 656.359 193.226C635.05 176.376 610.949 157.385 594.685 138.849C574.856 116.118 584.594 98.1381 592.482 83.6971C598.89 71.9017 602.102 64.9255 594.03 58.5223Z" fill="url(#paint3_linear_2006_95)"/>
<path d="M147.515 139.641C145.945 138.517 144.702 136.993 143.916 135.226C143.476 134.034 143.382 132.742 143.644 131.499C143.906 130.256 144.513 129.112 145.396 128.2C147.179 120.988 158.397 112.225 178.747 102.132C196.81 93.1841 221.853 83.3096 251.151 73.4857C308.552 54.4108 373.371 38.8239 412.457 34.7292C416.841 34.3136 421.152 33.9148 425.39 33.5328C491.285 28.4776 547.409 36.903 571.879 55.4387C581.651 62.9877 577.026 72.1376 572.098 81.7593C565.657 94.3973 558.341 108.72 574.671 127.256C589.085 143.584 610.612 160.486 629.601 175.398C653.146 193.934 671.832 208.577 672.151 217.778C674.085 221.788 676.171 227.349 673.16 230.871C667.022 238.066 644.25 233.466 567.204 209.403C531.885 198.366 450.181 188.795 371.252 179.544C249.94 165.355 166.301 154.52 147.515 139.641ZM570.147 58.0168L570.013 57.8988C551.294 43.7106 503.512 30.6514 425.626 36.6502C421.399 37.0209 417.104 37.4197 412.743 37.8466C373.875 41.9413 309.309 57.4776 252.093 76.4682C189.545 97.2619 150.727 116.91 148.289 129.194L148.205 129.598L147.936 129.902C146.254 131.907 146.422 133.272 146.758 134.131C153.217 150.982 269.247 164.462 371.638 176.527C454.352 186.216 532.474 195.366 568.146 206.505C631.922 226.422 665.323 235.353 670.823 228.899C672.235 227.214 671.697 223.844 669.225 218.789L669.057 218.452V218.081C669.242 210.448 649.06 194.591 627.683 177.791C608.577 162.794 586.932 145.775 572.334 129.278C554.641 109.158 562.797 93.2009 569.34 80.4113C574.722 69.9471 577.396 63.746 570.147 58.0168Z" fill="url(#paint4_linear_2006_95)"/>
<path d="M183.17 134.536C181.732 133.495 180.575 132.111 179.807 130.508C179.383 129.51 179.23 128.417 179.363 127.34C179.496 126.263 179.91 125.24 180.564 124.375C180.715 116.96 189.141 108.737 206.296 99.2166C220.962 90.9935 242.186 82.0963 267.599 73.2498C313.816 57.1911 371.319 42.6153 407.462 37.8634L418.73 36.5322C475.425 30.8199 524.889 37.9814 547.863 55.2027C556.558 61.943 552.774 69.9302 548.805 78.4229C543.641 89.4432 537.788 101.913 552.168 118.005C564.984 132.345 584.123 147.207 600.824 160.334C621.46 176.443 637.825 189.233 638.851 197.405C643.896 205.005 645.191 209.79 642.921 212.925C637.875 219.833 616.011 216.295 556.053 198.905C526.554 190.345 462.492 182.391 394.596 173.983C296.241 161.766 202.898 150.173 183.17 134.536ZM546.315 57.5281L546.164 57.3933C523.745 40.5427 475.022 33.6508 419.033 39.2789L407.815 40.6269C371.857 45.3957 314.506 59.904 268.524 75.9122C214.049 94.8354 183.019 112.663 183.355 124.779V125.268L183.053 125.672C182.59 126.159 182.279 126.77 182.156 127.432C182.034 128.093 182.106 128.775 182.363 129.396C189.208 145.606 298.512 159.188 394.949 171.152C462.879 179.577 527.058 187.548 556.76 196.158C597.41 207.954 635.706 217.946 640.583 211.223C642.013 209.251 640.583 205.022 636.244 198.652L636.042 198.332V197.944C635.605 191.036 617.861 177.168 599.041 162.558C582.139 149.364 562.999 134.418 549.999 119.892C534.442 102.401 540.984 88.449 546.231 77.2265C550.537 68.0092 552.673 62.5496 546.315 57.5281Z" fill="url(#paint5_linear_2006_95)"/>
<path d="M218.809 129.447C217.496 128.493 216.415 127.254 215.647 125.824C215.239 125.004 215.036 124.098 215.053 123.183C215.071 122.267 215.309 121.37 215.748 120.566C215.452 118.753 215.521 116.9 215.952 115.114C216.382 113.329 217.165 111.647 218.254 110.169C236.603 82.0626 347.924 50.0969 402.467 40.846L412.07 39.3631C460.306 32.9599 502.083 38.7565 523.829 54.832C531.414 60.6455 528.538 67.5879 525.511 74.9516C521.626 84.3374 517.236 94.9871 529.581 108.653C540.799 121.004 557.365 133.929 571.98 145.185C589.707 158.935 603.767 169.838 605.449 177.033C613.32 186.267 615.826 192.013 613.556 195.67C610.596 200.421 600.202 202.831 544.751 188.356C521.424 182.273 472.011 175.735 419.706 168.81C330.349 156.981 238.167 144.781 218.809 129.447ZM522.467 56.9889L522.282 56.8541C514.36 50.99 482.926 32.5386 412.44 41.8738L402.87 43.3567C348.748 52.574 238.352 84.0847 220.406 111.585C219.458 112.833 218.785 114.268 218.431 115.796C218.078 117.324 218.051 118.91 218.355 120.448L218.472 120.971L218.203 121.426C217.856 121.91 217.65 122.482 217.609 123.077C217.567 123.672 217.691 124.267 217.968 124.796C218.61 125.958 219.493 126.97 220.558 127.762C239.058 142.371 338.826 155.582 420.042 166.333C472.432 173.258 521.929 179.813 545.407 185.93C571.711 192.805 607.165 201.096 611.386 194.355C612.917 191.895 610.192 186.553 603.28 178.499L603.044 178.246V177.892C601.951 171.691 586.646 159.828 570.45 147.275C555.767 135.867 539.1 122.959 527.731 110.439C514.276 95.5768 519.221 83.6297 523.173 74.0249C526.419 66.0882 527.966 61.37 522.467 57.0226V56.9889Z" fill="url(#paint6_linear_2006_95)"/>
<path d="M254.464 124.408C253.294 123.531 252.301 122.438 251.538 121.19C251.13 120.533 250.87 119.794 250.777 119.025C250.684 118.257 250.76 117.477 250.999 116.741C250.169 114.797 249.787 112.69 249.883 110.578C249.979 108.465 250.551 106.402 251.554 104.541C257.323 92.8471 278.06 80.4787 313.177 67.7902C340.767 58.1203 368.91 50.1132 397.455 43.8117C400.163 43.2725 402.803 42.7333 405.41 42.1266C444.984 35.0662 479.411 39.5317 499.812 54.3771C506.304 59.3312 504.303 65.1783 502.234 71.3962C499.627 79.1643 496.684 87.9941 507.027 99.1998C516.681 109.563 530.775 120.381 543.204 129.935C558.055 141.545 569.844 150.51 572.081 156.711C583.72 167.967 587.874 174.96 585.536 179.375C583.316 183.52 575.445 187.093 533.533 177.825C516.984 174.168 485.382 169.703 448.802 164.53C353.189 150.982 272.308 138.546 254.464 124.408ZM498.618 56.5339L498.416 56.3654C478.52 41.9076 444.782 37.5938 405.915 44.57L397.993 46.2551C369.558 52.5221 341.523 60.4841 314.035 70.0987C279.994 82.3828 259.123 94.7006 253.707 105.67C252.812 107.288 252.315 109.097 252.256 110.946C252.198 112.795 252.58 114.632 253.371 116.303L253.589 116.775L253.388 117.247C253.186 117.712 253.102 118.22 253.143 118.725C253.184 119.231 253.349 119.719 253.623 120.145C262.52 135.917 370.394 151.15 449.172 162.272C485.819 167.445 517.455 171.927 534.088 175.601C564.362 182.341 580.928 183.2 583.535 178.314C585.217 175.095 580.81 168.355 570.332 158.244L570.114 158.042L570.029 157.756C568.348 152.279 555.448 142.422 541.858 131.991C529.346 122.386 515.184 111.501 505.396 100.986C494.094 88.7524 497.424 78.8273 500.098 70.857C502.032 64.7571 503.496 60.3927 498.618 56.5339Z" fill="url(#paint7_linear_2006_95)"/>
<path d="M289.934 119.168C289.046 118.466 288.259 117.643 287.596 116.724C286.742 115.633 286.317 114.266 286.402 112.882C284.864 110.764 283.863 108.303 283.485 105.711C283.107 103.119 283.364 100.474 284.233 98.0033C292.07 76.3166 346.612 60.359 382.688 49.7937C386.17 48.7826 389.416 47.8221 392.493 46.9122C394.646 46.3224 396.732 45.7495 398.783 45.1429C429.544 37.459 456.891 40.6775 475.829 54.1748C481.16 58.2021 480.135 62.9877 479.025 68.0429C477.679 74.2102 476.165 81.2033 484.524 89.9487C492.614 98.3741 504.269 107.153 514.545 114.938C526.049 123.633 536.006 131.165 538.764 136.339C554.91 149.634 561.57 158.75 559.114 164.209C556.659 169.669 544.549 170.832 522.349 167.192C515.184 166.029 504.235 164.429 491.588 162.575C427.728 153.341 311.479 136.237 289.934 119.168ZM474.786 56.0452L474.551 55.8599C456.05 42.7332 429.393 39.6327 399.271 47.165C397.253 47.7547 395.151 48.3445 392.998 48.85L383.226 51.7315C349.707 61.5386 293.617 77.9511 286.133 98.6437C285.347 100.867 285.131 103.252 285.504 105.581C285.877 107.91 286.828 110.108 288.269 111.973L288.505 112.326V112.748C288.443 113.226 288.48 113.712 288.613 114.176C288.746 114.639 288.973 115.071 289.278 115.444C289.902 116.272 290.638 117.009 291.465 117.634C312.336 134.182 432.74 151.824 491.908 160.486C504.589 162.356 515.537 163.957 522.719 165.119C548.67 169.366 555.835 166.484 557.247 163.333C558.66 160.182 556.289 153.375 537.317 137.788L537.132 137.653L537.048 137.451C534.643 132.716 524.283 124.88 513.317 116.59C502.991 108.754 491.268 99.8906 483.044 91.3136C473.912 81.7088 475.627 73.8058 477.006 67.47C477.999 62.735 478.772 59.1963 474.786 56.0452Z" fill="url(#paint8_linear_2006_95)"/>
<path d="M325.404 113.91C323.642 112.735 322.332 110.994 321.687 108.973C316.02 102.401 313.917 96.0992 315.431 90.2015C319.316 75.0359 345.704 65.4816 368.998 57.0057C375.725 54.5624 382.083 52.2538 387.397 49.9622C389.079 49.3218 390.593 48.6815 392.022 48.058C414.206 39.7338 434.287 41.6885 451.745 53.8547C455.966 56.9552 455.865 60.5949 455.765 64.5211C455.664 69.1045 455.529 74.2945 461.92 80.6809C468.311 87.0673 477.763 93.976 485.92 100.009C494.615 106.429 502.15 111.989 505.346 116.101C520.482 126.986 537.805 141.781 534.593 150.695C532.81 155.666 524.905 157.688 511.047 156.694C492.631 155.397 445.27 148.033 404.115 139.153C373.186 132.463 337.026 123.111 325.404 113.91ZM450.988 55.6071L450.685 55.3712C433.766 43.5758 414.257 41.7054 392.712 49.7768C391.299 50.4003 389.735 51.0406 388.104 51.6809C382.755 53.9726 376.331 56.298 369.603 58.7582C347.874 66.6611 320.83 76.5019 317.197 90.7744C315.801 96.1666 317.786 101.828 323.218 108.063L323.403 108.265V108.535C325.741 125.672 470.161 151.959 511.282 154.857C523.997 155.784 531.465 154.116 532.945 150.072C535.114 144.039 524.653 132.176 504.235 117.533H504.118L504.034 117.415C501.04 113.489 493.203 107.692 484.894 101.559C476.586 95.4252 467.369 88.6175 460.709 82.0626C453.73 75.1202 453.881 69.273 453.982 64.5717C454.1 60.7634 454.1 58.0505 450.988 55.6071Z" fill="url(#paint9_linear_2006_95)"/>
<path d="M360.353 108.451C359.071 107.529 357.961 106.388 357.074 105.081C347.167 95.7959 342.828 88.0615 343.804 81.4897C345.149 72.3904 355.964 67.0487 367.35 61.4038C372.511 59.014 377.496 56.2604 382.268 53.1638C383.327 52.4898 384.32 51.8157 385.228 51.1417C399.036 42.0929 411.717 42.8512 427.661 53.6525C430.092 55.4849 431.825 58.0951 432.572 61.0499C433.776 65.0936 436.11 68.7073 439.299 71.4636C445.251 76.4693 451.46 81.1601 457.9 85.517C463.367 89.359 468.513 92.9818 471.927 95.9813C499.173 113.337 514.73 129.817 512.544 138.967C511.568 143.079 507.296 145.539 499.846 146.264C487.871 147.426 456.017 141.798 422.397 132.581C410.17 129.093 372.732 118.258 360.353 108.451ZM427.291 55.2027L426.82 54.8489C411.296 44.3341 399.523 43.6095 386.203 52.3213C385.295 52.9953 384.286 53.703 383.226 54.377C378.386 57.5117 373.328 60.2936 368.09 62.7013C357.023 68.1777 346.562 73.334 345.334 81.6077C344.443 87.6739 348.698 94.9702 358.217 103.918L358.352 104.086C366.879 118.78 473.357 147.14 499.728 144.528C506.455 143.871 510.223 141.832 511.03 138.445C513.032 130.02 497.34 113.877 471.053 97.144C467.689 94.1951 462.559 90.5722 457.11 86.7303C450.621 82.3381 444.361 77.6136 438.357 72.5757C434.977 69.6341 432.494 65.7969 431.193 61.5049C430.589 59.044 429.223 56.8379 427.291 55.2027Z" fill="url(#paint10_linear_2006_95)"/>
<path d="M392.477 101.003C373.472 85.9383 366.29 78.1533 365.954 72.4578C365.735 68.8854 368.157 66.4084 371.235 63.291C374.11 60.5937 376.575 57.4882 378.551 54.0737C380.973 49.6589 383.462 47.3335 386.388 46.5752C391.989 45.2103 399.036 49.9453 410.691 57.882C417.973 62.8024 427.022 68.936 438.677 75.6257C470.918 94.094 493.959 116.269 493.64 128.318C493.622 129.855 493.157 131.355 492.303 132.632C491.449 133.91 490.242 134.911 488.83 135.513C473.693 143.23 408.168 113.422 392.477 101.003ZM466.966 96.2172C457.801 89.0474 448.121 82.5648 438.004 76.8221C426.231 70.0818 417.233 63.9651 409.951 59.011C398.582 51.3271 391.737 46.6763 386.708 47.8896C384.168 48.513 381.948 50.6868 379.745 54.7309C377.698 58.2567 375.154 61.4688 372.193 64.2684C369.233 67.2509 367.148 69.3236 367.299 72.4072C367.602 77.5635 374.884 85.2811 393.267 99.9075C408.404 111.871 473.76 141.579 488.174 134.283C489.358 133.773 490.37 132.934 491.092 131.865C491.813 130.795 492.213 129.541 492.244 128.25C492.496 120.667 482.691 108.704 466.966 96.2172Z" fill="url(#paint11_linear_2006_95)"/>
</g>
<defs>
<linearGradient id="paint0_linear_2006_95" x1="402.786" y1="21.8048" x2="402.786" y2="309.664" gradientUnits="userSpaceOnUse">
<stop stop-color="#515676"/>
<stop offset="1" stop-color="#9E3749"/>
</linearGradient>
<linearGradient id="paint1_linear_2006_95" x1="404.048" y1="24.5009" x2="404.048" y2="290.235" gradientUnits="userSpaceOnUse">
<stop stop-color="#515676"/>
<stop offset="1" stop-color="#9E3749"/>
</linearGradient>
<linearGradient id="paint2_linear_2006_95" x1="405.343" y1="27.1296" x2="405.343" y2="271.11" gradientUnits="userSpaceOnUse">
<stop stop-color="#515676"/>
<stop offset="1" stop-color="#9E3749"/>
</linearGradient>
<linearGradient id="paint3_linear_2006_95" x1="407.008" y1="29.6571" x2="407.008" y2="252.338" gradientUnits="userSpaceOnUse">
<stop stop-color="#515676"/>
<stop offset="1" stop-color="#9E3749"/>
</linearGradient>
<linearGradient id="paint4_linear_2006_95" x1="409.093" y1="32.1342" x2="409.093" y2="233.988" gradientUnits="userSpaceOnUse">
<stop stop-color="#515676"/>
<stop offset="1" stop-color="#9E3749"/>
</linearGradient>
<linearGradient id="paint5_linear_2006_95" x1="411.633" y1="34.5438" x2="411.633" y2="216.211" gradientUnits="userSpaceOnUse">
<stop stop-color="#515676"/>
<stop offset="1" stop-color="#9E3749"/>
</linearGradient>
<linearGradient id="paint6_linear_2006_95" x1="414.711" y1="36.8018" x2="414.711" y2="199.326" gradientUnits="userSpaceOnUse">
<stop stop-color="#515676"/>
<stop offset="1" stop-color="#9E3749"/>
</linearGradient>
<linearGradient id="paint7_linear_2006_95" x1="418.007" y1="38.9587" x2="418.007" y2="183.621" gradientUnits="userSpaceOnUse">
<stop stop-color="#515676"/>
<stop offset="1" stop-color="#9E3749"/>
</linearGradient>
<linearGradient id="paint8_linear_2006_95" x1="421.404" y1="41.0482" x2="421.404" y2="169.383" gradientUnits="userSpaceOnUse">
<stop stop-color="#515676"/>
<stop offset="1" stop-color="#9E3749"/>
</linearGradient>
<linearGradient id="paint9_linear_2006_95" x1="424.987" y1="43.0028" x2="424.987" y2="156.947" gradientUnits="userSpaceOnUse">
<stop stop-color="#515676"/>
<stop offset="1" stop-color="#9E3749"/>
</linearGradient>
<linearGradient id="paint10_linear_2006_95" x1="428.249" y1="44.789" x2="428.249" y2="146.297" gradientUnits="userSpaceOnUse">
<stop stop-color="#515676"/>
<stop offset="1" stop-color="#9E3749"/>
</linearGradient>
<linearGradient id="paint11_linear_2006_95" x1="429.797" y1="46.3561" x2="429.797" y2="136.76" gradientUnits="userSpaceOnUse">
<stop stop-color="#515676"/>
<stop offset="1" stop-color="#9E3749"/>
</linearGradient>
<clipPath id="clip0_2006_95">
<rect width="816" height="316" fill="white"/>
</clipPath>
</defs>
</svg>
