<svg width="902" height="588" viewBox="0 0 902 588" fill="none" xmlns="http://www.w3.org/2000/svg">
<path d="M121.081 374.259C111.049 366.335 101.57 358.463 92.6452 350.641C43.6931 307.776 13.7495 268.924 3.7087 235.312C-6.51096 200.908 4.39852 172.689 36.3349 151.499C104.069 106.248 175.663 67.0648 250.283 34.4068C271.259 24.9494 287.815 17.4857 299.235 10.3543C318.244 -1.50574 361.116 -3.32054 411.115 5.6512C464.922 15.2875 515.075 35.0202 548.723 59.8139C595.146 94.0139 654.547 119.83 696.167 135.473C744.71 153.672 797.954 168.702 838.629 175.833C864.919 180.383 884.004 194.927 893.815 217.803C910.856 257.55 898.056 317.336 860.397 373.722C842.512 400.484 824.091 428.166 804.725 453.676C786.387 478.463 765.633 501.367 742.768 522.05C720.383 542.198 694.674 558.31 666.785 569.669C635.695 581.85 602.521 587.824 569.137 587.255C508.227 586.999 379.332 536.543 255.674 464.564C208.753 437.65 163.778 407.474 121.081 374.259ZM872.456 191.808C862.506 184.164 850.794 179.145 838.399 177.213C797.52 170.133 744.276 155.027 695.681 136.777C653.96 121.108 594.43 95.113 547.88 60.9386C514.385 36.3238 464.589 16.6422 410.936 7.03147C361.269 -1.86359 318.806 -0.125475 300.079 11.5557C288.556 18.7382 271.975 26.2274 250.948 35.7104C176.366 68.3248 104.814 107.474 37.127 152.701C5.77818 173.507 -5.02911 201.266 5.0628 234.903C15.1547 268.541 44.8172 306.882 93.565 349.568C136.309 386.988 192.645 426.403 256.441 463.542C379.92 535.393 508.508 585.772 569.188 586.028C602.379 586.584 635.36 580.645 666.274 568.545C694.007 557.249 719.569 541.223 741.823 521.181C787.019 481.434 823.708 426.377 859.349 373.135C896.727 317.055 909.502 257.78 892.563 218.468C888.213 208.029 881.296 198.858 872.456 191.808Z" fill="url(#paint0_linear_653_80)"/>
<path d="M142.185 360.354C134.248 354.084 126.694 347.847 119.523 341.644C74.3775 302.639 46.7334 267.314 37.3313 236.667C27.9292 206.02 37.3313 180.255 65.8441 161.085C151.306 102.577 217.197 71.035 260.784 50.1265C281.223 40.3369 297.421 32.592 308.919 25.3328C327.544 13.575 367.911 11.1212 414.283 18.8916C463.925 27.1988 510.859 45.2445 543 68.4023C585.973 99.7395 640.47 123.792 678.589 138.438C723.402 155.666 770.745 169.699 808.532 176.907C832.369 181.482 849.666 195.131 858.557 216.372C873.886 253.23 862.211 308.211 827.77 359.894C795.348 408.689 761.828 459.146 719.442 496.336C698.78 514.878 675.082 529.724 649.386 540.224C620.761 551.47 590.23 557.06 559.479 556.685C503.271 556.838 384.059 511.161 269.88 445.548C225.306 420.286 182.628 391.813 142.185 360.354ZM838.399 191.527C829.578 184.733 819.242 180.181 808.276 178.261C770.438 171.002 722.993 156.944 678.104 139.691C639.908 124.993 585.309 100.915 542.208 69.5525C510.22 46.5481 463.516 28.6557 414.053 20.2463C368.065 12.5782 327.978 14.9297 309.634 26.5086C298.06 33.7678 281.862 41.436 261.372 51.3534C217.938 72.2108 151.97 103.752 66.6106 162.209C38.711 180.996 29.2833 205.918 38.5066 236.335C47.7298 266.752 75.3484 301.872 120.264 340.724C159.763 374.873 211.679 410.76 270.416 444.5C384.416 509.986 503.22 555.611 559.351 555.432C589.937 555.832 620.308 550.276 648.773 539.073C674.342 528.638 697.92 513.869 718.471 495.416C760.704 458.353 794.173 407.974 826.569 359.255C860.729 307.955 872.558 253.435 857.228 216.986C853.226 207.031 846.744 198.267 838.399 191.527Z" fill="url(#paint1_linear_653_80)"/>
<path d="M163.289 346.552C157.412 341.9 151.774 337.273 146.375 332.672C105.062 297.501 79.6918 265.653 70.9285 238.098C62.1651 210.544 70.4175 187.923 95.3535 170.772C169.804 117.632 228.95 87.4448 272.102 65.4628C291.699 55.4942 307.181 47.5704 318.627 40.2857C337.125 28.5023 374.069 25.435 417.451 32.1319C462.98 39.1355 506.643 55.4942 537.277 77.0161C608.942 128.623 720.745 165.711 778.435 178.057C799.845 182.658 815.354 195.387 823.274 214.889C837.07 248.834 826.289 299.035 795.17 345.913C767.219 388.139 735.538 435.988 696.116 470.469C677.181 487.404 655.493 500.976 631.987 510.599C605.839 520.947 577.941 526.154 549.821 525.935C523.838 526.242 484.083 516.554 434.85 497.819C382.909 477.713 332.525 453.791 284.11 426.249C241.885 402.769 201.496 376.127 163.289 346.552ZM804.393 191.22C796.708 185.277 787.755 181.192 778.231 179.284C720.464 166.938 608.457 129.747 536.638 78.0385C506.081 56.7722 462.597 40.3624 417.273 33.3588C374.171 26.7386 337.534 29.7036 319.292 41.3337C307.794 48.6951 292.312 56.67 272.69 66.5874C229.537 88.5695 170.468 118.705 96.0688 171.794C71.6439 188.588 63.5959 210.774 72.1293 237.715C80.816 265.141 106.059 296.811 147.193 331.829C183.421 362.68 230.968 395.04 284.647 425.406C333.057 452.955 383.442 476.877 435.387 496.975C484.467 515.532 524.068 525.092 549.873 524.887C577.857 525.082 605.616 519.874 631.63 509.551C655.046 499.994 676.65 486.49 695.503 469.625C734.542 435.068 766.069 387.372 794.173 345.222C825.113 298.702 835.87 248.936 822.277 215.375C818.52 205.903 812.355 197.576 804.393 191.22Z" fill="url(#paint2_linear_653_80)"/>
<path d="M184.469 332.826C180.585 329.758 176.804 326.717 173.227 323.675C135.721 292.338 112.599 263.966 104.5 239.325C96.682 215.247 103.427 195.361 124.786 180.255C188.914 132.15 244.279 102.04 284.698 80.0579C302.097 70.6006 317.145 62.4212 328.132 55.2387C346.246 43.5831 380.737 39.9024 420.441 45.3723C461.83 51.0979 502.198 65.8207 531.375 85.6301C559.913 105.9 598.595 126.246 643.255 144.419C677.34 158.49 712.39 170.098 748.134 179.156C757.086 181.082 765.411 185.228 772.344 191.213C779.277 197.198 784.596 204.829 787.812 213.407C799.973 244.438 790.188 289.833 762.262 331.906C733.085 376.151 706.208 415.182 672.508 444.551C655.361 459.92 635.734 472.27 614.461 481.077C590.779 490.496 565.521 495.319 540.036 495.288C516.224 495.8 479.919 487.365 435.106 470.878C387.94 453.109 342.158 431.861 298.137 407.309C258.334 385.536 220.324 360.629 184.469 332.826ZM770.234 190.863C763.731 185.801 756.208 182.208 748.185 180.332C712.383 171.25 677.275 159.624 643.127 145.544C598.263 127.268 559.505 106.896 531.017 86.5759C501.942 66.8432 461.677 52.2481 420.466 46.5481C381.044 41.0782 346.834 44.7078 328.949 56.2356C317.835 63.4181 302.761 71.5718 285.337 81.0804C244.867 103.062 189.604 133.122 125.527 181.201C104.577 195.975 97.8573 215.426 105.624 238.968C113.647 263.403 136.641 291.622 173.968 322.806C206.952 350.386 250.079 379.218 298.699 406.184C342.674 430.7 388.404 451.923 435.515 469.677C480.2 486.112 516.326 494.547 540.036 494.01C565.406 494.063 590.552 489.274 614.129 479.901C635.331 471.194 654.906 458.956 672.023 443.707C705.62 414.415 732.447 375.461 761.573 331.241C789.293 289.501 799.028 244.514 787.122 213.816C783.65 204.789 777.818 196.861 770.234 190.863Z" fill="url(#paint3_linear_653_80)"/>
<path d="M205.674 319.304L200.003 314.754C166.329 287.251 145.481 262.33 138.046 240.629C130.918 219.951 136.411 202.851 154.346 189.764C208.945 145.953 261.295 115.561 299.542 93.3238C314.693 84.5054 327.646 76.9139 338.019 70.3193C355.903 58.587 387.252 54.3696 423.787 58.7404C461.089 63.1879 498.263 76.1727 525.831 94.3462C579.484 131.69 663.081 165.123 718.216 180.408C726.126 182.446 733.413 186.402 739.432 191.925C745.452 197.448 750.02 204.37 752.732 212.078C763.233 240.194 754.419 280.785 729.738 318.026C704.981 355.83 680.173 391.998 649.284 418.786C633.805 432.531 616.125 443.574 596.985 451.452C575.772 459.951 553.152 464.39 530.302 464.539C508.61 465.255 475.78 458.072 435.361 443.707C392.981 428.27 351.81 409.696 312.189 388.139C274.816 368.224 239.186 345.198 205.674 319.304ZM736.125 190.428C730.724 186.226 724.54 183.141 717.935 181.354C662.723 166.018 578.871 132.534 525.217 95.1386C497.803 77.0673 460.783 64.1592 423.711 59.7117C387.431 55.3664 356.44 59.5072 338.658 71.1117C328.438 77.8341 315.306 85.4256 300.13 94.1162C261.806 116.328 209.609 146.72 155.062 190.581C137.535 203.362 132.067 220.053 139.093 240.22C146.477 261.665 167.197 286.408 200.743 313.783C230.483 338.04 269.215 363.345 312.776 386.937C352.35 408.487 393.479 427.045 435.821 442.455C476.112 456.769 508.789 463.951 530.353 463.235C553.043 463.138 575.514 458.785 596.602 450.404C615.608 442.532 633.164 431.534 648.543 417.865C679.33 391.155 704.061 355.063 728.793 317.31C753.269 280.376 762.007 240.143 751.659 212.359C748.604 203.754 743.228 196.164 736.125 190.428Z" fill="url(#paint4_linear_653_80)"/>
<path d="M226.982 305.962L226.778 305.808C196.911 282.139 178.235 260.694 171.541 242.06C165.23 224.807 169.395 210.468 183.881 199.425C229.691 158.784 280.508 127.243 317.631 104.213C329.23 97.0045 339.271 90.7677 347.728 85.17C365.357 73.54 394.253 68.709 426.93 71.8785C460.144 75.0992 494.099 86.3969 520.057 102.858C543.383 118.756 573.045 134.783 608.227 150.477C634.695 162.26 663.796 173.482 688.093 181.456C694.966 183.606 701.225 187.37 706.345 192.435C711.466 197.5 715.3 203.719 717.526 210.57C726.315 235.772 718.497 271.532 697.086 303.917C676.494 335.612 654.011 368.585 625.932 392.816C612.168 404.936 596.5 414.703 579.56 421.725C560.814 429.295 540.832 433.342 520.619 433.662C481.861 435.553 403.757 409.507 326.266 368.866C287.789 348.673 253.477 326.921 226.982 305.962ZM702.017 189.917C697.789 186.531 692.986 183.933 687.838 182.249C660.679 173.301 633.988 162.987 607.869 151.346C572.611 135.626 542.897 119.6 519.546 103.65C493.715 87.4449 459.914 76.0705 426.853 72.8754C394.329 69.7059 365.689 74.4857 348.239 86.0135C339.782 91.6112 329.741 97.848 318.116 105.056C281.044 128.061 230.253 159.602 184.469 200.192C170.366 210.979 166.303 224.935 172.435 241.728C179.154 260.183 197.652 281.475 227.366 305.016L227.57 305.195C254.039 326.129 288.326 347.83 326.726 367.971C404.063 408.561 481.988 434.557 520.568 432.691C559.238 432.207 596.434 417.776 625.319 392.049C653.423 367.895 675.727 334.998 696.294 303.354C717.526 271.25 725.19 235.696 716.555 210.877C713.831 202.627 708.772 195.346 701.992 189.917H702.017Z" fill="url(#paint5_linear_653_80)"/>
<path d="M248.214 292.849C225.22 274.624 210.606 258.036 204.78 243.466C199.338 229.638 202.225 218.059 213.237 209.036C250.718 170.338 302.659 136.112 340.676 111.114C346.629 107.203 352.275 103.446 357.283 100.123C374.835 88.4161 400.717 83.0996 430.021 85.1188C459.797 87.1928 488.673 96.2184 514.334 111.472C531.017 122.437 578.079 151.346 658.022 182.581C663.84 184.857 669.057 188.444 673.266 193.063C677.475 197.682 680.564 203.209 682.294 209.215C689.345 231.504 682.498 262.406 664.409 289.91C647.726 315.828 627.797 345.274 602.555 366.923C577.143 389.272 544.707 402.007 510.884 402.913C493.434 404.088 467.451 399.385 435.872 389.314C403.025 378.598 371.053 365.361 340.242 349.721C309.766 334.743 280.694 317.061 253.375 296.888C251.637 295.533 249.977 294.178 248.214 292.849ZM667.858 189.227C664.755 186.802 661.311 184.847 657.639 183.425C644.864 178.312 619.085 168.088 590.24 154.286C563.846 142.049 538.329 128 513.874 112.239C488.366 97.0844 459.667 88.112 430.073 86.039C400.895 84.0197 375.27 89.2852 357.896 100.89C352.786 104.264 347.242 107.97 341.289 111.881C303.349 136.853 251.382 171.053 213.952 209.701C203.222 218.442 200.463 229.689 205.751 243.108C211.755 258.445 228.439 276.695 253.988 296.146C281.263 316.275 310.283 333.922 340.702 348.878C371.475 364.49 403.404 377.709 436.204 388.42C467.732 398.465 493.537 403.143 510.884 401.992C544.503 401.092 576.742 388.43 601.993 366.208C627.159 344.635 647.036 315.24 663.694 289.526C681.578 262.279 688.425 231.657 681.451 209.624C679.104 201.598 674.361 194.481 667.858 189.227Z" fill="url(#paint6_linear_653_80)"/>
<path d="M269.956 280.503C253.605 267.57 242.695 255.403 238.122 244.974C233.549 234.545 235.107 225.625 242.823 218.647C271.464 179.923 338.479 134.502 367.094 115.101C402.863 90.921 461.089 92.9659 508.636 120.213C545.095 143.448 591.748 166.222 619.622 179.795L627.925 183.833C632.692 186.247 636.877 189.669 640.19 193.862C643.503 198.055 645.865 202.919 647.113 208.116C652.376 227.465 646.499 253.486 631.783 276.03C617.092 299.035 600.536 323.061 579.228 341.158C557.483 360.058 529.98 371.032 501.201 372.291C471.105 375.026 413.389 358.718 354.217 330.755C328.328 318.746 303.536 304.497 280.125 288.171C276.446 285.513 273.099 282.983 269.956 280.503ZM633.699 188.307C631.797 186.808 629.741 185.514 627.567 184.447L619.264 180.383C591.364 166.81 544.712 144.036 508.227 120.673C460.962 93.7327 403.093 91.6623 367.554 115.561C338.964 134.962 272 180.357 243.436 218.954C236.001 225.676 234.494 234.29 238.914 244.361C244.305 256.655 258.689 271.455 280.534 287.098C303.943 303.404 328.735 317.628 354.626 329.605C413.67 357.517 471.207 373.799 501.201 371.064C567.22 367.409 601.61 321.681 631.144 275.187C645.758 252.847 651.584 227.082 646.474 207.963C644.434 200.209 639.955 193.318 633.699 188.307Z" fill="url(#paint7_linear_653_80)"/>
<path d="M291.673 268.924C281.683 261.026 274.606 253.588 271.234 246.789C267.503 239.581 267.887 233.37 272.383 228.385C277.289 215.605 291.724 198.505 315.331 177.673C334.922 160.67 355.472 144.805 376.879 130.156C412.111 106.078 459.25 105.567 503.015 128.802C517.757 137.697 533.317 146.694 548.339 155.385C567.808 166.631 586.178 177.264 597.93 184.958C607.792 191.451 613.26 203.285 613.26 218.187C612.745 233.779 607.906 248.921 599.284 261.921C579.637 293.488 565.841 306.958 556.03 315.163C537.948 330.6 515.386 339.812 491.671 341.44C465.739 344.609 418.448 333.209 368.295 311.687C336.052 297.884 309.302 282.778 291.673 268.924ZM599.463 187.131C598.814 186.594 598.131 186.099 597.419 185.648C585.692 177.98 567.322 167.347 547.88 156.1C532.831 147.41 517.221 138.412 502.555 129.517C459.122 106.513 412.188 106.922 377.186 130.847C355.804 145.478 335.28 161.326 315.715 178.312C292.158 199.093 277.774 216.065 272.945 228.769C268.628 233.523 268.27 239.453 271.872 246.406C281.377 264.784 318.397 289.526 368.448 311.023C418.499 332.519 465.535 343.893 491.467 340.724C515.007 339.112 537.403 329.962 555.34 314.627C573.965 299.06 588.171 278.075 598.467 261.563C607.038 248.652 611.834 233.602 612.314 218.11C612.366 204.512 607.818 193.546 599.463 186.952V187.131Z" fill="url(#paint8_linear_653_80)"/>
<path d="M313.364 258.47C309.81 255.806 306.638 252.667 303.937 249.14C300.871 244.897 300.13 241.14 301.739 237.97C298.801 226.289 314.795 207.068 328.745 193.01C346.575 175.376 365.894 159.316 386.486 145.007C404.064 132.84 421.463 126.246 439.628 124.865C458.177 123.485 477.006 127.421 497.19 137.313C526.546 153.646 554.241 172.74 567.757 186.006C574.297 192.498 577.619 202.671 577.082 214.685C576.404 226.485 572.737 237.92 566.428 247.914C550.435 274.394 526.367 305.476 481.758 310.665C460.169 314.269 422.996 307.725 382.372 293.105C352.659 282.42 327.518 269.666 313.364 258.47ZM554.957 175.782C536.588 161.691 517.174 149.019 496.884 137.876C476.828 128.163 458.1 124.124 439.679 125.53C421.258 126.936 404.345 133.454 386.844 145.544C348.673 172.05 297.217 218.212 302.531 237.945C300.947 240.884 301.663 244.437 304.601 248.553C313.799 261.333 344.483 278.509 382.73 292.235C423.277 306.805 460.323 313.374 481.835 309.77C526.163 304.658 550.102 273.679 566.02 247.326C572.283 237.438 575.923 226.116 576.597 214.429C577.108 202.595 573.863 192.601 567.45 186.313C563.464 182.596 559.294 179.081 554.957 175.782Z" fill="url(#paint9_linear_653_80)"/>
<path d="M334.902 251.697C333.441 250.665 332.227 249.32 331.351 247.76C329.788 246.928 328.477 245.692 327.552 244.182C326.626 242.673 326.121 240.943 326.088 239.172C325.577 228.13 338.581 211.899 349.567 200.218C363.777 185.345 379.383 171.872 396.169 159.986C414.411 147.205 428.77 140.457 442.796 138.131C457.742 135.575 473.2 138.131 491.467 145.8C511.651 155.564 529.791 171.769 537.66 187.054C544.686 200.831 541.186 221.612 533.751 233.753C519.137 259.314 498.365 274.906 472.05 279.762C461.83 282.165 448.468 282.548 432.449 280.963C417.293 279.346 402.285 276.561 387.559 272.631C363.313 266.368 343.078 258.189 334.902 251.697ZM331.734 247.377C332.564 248.902 333.736 250.215 335.158 251.211C353.042 265.474 432.244 288.529 471.871 279.328C498.033 274.522 518.651 259.135 533.189 233.6C540.547 221.586 544.022 201.036 537.072 187.438C529.254 172.255 511.217 156.152 491.084 146.541C472.918 138.873 457.563 136.317 442.719 138.873C428.795 141.199 414.488 147.895 396.348 160.625C379.588 172.486 364.007 185.933 349.823 200.78C338.913 212.385 325.985 228.488 326.496 239.325C326.531 241.023 327.024 242.68 327.924 244.12C328.823 245.56 330.096 246.73 331.606 247.505L331.734 247.377Z" fill="url(#paint10_linear_653_80)"/>
<path d="M350.666 253.767C348.919 252.445 347.654 250.586 347.063 248.476C345.658 243.032 347.498 232.424 364.335 212.691C376.657 198.542 390.581 185.873 405.826 174.938C423.149 162.644 434.467 154.924 445.887 151.397C457.717 147.716 469.239 148.637 485.693 154.541C489.932 155.929 493.815 158.233 497.064 161.29C500.314 164.346 502.852 168.081 504.497 172.229C511.906 190.53 503.501 214.838 501.048 219.874C496.424 229.254 488.018 237.153 476.112 243.287C464.005 249.169 451.088 253.209 437.788 255.275C412.382 259.347 386.55 260.043 360.962 257.345C357.269 257.107 353.711 255.87 350.666 253.767ZM495.069 160.164C492.207 157.944 488.995 156.217 485.565 155.052C469.239 149.173 457.793 148.253 446.092 151.883C434.39 155.512 423.43 163.104 406.133 175.373C379.434 194.339 343.205 231.223 347.625 248.323C348.877 253.153 353.4 255.991 361.064 256.936C386.593 259.628 412.365 258.932 437.712 254.866C450.956 252.802 463.82 248.779 475.882 242.929C487.711 236.82 496.04 229.024 500.614 219.72C503.169 214.608 511.395 190.607 504.063 172.459C502.201 167.639 499.099 163.397 495.069 160.164Z" fill="url(#paint11_linear_653_80)"/>
<defs>
<linearGradient id="paint0_linear_653_80" x1="450.64" y1="0.00232723" x2="450.64" y2="587.459" gradientUnits="userSpaceOnUse">
<stop stop-color="#515676"/>
<stop offset="1" stop-color="#9E3749"/>
</linearGradient>
<linearGradient id="paint1_linear_653_80" x1="449.515" y1="14.4185" x2="449.515" y2="556.71" gradientUnits="userSpaceOnUse">
<stop stop-color="#515676"/>
<stop offset="1" stop-color="#9E3749"/>
</linearGradient>
<linearGradient id="paint2_linear_653_80" x1="448.366" y1="28.6556" x2="448.366" y2="525.961" gradientUnits="userSpaceOnUse">
<stop stop-color="#515676"/>
<stop offset="1" stop-color="#9E3749"/>
</linearGradient>
<linearGradient id="paint3_linear_653_80" x1="447.216" y1="42.893" x2="447.216" y2="495.212" gradientUnits="userSpaceOnUse">
<stop stop-color="#515676"/>
<stop offset="1" stop-color="#9E3749"/>
</linearGradient>
<linearGradient id="paint4_linear_653_80" x1="446.066" y1="56.9512" x2="446.066" y2="464.488" gradientUnits="userSpaceOnUse">
<stop stop-color="#515676"/>
<stop offset="1" stop-color="#9E3749"/>
</linearGradient>
<linearGradient id="paint5_linear_653_80" x1="444.865" y1="70.9328" x2="444.865" y2="433.764" gradientUnits="userSpaceOnUse">
<stop stop-color="#515676"/>
<stop offset="1" stop-color="#9E3749"/>
</linearGradient>
<linearGradient id="paint6_linear_653_80" x1="443.614" y1="84.7099" x2="443.614" y2="403.092" gradientUnits="userSpaceOnUse">
<stop stop-color="#515676"/>
<stop offset="1" stop-color="#9E3749"/>
</linearGradient>
<linearGradient id="paint7_linear_653_80" x1="442.285" y1="98.2569" x2="442.285" y2="372.47" gradientUnits="userSpaceOnUse">
<stop stop-color="#515676"/>
<stop offset="1" stop-color="#9E3749"/>
</linearGradient>
<linearGradient id="paint8_linear_653_80" x1="440.829" y1="111.625" x2="440.829" y2="341.925" gradientUnits="userSpaceOnUse">
<stop stop-color="#515676"/>
<stop offset="1" stop-color="#9E3749"/>
</linearGradient>
<linearGradient id="paint9_linear_653_80" x1="439.015" y1="124.61" x2="439.015" y2="311.61" gradientUnits="userSpaceOnUse">
<stop stop-color="#515676"/>
<stop offset="1" stop-color="#9E3749"/>
</linearGradient>
<linearGradient id="paint10_linear_653_80" x1="433.777" y1="137.211" x2="433.777" y2="282.063" gradientUnits="userSpaceOnUse">
<stop stop-color="#515676"/>
<stop offset="1" stop-color="#9E3749"/>
</linearGradient>
<linearGradient id="paint11_linear_653_80" x1="427.16" y1="149.224" x2="427.16" y2="258.956" gradientUnits="userSpaceOnUse">
<stop stop-color="#515676"/>
<stop offset="1" stop-color="#9E3749"/>
</linearGradient>
</defs>
</svg>
