<svg width="369" height="357" viewBox="0 0 369 357" fill="none" xmlns="http://www.w3.org/2000/svg">
<g clip-path="url(#clip0_29_28)">
<path d="M305.68 63.7C311.987 68.68 318.197 73.9233 324.31 79.43C358.69 110.37 372.87 140.2 367.68 170.62C363.19 196.97 344.91 219.73 328.79 239.81C318.03 253.22 307.86 265.88 303.6 277.54C289.42 316.37 295.2 332.09 298.66 341.48C300.66 346.92 301.98 350.48 297.92 355.15C293.86 359.82 271.83 352.05 228.37 331.06C209.56 321.98 199.59 309.06 191.58 298.72C187.58 293.53 184.09 289.04 180.29 286.05C169.83 277.82 166.08 276.71 157.85 274.27C151 272.27 140.63 269.15 120.42 260.05C102.66 252.05 78.9 234.53 58.42 214.32C47.2508 203.392 37.0524 191.514 27.94 178.82C18.34 165.32 11.1 152 6.40999 139.17C-2.27001 115.44 -2.13 93.91 6.81999 75.17C15.7091 56.6438 29.1217 40.6552 45.82 28.68C62.71 16.37 82.63 7.86998 105 3.42998C137.58 -3.00002 173.86 -0.320018 209.93 11.27C229.861 17.7737 249.016 26.4492 267.05 37.14C280.52 45.0985 293.427 53.9727 305.68 63.7ZM213.08 320.55C217.921 324.368 223.165 327.644 228.72 330.32C248.49 339.86 263.56 346.52 274.8 350.67C291 356.67 295.98 356.12 297.3 354.61C301.04 350.33 299.92 347.29 297.88 341.76C294.39 332.27 288.54 316.37 302.83 277.26C307.14 265.47 317.34 252.76 328.15 239.26C344.21 219.26 362.41 196.58 366.87 170.44C372.01 140.32 357.87 110.74 323.76 80C306.175 64.0618 287.036 49.9277 266.63 37.81C248.651 27.148 229.553 18.4992 209.68 12.02C173.74 0.499982 137.6 -2.20002 105.17 4.23998C82.91 8.64998 63.1 17.1 46.27 29.35C29.6973 41.2568 16.3857 57.1407 7.55999 75.54C-1.29001 94.06 -1.44001 115.37 7.18999 138.89C11.85 151.63 19.06 164.89 28.6 178.34C37.6886 190.995 47.8602 202.837 59 213.73C79.42 233.88 103.09 251.34 120.77 259.3C140.93 268.38 151.26 271.45 158.1 273.48C166.43 275.95 170.23 277.08 180.81 285.4L180.87 285.45C184.73 288.5 188.21 293.01 192.24 298.22C197.6 305.16 203.86 313.26 213.08 320.55Z" fill="url(#paint0_linear_29_28)"/>
<path d="M293.16 72.9299C298.26 76.9299 303.29 81.1499 308.25 85.5899C339.54 113.23 352.96 139.97 349.25 167.34C346.05 191.11 330.45 211.92 316.68 230.29C307.09 243.08 298.04 255.16 294.54 266.44C282.92 302.2 288.34 317.44 291.59 326.53C293.59 332.03 294.84 335.67 290.96 340.23C288.81 342.84 281.52 342.23 269.3 338.52C258.3 335.15 243.75 329.33 227.21 321.7C209.9 313.8 200.5 302.42 192.95 293.28C189.3 288.86 186.15 285.05 182.72 282.33C171.87 273.7 168.5 272.43 158.49 268.65C151.77 266.1 142.57 262.65 126.41 255.19C109.85 247.58 87.7 231.19 68.61 212.46C58.171 202.299 48.6257 191.258 40.08 179.46C31.08 166.92 24.32 154.54 19.94 142.68C12.05 121.28 12.02 101.84 19.86 84.9099C27.8183 67.8475 39.9401 53.0606 55.11 41.9099C70.48 30.4599 88.62 22.5099 109.02 18.2699C138.5 12.1599 171.39 14.3399 204.13 24.5799C222.228 30.3312 239.637 38.0612 256.04 47.6299C269.006 55.1586 281.412 63.614 293.16 72.9299ZM211.38 311.13C216.357 315.063 221.794 318.378 227.57 321C262.57 337.14 286.63 344.31 290.4 339.73C293.99 335.51 292.82 332.23 290.89 326.79C287.61 317.6 282.13 302.21 293.83 266.2C297.37 254.81 306.46 242.67 316.09 229.82C329.8 211.54 345.34 190.82 348.51 167.23C352.16 140.14 338.82 113.63 307.74 86.1699C291.7 71.8332 274.259 59.146 255.68 48.2999C239.328 38.7536 221.973 31.0403 203.93 25.2999C171.31 15.1199 138.56 12.9399 109.2 18.9999C88.91 23.2099 70.88 31.1199 55.6 42.4999C40.5397 53.5715 28.5043 68.2514 20.6 85.1899C12.86 101.92 12.89 121.19 20.71 142.36C26.49 158.03 39.59 182.81 69.19 211.87C88.19 230.56 110.29 246.87 126.77 254.46C142.9 261.88 152.1 265.35 158.77 267.89C168.58 271.6 172.26 273 183.2 281.69C186.69 284.46 189.87 288.31 193.55 292.76C198.29 298.49 203.73 305.08 211.38 311.13Z" fill="url(#paint1_linear_29_28)"/>
<path d="M280.48 81.9999C284.42 85.1199 288.323 88.3632 292.19 91.7299C320.41 116.1 333.05 139.73 330.82 164.1C328.89 185.3 315.92 204.16 304.48 220.8C296.13 232.96 288.23 244.44 285.54 255.32C276.44 287.98 281.54 302.7 284.54 311.5C286.47 317.1 287.75 320.8 284.04 325.29C279.18 331.58 250.6 322.99 226.1 312.34C210.17 305.58 201.32 295.68 194.21 287.72C191.46 284.443 188.45 281.393 185.21 278.6C172.94 268.73 170.21 267.51 155.15 260.73C149.47 258.18 142.4 255.01 132.45 250.32C122.27 245.52 109.61 237.11 96.81 226.63C82.6621 215.121 69.7463 202.175 58.27 188C45.49 172 36.62 156.37 31.92 141.57C26.44 124.32 26.79 108.57 32.92 94.6599C39.9559 79.0407 50.8092 65.4432 64.48 55.1199C78.31 44.5399 94.66 37.1199 113.09 33.1199C139.48 27.3499 168.98 28.9999 198.39 37.8999C226.69 46.4499 254.25 61.2699 280.48 81.9999ZM209.37 301.6C214.556 305.711 220.275 309.102 226.37 311.68C255.54 324.36 279.55 329.9 283.46 324.85C286.91 320.66 285.75 317.31 283.83 311.75C280.77 302.87 275.64 288.01 284.83 255.15C287.55 244.15 295.48 232.61 303.88 220.4C315.26 203.84 328.17 185.06 330.09 164.05C332.3 139.97 319.74 116.5 291.71 92.2899C262.08 66.4699 230.62 48.3999 198.17 38.5799C168.88 29.7199 139.51 28.0699 113.24 33.8199C94.91 37.8199 78.65 45.1799 64.91 55.6899C51.3568 65.9357 40.5942 79.4216 33.61 94.9099C27.51 108.61 27.17 124.22 32.61 141.3C37.28 156.02 46.11 171.56 58.83 187.5C70.2725 201.657 83.155 214.586 97.27 226.08C110.03 236.53 122.63 244.9 132.76 249.67C142.76 254.36 149.76 257.53 155.44 260.08C170.59 266.89 173.32 268.08 185.67 278.08C188.944 280.903 191.987 283.983 194.77 287.29C199.201 292.485 204.087 297.274 209.37 301.6Z" fill="url(#paint2_linear_29_28)"/>
<path d="M268 91.2499C270.707 93.3899 273.403 95.6065 276.09 97.8999C301.27 119.02 313.09 139.65 312.27 160.97C311.54 179.61 301.62 195.77 292.02 211.41C284.97 222.89 278.32 233.74 276.46 244.23C269.85 273.73 274.41 287.36 277.46 296.39C279.46 302.34 280.66 305.93 277.11 310.39C272.86 316.25 250 313 225 303C210.28 297.35 201.9 288.83 195.16 282C192.8 279.5 190.303 277.133 187.68 274.91L186.43 273.91C172.05 262.19 170.88 261.23 138.43 245.5C129.32 241.09 117.5 233.19 106.01 223.85C93.0602 213.366 81.1942 201.611 70.59 188.76C58.8 174.23 50.51 160.1 46 146.73C40.73 131.14 40.74 116.87 46 104.32C52.1162 90.1846 61.6775 77.8075 73.81 68.3199C86.5533 58.3892 101.348 51.4206 117.12 47.9199C140.43 42.4999 166.53 43.6299 192.61 51.1899C218.69 58.7499 243.9 72.1599 268 91.2499ZM206.82 291.87C212.388 296.293 218.604 299.831 225.25 302.36C249.53 312.11 272.56 315.52 276.6 309.97C279.92 305.8 278.76 302.34 276.84 296.6C273.98 288.06 269.19 273.76 275.84 244.09C277.71 233.5 284.4 222.6 291.49 211.09C301.04 195.53 310.91 179.44 311.63 160.98C312.46 139.89 300.7 119.44 275.7 98.4499C249.22 75.8799 221.21 60.2099 192.44 51.8799C166.44 44.3499 140.49 43.2299 117.29 48.6199C101.629 52.099 86.9399 59.0234 74.29 68.8899C62.2431 78.3073 52.7503 90.5954 46.68 104.63C41.46 117.01 41.45 131.12 46.68 146.56C51.17 159.85 59.42 173.9 71.2 188.34C81.781 201.151 93.6128 212.876 106.52 223.34C117.97 232.65 129.74 240.51 138.81 244.91C171.29 260.67 172.47 261.63 186.9 273.39L188.15 274.39C190.792 276.633 193.31 279.02 195.69 281.54C199.178 285.215 202.895 288.665 206.82 291.87Z" fill="url(#paint3_linear_29_28)"/>
<path d="M255.64 100.46C257.12 101.64 258.64 102.83 260.07 104.05C309.74 144.23 293.63 174.97 279.41 202.1C273.76 212.87 268.41 223.04 267.41 233.1C263.21 259.37 267.48 272.44 270.3 281.1C272.3 287.29 273.55 291.02 270.16 295.45C268.16 298.37 262.16 299.93 253.76 299.73C244.82 299.51 234.19 297.34 223.84 293.63C209.89 289.02 202.16 281.99 195.34 275.79C193.53 274.14 191.82 272.59 190.09 271.17C187.49 269.03 185.26 267.1 183.3 265.41C174.24 257.57 168.77 252.84 144.43 240.61C129 232.81 103.08 213.5 83 189.5C72.12 176.5 64.41 163.87 60.07 151.95C55 138 54.67 125.25 59.09 114C64.2832 101.329 72.5607 90.1577 83.17 81.5C94.2698 72.468 107.256 66.0433 121.17 62.7C141.4 57.64 164.11 58.26 186.86 64.47C210.46 70.92 233.57 83 255.64 100.46ZM203.36 281.87C209.543 286.799 216.566 290.57 224.09 293C246.34 301 265.99 300.48 269.7 295C272.9 290.83 271.7 287.21 269.76 281.21C266.92 272.51 262.62 259.36 266.84 232.96C267.84 222.78 273.18 212.56 278.84 201.73C286.05 187.99 293.49 173.78 293.08 157.85C292.62 139.73 281.69 122.26 259.67 104.46C236.34 85.13 211.79 71.85 186.67 65C164.02 58.81 141.41 58.2 121.3 63.23C107.477 66.5832 94.5829 72.9976 83.57 82C73.0366 90.6032 64.8209 101.703 59.67 114.29C54 128.66 53.51 153.33 83.46 189.1C103.46 213.03 129.29 232.28 144.76 240.04C169.17 252.31 174.66 257.04 183.76 264.92C185.76 266.62 187.94 268.54 190.53 270.68C192.28 272.11 193.99 273.68 195.81 275.32C198.15 277.45 200.6 279.68 203.36 281.87Z" fill="url(#paint4_linear_29_28)"/>
<path d="M245.63 111.47C263.79 125.83 273.42 140.08 275.05 155.01C276.53 168.58 271.41 181.01 266.46 192.95C262.33 202.95 258.46 212.37 258.46 222.01C256.56 244.93 260.55 257.34 263.2 265.56C265.31 272.11 266.59 276.07 263.32 280.56C259.32 286.85 241.09 289.8 222.81 284.31C208.32 280.56 200.81 274.31 193.47 268.17L192.64 267.48C189.13 264.53 186.35 261.86 183.64 259.28C176.43 252.35 169.64 245.81 150.51 235.78C136.56 228.49 113.36 211.15 95.36 190.32C80.18 172.76 63.84 146.96 72.17 123.8C80.74 101.24 100.1 84.36 125.26 77.48C142.41 72.79 161.73 72.89 181.15 77.78C202.38 83.12 223.29 93.86 243.31 109.69L244.02 110.25L245.63 111.47ZM198.22 271.32C205.43 277.243 213.872 281.479 222.93 283.72C242.47 289.59 259.32 285.62 262.81 280.2C265.91 275.97 264.67 272.12 262.61 265.74C260 257.48 255.93 245 257.85 222C257.85 212.27 261.78 202.78 265.93 192.74C270.85 180.83 275.93 168.5 274.48 155.08C272.82 139.88 262.74 125.36 243.66 110.67L242.95 110.11C223 94.32 202.15 83.62 181 78.3C161.68 73.43 142.45 73.3 125.41 77.99C113.414 81.1568 102.294 87.0073 92.89 95.1C83.8573 102.903 76.9143 112.836 72.69 124C64.47 146.91 80.69 172.51 95.78 190C113.78 210.78 136.87 228.06 150.78 235.33C169.97 245.4 176.78 251.97 184.04 258.92C186.72 261.5 189.5 264.16 192.99 267.1L193.82 267.79C195.24 268.9 196.7 270.12 198.22 271.32Z" fill="url(#paint5_linear_29_28)"/>
<path d="M232.88 120.08C246.16 130.57 253.88 141.15 256.3 152.3C258.72 163.45 255.91 173.91 253.16 184.08C250.81 192.77 248.38 201.76 249.38 210.91C249.365 224.065 251.541 237.13 255.82 249.57C258.13 256.72 259.53 261.03 256.35 265.57C252.68 271.64 237.35 278.3 221.66 274.89C210.14 273.08 202.18 269.73 195.06 263.69C191.593 260.623 188.317 257.347 185.25 253.88C178.67 246.74 171.87 239.35 156.51 230.88C144.1 224.04 123.51 208.66 107.71 191.07C94 175.81 79 153.44 85.22 133.47C91.98 113.69 108.05 98.62 129.32 92.1C143.39 87.79 159.32 87.4 175.42 90.97C193.21 94.97 210.89 103.47 227.95 116.37C229.67 117.6 231.32 118.84 232.88 120.08ZM196.68 264.37C203.4 269.69 211.01 272.71 221.76 274.37C237.23 277.74 252.31 271.24 255.91 265.28C258.91 260.92 257.66 256.93 255.32 249.7C251.023 237.219 248.84 224.109 248.86 210.91C247.86 201.69 250.29 192.65 252.65 183.91C255.38 173.8 258.21 163.34 255.79 152.37C253.07 140.05 243.86 128.37 227.64 116.75C210.64 103.89 193.03 95.38 175.31 91.45C159.31 87.89 143.46 88.28 129.47 92.56C108.37 99.03 92.47 113.98 85.72 133.56C79.54 153.28 94.48 175.48 108.1 190.62C123.87 208.17 144.39 223.51 156.77 230.33C172.2 238.88 179.03 246.33 185.64 253.48C188.693 256.928 191.952 260.187 195.4 263.24C195.83 263.68 196.25 264 196.68 264.37Z" fill="url(#paint6_linear_29_28)"/>
<path d="M220.48 128.63C241.87 145.54 240.72 160.27 239.48 175.77C238.88 183.41 238.26 191.31 240.32 199.77C241.739 210.972 244.361 221.989 248.14 232.63C251 241.13 252.57 245.82 249.4 250.63C247.48 254.02 243.22 257.93 238.3 260.84C232.3 264.36 226.03 266.02 220.54 265.52C211.12 265.52 203.44 265.11 197.54 259.96C193.875 256.529 190.497 252.803 187.44 248.82C181.52 241.52 174.81 233.25 162.55 225.97C147.016 216.407 132.75 204.923 120.09 191.79C112.09 183.31 106.09 175.15 102.3 167.55C97.85 158.55 96.51 150.36 98.3 143.15C103.21 126.09 116 112.77 133.39 106.6C145.084 102.642 157.605 101.784 169.73 104.11C183.84 106.63 198.03 112.81 211.9 122.48C215.093 124.58 217.953 126.63 220.48 128.63ZM198.48 260.2C204.2 264.72 211.58 265.09 220.56 265.08C233.13 266.23 245.75 256.15 249 250.43C252 245.78 250.5 241.17 247.69 232.81C243.903 222.15 241.274 211.113 239.85 199.89C237.79 191.35 238.41 183.41 239.01 175.73C239.7 166.97 240.34 158.73 237.08 150.1C233.41 140.41 225.31 131.77 211.61 122.91C197.79 113.28 183.66 107.13 169.61 104.62C157.566 102.307 145.127 103.158 133.51 107.09C116.26 113.21 103.58 126.41 98.72 143.32C96.94 150.4 98.27 158.5 102.72 167.38C106.46 174.94 112.42 183.06 120.42 191.51C133.053 204.607 147.285 216.06 162.78 225.6C175.11 232.92 181.85 241.23 187.78 248.6C190.804 252.561 194.149 256.267 197.78 259.68L198.48 260.2Z" fill="url(#paint7_linear_29_28)"/>
<path d="M208.79 137C221.71 147.22 223.63 157.07 225.92 168.88C227.038 175.651 228.837 182.291 231.29 188.7C234.21 199.22 237.16 207.11 239.52 213.44C243.58 224.32 245.82 230.31 242.52 235.75C239.15 242.08 228.6 255.02 219.52 256.19L217.68 256.71C211.25 258.51 204.6 260.38 200.02 256.28C196.49 253.05 193.26 248.55 189.85 243.78C184.33 236.07 178.07 227.34 168.58 221.14C158.28 214.47 107.12 179.82 111.4 152.92C112.82 145.871 115.935 139.274 120.475 133.699C125.015 128.124 130.845 123.738 137.46 120.92C145.854 117.357 155.041 116.074 164.09 117.2C174.53 118.34 185.22 122.2 195.86 128.66C200.403 131.06 204.729 133.851 208.79 137ZM200.69 256.32C205.09 259.8 211.41 258.02 217.52 256.32L219.38 255.8C228.32 254.66 238.75 241.8 242.09 235.57C245.32 230.29 243.09 224.37 239.09 213.62C236.72 207.28 233.77 199.38 230.85 188.87C228.403 182.444 226.614 175.787 225.51 169C222.62 154.14 220.33 142.4 195.61 129.08C185 122.6 174.38 118.77 164 117.63C155.025 116.514 145.915 117.787 137.59 121.32C131.04 124.111 125.268 128.454 120.77 133.973C116.272 139.492 113.183 146.022 111.77 153C110.07 163.72 117.12 176.95 132.77 192.32C146.51 205.84 162.56 216.74 168.82 220.8C178.38 227.04 184.66 235.8 190.21 243.55C193.61 248.29 196.82 252.78 200.32 255.97L200.69 256.32Z" fill="url(#paint8_linear_29_28)"/>
<path d="M199.32 145C206.96 151 211.14 158.35 216.93 168.46C218.57 171.33 220.27 174.3 222.24 177.59C223.47 180.16 224.63 182.59 225.73 184.84C235.26 204.57 239.61 213.58 235.56 220.84C232.79 226.38 224.36 243.25 218.41 246.84C213.07 251.48 206.41 256.32 202.41 252.6C199.12 249.46 195.75 244.12 192.18 238.47C187.18 230.47 181.43 221.47 174.52 216.32C173.187 215.34 171.6 214.19 169.76 212.87C162.18 207.43 150.76 199.21 141.28 190.23C129.97 179.49 124.28 170.23 124.4 162.69C124.748 157.013 126.46 151.503 129.392 146.628C132.324 141.754 136.388 137.659 141.24 134.69C151.94 128.36 165.61 128.41 179.72 134.82C188.44 138 194.55 141.25 199.32 145ZM203 252.55C206.81 255.55 213.08 250.93 218.17 246.5C224.02 243.01 232.43 226.19 235.17 220.67C239.17 213.61 234.8 204.67 225.33 185.04C224.24 182.78 223.07 180.37 221.85 177.8C219.85 174.53 218.18 171.56 216.54 168.68C207.19 152.34 202.05 143.34 179.54 135.19C165.54 128.82 151.98 128.77 141.39 135.03C136.598 137.963 132.582 142.007 129.682 146.82C126.782 151.632 125.084 157.072 124.73 162.68C124.63 170.1 130.27 179.28 141.5 189.94C150.93 198.94 162.37 207.11 169.93 212.54C171.79 213.873 173.383 215.027 174.71 216C181.71 221.2 187.4 230.26 192.45 238.25C196.01 243.88 199.37 249.25 202.63 252.3C202.749 252.39 202.872 252.474 203 252.55Z" fill="url(#paint9_linear_29_28)"/>
<path d="M199.88 153.42C204.731 157.341 209.186 161.729 213.18 166.52C228.05 186.12 232.66 197.89 228.63 205.9C226.88 209.65 224.26 217.43 221.95 224.29C220.12 229.73 218.4 234.86 217.31 237.37C216.371 240.064 214.988 242.581 213.22 244.82C211.22 247.41 209.17 249.07 207.5 249.48C207.051 249.62 206.572 249.635 206.115 249.522C205.659 249.409 205.242 249.173 204.91 248.84C201.84 245.76 198.2 239.21 194.34 232.28C189.75 224.04 185.01 215.52 180.56 211.42C176.848 208.315 172.972 205.411 168.95 202.72C156.73 194.1 139.95 182.29 137.5 172.4C135.8 162.86 138.35 153.19 144.15 147.13C149.02 142.05 155.77 139.92 163.66 140.98C173.46 141.16 181.46 142.89 188.8 146.41C192.74 148.332 196.455 150.683 199.88 153.42ZM205.34 248.79C205.631 249.014 205.972 249.166 206.334 249.232C206.696 249.298 207.068 249.277 207.42 249.17C210.83 248.32 215.54 241.91 217.01 237.26C218.09 234.74 219.82 229.62 221.64 224.19C223.96 217.32 226.58 209.53 228.34 205.76C232.34 197.87 227.7 186.2 212.93 166.76C204.85 157.26 196.93 150.7 188.66 146.76C181.36 143.25 173.41 141.53 163.66 141.36C155.86 140.31 149.21 142.36 144.41 147.36C138.68 153.36 136.17 162.91 137.85 172.36C140.3 182.12 156.98 193.89 169.17 202.48C173.201 205.183 177.086 208.097 180.81 211.21C185.3 215.35 190.06 223.89 194.65 232.15C198.5 239.06 202.13 245.59 205.17 248.65L205.34 248.79Z" fill="url(#paint10_linear_29_28)"/>
<path d="M202.48 154.09C203.04 154.53 203.59 154.98 204.13 155.44C212.95 162.93 218.75 170.1 221.39 176.74C223.45 181.96 223.56 186.74 221.7 190.98C218.7 197.9 215.35 219.98 216.16 227.98C216.322 231.64 215.58 235.284 214 238.59C212.49 242.03 210.54 244.69 209 245.37C208.733 245.526 208.42 245.585 208.114 245.538C207.808 245.49 207.528 245.339 207.32 245.11C204.32 241.85 199.72 232.36 195.32 223.19C191.88 216.07 188.62 209.35 186.56 206.53C184.22 203.33 177.21 199.33 169.79 195.1C162.14 190.75 154.23 186.24 150.59 182.1C146.486 177.14 143.81 171.156 142.85 164.79C141.72 157.33 143.36 151.06 147.49 147.13C152.32 142.54 161.38 140.41 171.74 141.43C182.98 142.648 193.642 147.039 202.48 154.09ZM207.71 245.09C207.885 245.218 208.094 245.292 208.311 245.303C208.528 245.313 208.743 245.26 208.93 245.15C211.85 243.83 216.56 234.51 215.93 228.01C215.11 220.01 218.44 197.85 221.49 190.9C223.32 186.74 223.21 182.02 221.17 176.9C218.55 170.3 212.77 163.17 203.99 155.71C194.895 147.932 183.66 143.086 171.76 141.81C161.64 140.81 152.43 142.96 147.76 147.43C143.7 151.3 142.08 157.43 143.2 164.85C144.129 171.153 146.76 177.082 150.81 182C154.42 186.08 162.31 190.57 169.93 194.92C177.38 199.16 184.41 203.17 186.79 206.42C188.87 209.26 192.13 215.99 195.58 223.12C200.01 232.28 204.58 241.75 207.58 244.98L207.71 245.09Z" fill="url(#paint11_linear_29_28)"/>
</g>
<defs>
<linearGradient id="paint0_linear_29_28" x1="184.36" y1="356.42" x2="184.36" y2="-2.25981e-05" gradientUnits="userSpaceOnUse">
<stop stop-color="#515676"/>
<stop offset="1" stop-color="#9E3749"/>
</linearGradient>
<linearGradient id="paint1_linear_29_28" x1="181.95" y1="341.83" x2="181.95" y2="14.8799" gradientUnits="userSpaceOnUse">
<stop stop-color="#515676"/>
<stop offset="1" stop-color="#9E3749"/>
</linearGradient>
<linearGradient id="paint2_linear_29_28" x1="179.56" y1="327.43" x2="179.56" y2="29.7299" gradientUnits="userSpaceOnUse">
<stop stop-color="#515676"/>
<stop offset="1" stop-color="#9E3749"/>
</linearGradient>
<linearGradient id="paint3_linear_29_28" x1="177.2" y1="313.29" x2="177.2" y2="44.5498" gradientUnits="userSpaceOnUse">
<stop stop-color="#515676"/>
<stop offset="1" stop-color="#9E3749"/>
</linearGradient>
<linearGradient id="paint4_linear_29_28" x1="174.86" y1="299.74" x2="174.86" y2="59.31" gradientUnits="userSpaceOnUse">
<stop stop-color="#515676"/>
<stop offset="1" stop-color="#9E3749"/>
</linearGradient>
<linearGradient id="paint5_linear_29_28" x1="172.61" y1="287.15" x2="172.61" y2="73.99" gradientUnits="userSpaceOnUse">
<stop stop-color="#515676"/>
<stop offset="1" stop-color="#9E3749"/>
</linearGradient>
<linearGradient id="paint6_linear_29_28" x1="170.98" y1="275.84" x2="170.98" y2="88.55" gradientUnits="userSpaceOnUse">
<stop stop-color="#515676"/>
<stop offset="1" stop-color="#9E3749"/>
</linearGradient>
<linearGradient id="paint7_linear_29_28" x1="174.34" y1="265.64" x2="174.34" y2="102.9" gradientUnits="userSpaceOnUse">
<stop stop-color="#515676"/>
<stop offset="1" stop-color="#9E3749"/>
</linearGradient>
<linearGradient id="paint8_linear_29_28" x1="177.6" y1="258.74" x2="177.6" y2="116.85" gradientUnits="userSpaceOnUse">
<stop stop-color="#515676"/>
<stop offset="1" stop-color="#9E3749"/>
</linearGradient>
<linearGradient id="paint9_linear_29_28" x1="180.75" y1="253.88" x2="180.75" y2="129.97" gradientUnits="userSpaceOnUse">
<stop stop-color="#515676"/>
<stop offset="1" stop-color="#9E3749"/>
</linearGradient>
<linearGradient id="paint10_linear_29_28" x1="183.5" y1="249.58" x2="183.5" y2="140.7" gradientUnits="userSpaceOnUse">
<stop stop-color="#515676"/>
<stop offset="1" stop-color="#9E3749"/>
</linearGradient>
<linearGradient id="paint11_linear_29_28" x1="182.77" y1="245.54" x2="182.77" y2="141.22" gradientUnits="userSpaceOnUse">
<stop stop-color="#515676"/>
<stop offset="1" stop-color="#9E3749"/>
</linearGradient>
<clipPath id="clip0_29_28">
<rect width="368.72" height="356.42" fill="white"/>
</clipPath>
</defs>
</svg>
