<svg width="1046" height="378" viewBox="0 0 1046 378" fill="none" xmlns="http://www.w3.org/2000/svg">
<path d="M818.176 29.5429C824.103 34.1678 829.609 39.311 834.628 44.9118C861.281 74.9902 872.921 115.617 881.559 155.048C887.646 183.026 929.805 212.486 970.525 240.999C1011.24 269.512 1048.84 296.005 1045.84 318.873C1044.27 330.081 1033.5 339.145 1012.27 346.562C851.41 403.34 649.868 372.685 509.612 336.961C351.34 296.665 205.901 233.5 143.958 191.884C65.2336 138.856 -9.54241 72.2708 0.987099 42.934C4.8534 32.1799 19.3726 27.9772 44.0923 30.573C137.336 39.8849 560.573 14.7097 692.356 1.73059C746.197 -3.87308 787.616 5.31528 818.176 29.5429ZM922.977 212.239C899.45 193.615 880.942 174.785 876.828 156.037C868.356 117.224 856.921 77.2564 830.968 48.002C800.448 13.5972 755.246 4.49858e-05 692.809 6.05695C560.902 19.2008 137.13 44.4173 43.6398 34.8993C21.5937 32.9628 8.22614 36.1354 5.34697 44.4997C-2.87921 67.1204 56.6372 127.483 146.59 188.011C208.287 229.462 352.985 292.379 510.722 332.47C650.567 368.07 850.793 398.396 1010.75 342.194C1029.71 335.519 1039.99 327.444 1041.23 318.214C1043.98 298.189 1006.93 272.231 967.687 244.789C952.345 234.035 936.797 223.158 922.977 212.239Z" fill="url(#paint0_linear_699_27)"/>
<path d="M796.541 40.7915C801.975 45.1269 807.026 49.9243 811.636 55.1303C836.315 82.9014 847.091 120.685 855.194 157.356C860.952 183.355 900.438 210.92 938.237 237.167C976.036 263.413 1011.49 288.177 1008.65 309.396C1007.25 319.821 997.095 328.268 977.599 335.149C827.883 388.136 640.778 359.871 510.147 326.537C362.939 289.083 227.742 230.327 170.241 191.555C97.1512 142.111 27.8456 80.3056 37.6347 53.1937C41.2543 43.1813 54.7452 39.267 77.7785 41.5744C164.441 50.2271 557.529 26.9059 679.935 14.7921C729.827 9.84774 768.202 18.3768 796.541 40.7915ZM893.322 210.137C871.728 193.038 854.782 175.733 850.957 158.51C834.505 84.5907 806.618 6.79869 680.387 19.3245C557.858 31.4383 164.236 54.7594 77.3672 46.1067C56.8017 44.0466 44.4625 47.0956 41.7067 54.8831C34.1798 75.6908 89.2129 131.851 172.75 187.97C229.922 226.495 364.584 285.004 511.298 322.293C641.354 355.256 827.554 383.686 976.077 331.069C993.682 324.848 1003.18 317.349 1004.33 308.82C1006.8 290.237 972.293 266.174 935.728 240.71C921.332 230.739 906.402 220.273 893.322 210.137Z" fill="url(#paint1_linear_699_27)"/>
<path d="M774.865 52.0398C779.91 56.0537 784.589 60.5073 788.849 65.3485C812.418 92.0483 821.96 128.019 829.034 159.663C834.423 183.685 870.906 209.107 906.155 233.335C942.597 258.551 974.103 280.348 971.471 299.961C970.237 309.561 960.859 317.349 942.885 323.735C804.52 373.179 631.524 346.727 510.722 316.071C374.538 281.502 249.541 227.113 196.441 191.266C129.11 145.942 65.2335 88.6697 74.2823 63.5356C77.6551 54.2648 90.1589 50.6389 111.3 52.7403C191.382 60.981 554.362 39.308 667.349 28.0183C713.457 23.5271 748.788 31.3969 774.865 52.0398ZM863.749 207.665C844.047 192.049 828.664 176.268 825.127 160.528C818.135 129.42 808.675 94.0261 785.847 68.0268C759.893 38.6075 721.313 26.8234 667.966 32.1386C554.856 43.3047 191.382 64.7305 111.136 56.8606C92.1331 54.9653 80.7399 57.8083 78.2309 65.1013C71.1153 84.2609 121.83 135.971 198.703 187.887C251.515 223.528 375.978 277.67 511.751 312.116C631.976 342.647 804.109 368.77 941.527 319.903C957.692 314.176 966.412 307.295 967.481 299.301C969.743 282.161 937.743 259.993 903.852 236.549C890.032 227.113 876.088 217.43 863.749 207.665Z" fill="url(#paint2_linear_699_27)"/>
<path d="M753.189 63.2885C757.838 67.0182 762.146 71.1548 766.063 75.6495C787.41 99.9183 796.253 132.963 802.875 162.177C807.893 184.22 841.538 207.5 874.073 229.709C907.635 252.783 936.674 272.725 934.329 290.731C933.178 299.508 924.623 306.677 908.17 312.528C781.158 357.852 622.269 333.954 511.298 305.812C386.137 273.879 271.464 223.899 222.683 190.978C161.027 149.28 102.58 96.8693 111.053 73.713C114.138 65.1427 125.655 61.8052 145.274 63.783C218.734 71.1172 551.606 51.4219 655.297 41.4095C697.086 37.0832 729.374 44.4174 753.189 63.2885ZM834.093 205.399C816.284 191.307 802.464 177.051 799.214 162.795C792.675 134.2 783.996 101.69 763.225 78.0805C739.533 51.1335 704.284 40.3382 655.462 45.1178C551.771 55.3775 218.446 74.9079 144.781 67.5325C127.382 65.8019 116.894 68.3565 114.508 74.9903C108.092 92.7902 154.446 140.092 224.78 187.846C273.191 220.603 387.494 270.253 512.244 301.939C622.681 329.957 780.788 353.896 907.101 308.778C921.867 303.504 929.805 297.2 930.751 290.031C932.766 274.332 903.317 254.06 872.098 232.593C858.895 223.652 845.651 214.546 834.093 205.399Z" fill="url(#paint3_linear_699_27)"/>
<path d="M731.513 74.5371C735.782 77.9184 739.733 81.6836 743.318 85.7856C762.402 107.623 770.587 137.743 776.716 164.072C781.405 184.179 812.212 205.275 841.991 225.465C872.715 246.396 899.245 264.485 897.147 280.842C896.16 289.083 888.386 295.346 873.497 300.703C757.796 342.359 612.974 320.563 511.874 294.975C397.736 266.133 293.181 220.521 248.883 190.483C192.986 152.782 139.845 105.069 147.578 83.9726C150.416 76.144 160.945 73.095 178.878 74.8667C245.716 81.5829 548.481 63.9066 642.67 54.677C680.716 50.9687 709.961 57.6849 731.513 74.5371ZM804.52 203.174C788.603 190.566 776.305 177.834 773.302 165.061C759.605 105.852 738.217 48.8674 643.04 58.1793C548.727 67.4089 245.551 85.0851 178.508 78.2866C162.632 76.6796 153.048 79.0282 150.868 85.0851C145.027 101.36 187.063 144.542 250.898 187.764C294.909 217.636 398.97 262.96 512.779 291.761C613.426 317.266 757.508 338.98 872.345 297.612C885.713 292.833 892.911 287.105 893.733 280.636C895.543 266.38 868.602 248.003 840.058 228.555C827.759 220.191 815.297 211.703 804.52 203.174Z" fill="url(#paint4_linear_699_27)"/>
<path d="M709.837 85.7856C713.716 88.8457 717.297 92.2671 720.531 96.0041C737.395 115.37 744.634 141.328 750.557 166.585C754.875 184.715 784.12 204.41 809.909 221.798C837.754 240.628 861.816 256.821 860.006 271.613C859.101 278.824 852.191 284.674 838.782 289.495C734.475 327.361 603.719 307.79 512.45 284.716C409.294 258.634 315.022 217.513 275.083 190.401C224.904 156.243 177.356 113.268 184.266 94.2323C186.817 87.1453 196.359 84.3435 212.565 85.9916C272.821 92.0073 545.437 76.2676 630.249 67.9857C664.346 64.6895 690.588 70.4992 709.837 85.7856ZM774.947 201.155C760.922 190.071 750.269 178.823 747.431 167.533C741.59 142.811 734.516 117.141 718.104 98.3115C698.979 76.35 670.31 67.5325 630.578 71.4056C545.684 79.6463 272.739 95.4272 212.235 89.3703C197.881 87.9694 189.243 90.0708 187.269 95.5508C181.963 110.137 219.68 149.115 276.893 187.929C316.708 214.711 410.445 255.461 513.231 281.584C604.09 304.576 734.145 324.065 837.713 286.487C849.682 282.367 856.099 277.011 856.798 271.201C858.402 258.428 833.97 241.947 808.099 224.476C796.623 216.73 784.983 208.901 774.947 200.949V201.155Z" fill="url(#paint5_linear_699_27)"/>
<path d="M688.202 97.0341C691.649 99.7923 694.842 102.854 697.745 106.181C712.428 123.157 718.721 145.531 724.439 168.893C728.552 185.045 754.629 202.556 777.909 217.966C802.875 234.447 824.469 248.992 822.906 262.177C822.166 268.564 816.037 273.755 804.191 278.082C711.194 312.198 594.424 294.81 513.108 274.291C420.892 251.011 336.78 214.258 301.325 190.071C256.821 159.704 214.703 121.468 220.914 104.492C223.217 98.1054 231.731 95.6332 246.251 97.0753C299.721 102.473 542.393 88.5874 617.827 81.2944C648.017 78.2866 671.174 83.5606 688.202 97.0341ZM745.456 198.765C733.117 189.165 723.986 179.4 721.559 169.593C712.017 130.285 698.896 76.4324 618.115 84.2199C542.599 91.5541 299.762 105.398 245.922 100.001C233.13 98.7234 225.356 100.619 223.67 105.481C218.94 118.501 252.461 153.03 302.97 187.64C338.219 211.744 421.962 248.251 513.725 271.407C594.794 292.009 710.783 309.149 803.081 275.321C813.651 271.489 819.327 267.081 819.903 261.807C821.261 250.434 799.338 235.848 776.181 220.603C765.487 213.31 754.67 206.017 745.456 198.765Z" fill="url(#paint6_linear_699_27)"/>
<path d="M666.526 108.406C686.434 124.187 692.932 150.022 698.279 171.2C701.858 185.374 725.179 200.661 745.744 214.134C767.873 228.638 786.875 241.164 785.683 252.701C785.066 258.304 779.719 262.878 769.23 266.668C687.585 296.994 585.046 281.873 513.437 263.825C432.327 243.224 358.456 211.126 327.361 189.659C288.616 163.083 251.927 129.544 257.438 114.628C259.495 108.983 267.022 106.758 279.814 108.035C326.991 112.897 539.391 100.948 605.447 94.7679C634.115 91.8837 653.282 97.8993 666.526 108.406ZM715.883 196.664C705.601 188.423 697.745 180.183 695.606 171.942C686.516 135.765 675.04 90.73 605.611 97.4049C539.555 103.585 326.867 115.576 279.69 110.837C268.42 109.684 261.634 111.373 260.071 115.658C255.958 127.071 284.749 157.315 329.047 187.599C359.937 208.819 433.479 240.916 514.136 261.23C585.416 279.194 687.38 294.192 768.408 264.196C777.539 260.818 782.474 256.821 782.968 252.412C784.078 242.482 764.706 229.791 744.181 216.359C734.392 209.89 724.356 203.339 715.966 196.664H715.883Z" fill="url(#paint7_linear_699_27)"/>
<path d="M644.809 119.49C661.262 132.593 667.061 154.183 671.997 173.054V173.549C675.205 185.91 695.565 198.806 713.539 210.343C732.788 222.704 749.446 233.376 748.377 243.306C747.883 248.086 743.359 252 734.557 255.296C664.387 281.79 575.833 268.893 514.136 253.36C444.214 235.807 380.42 208.036 353.726 189.494C320.821 166.668 289.479 137.867 294.209 125.011C295.978 120.108 302.435 118.171 313.623 119.284C354.055 123.404 536.347 113.268 593.025 107.912C617.375 105.604 633.416 110.631 644.809 119.49ZM686.557 194.562C678.084 187.846 671.627 181.007 669.817 173.961V173.508C661.344 141.245 651.719 104.657 593.354 110.178C536.635 115.534 354.055 125.588 313.664 121.509C303.916 120.561 298.076 122.003 296.718 125.629C293.14 135.394 317.777 161.353 355.371 187.434C381.859 205.77 445.242 233.458 515 250.97C576.696 266.38 664.429 279.277 734.145 252.948C741.919 250.022 746.032 246.685 746.485 242.935C747.39 234.447 729.744 223.158 712.716 212.239C703.338 206.511 694.125 200.619 686.557 194.604V194.562Z" fill="url(#paint8_linear_699_27)"/>
<path d="M623.092 130.821C636.46 141.41 641.19 158.592 645.344 173.631L645.961 175.774C648.84 186.033 666.238 196.911 681.58 206.47C698.033 216.689 712.14 225.506 711.359 233.829C710.989 237.95 707.246 241.081 700.007 243.842C591.174 285.828 419.535 216.854 379.967 189.206C366.534 180.099 354.025 169.693 342.62 158.139C333.16 147.838 329.047 140.092 330.816 135.271C332.379 131.15 337.932 129.42 347.268 130.368C381.119 133.788 533.262 125.629 580.563 121.22C600.511 119.49 613.879 123.61 623.092 130.821ZM657.272 192.626C650.526 187.27 645.467 181.872 643.945 176.145L643.328 174.002C636.172 148.085 628.028 118.707 580.768 123.116C533.509 127.525 381.037 135.477 347.104 132.263C338.878 131.439 333.942 132.675 332.79 135.806C329.788 144.047 350.106 165.638 381.16 187.27C420.563 214.752 591.133 283.356 699.266 241.699C705.601 239.268 708.973 236.466 709.261 233.459C709.961 226.413 694.948 216.977 680.47 208.077C672.472 203.353 664.729 198.209 657.272 192.667V192.626Z" fill="url(#paint9_linear_699_27)"/>
<path d="M601.498 141.987C611.493 149.898 615.236 162.589 618.732 174.455C619.061 175.691 619.431 176.886 619.802 178.081C622.31 186.322 636.747 195.016 649.498 202.803C663.071 211.044 674.752 217.842 674.177 224.559C673.93 227.731 671.01 230.368 665.251 232.799C576.902 267.987 438.126 211.909 406.126 189.247C386.096 175.115 363.926 155.254 367.422 145.901C368.738 142.44 373.263 141.081 380.954 141.781C408.183 144.542 530.26 138.237 568.141 134.818C584.059 133.087 594.341 136.301 601.498 141.987ZM628.069 190.813C623.59 187.773 620.112 183.472 618.074 178.452L616.963 174.785C610.917 154.183 604.624 132.922 568.347 136.177C530.424 139.597 408.142 145.901 380.79 143.141C376.142 142.646 370.384 142.77 369.191 145.984C366.723 152.576 382.723 169.923 407.196 187.187C439.031 209.684 576.902 265.474 664.634 230.533C669.611 228.597 672.202 226.413 672.408 224.023C672.86 218.419 660.521 211.085 648.593 203.957C641.493 199.994 634.639 195.605 628.069 190.813Z" fill="url(#paint10_linear_699_27)"/>
<path d="M579.946 153.194C586.773 158.592 589.488 167.162 592.285 175.609C592.82 177.216 593.313 178.823 593.848 180.389C595.987 186.734 607.503 193.12 617.663 198.724C627.822 204.328 637.57 209.808 637.282 214.876C637.282 217.266 635.02 219.285 630.825 221.015C594.547 236.219 548.563 229.956 516.069 222.045C479.463 213.063 445.736 198.106 432.574 188.588C417.849 177.958 401.602 162.96 404.317 155.625C405.345 152.906 408.923 151.793 414.887 152.411C435.453 154.513 527.463 150.104 555.966 147.673C567.277 146.849 574.722 149.115 579.946 153.194ZM599.072 189.124C596.086 187.065 593.735 184.211 592.285 180.883C591.75 179.317 591.216 177.669 590.722 176.062C585.992 161.229 581.55 147.22 555.966 149.362C527.422 151.835 435.288 156.202 414.6 154.101C411.021 153.771 406.373 153.854 405.633 156.326C403.7 161.394 415.093 174.167 433.355 187.352C456.553 204.245 563.699 247.221 630.002 219.614C633.58 218.131 635.431 216.483 635.555 214.793C635.555 210.673 626.095 205.275 616.717 200.084C610.539 196.885 604.613 193.221 598.989 189.124H599.072Z" fill="url(#paint11_linear_699_27)"/>
<defs>
<linearGradient id="paint0_linear_699_27" x1="522.979" y1="378" x2="522.979" y2="4.17219e-05" gradientUnits="userSpaceOnUse">
<stop stop-color="#515676"/>
<stop offset="1" stop-color="#9E3749"/>
</linearGradient>
<linearGradient id="paint1_linear_699_27" x1="522.733" y1="364.568" x2="522.733" y2="13.4324" gradientUnits="userSpaceOnUse">
<stop stop-color="#515676"/>
<stop offset="1" stop-color="#9E3749"/>
</linearGradient>
<linearGradient id="paint2_linear_699_27" x1="522.527" y1="351.135" x2="522.527" y2="26.8646" gradientUnits="userSpaceOnUse">
<stop stop-color="#515676"/>
<stop offset="0.980769" stop-color="#9E3749"/>
</linearGradient>
<linearGradient id="paint3_linear_699_27" x1="522.28" y1="337.703" x2="522.28" y2="40.2558" gradientUnits="userSpaceOnUse">
<stop stop-color="#515676"/>
<stop offset="1" stop-color="#9E3749"/>
</linearGradient>
<linearGradient id="paint4_linear_699_27" x1="522.033" y1="324.271" x2="522.033" y2="53.6882" gradientUnits="userSpaceOnUse">
<stop stop-color="#515676"/>
<stop offset="1" stop-color="#9E3749"/>
</linearGradient>
<linearGradient id="paint5_linear_699_27" x1="521.828" y1="310.839" x2="521.828" y2="67.1205" gradientUnits="userSpaceOnUse">
<stop stop-color="#515676"/>
<stop offset="1" stop-color="#9E3749"/>
</linearGradient>
<linearGradient id="paint6_linear_699_27" x1="521.581" y1="297.406" x2="521.581" y2="80.5115" gradientUnits="userSpaceOnUse">
<stop stop-color="#515676"/>
<stop offset="1" stop-color="#9E3749"/>
</linearGradient>
<linearGradient id="paint7_linear_699_27" x1="521.334" y1="283.974" x2="521.334" y2="93.9438" gradientUnits="userSpaceOnUse">
<stop stop-color="#515676"/>
<stop offset="1" stop-color="#9E3749"/>
</linearGradient>
<linearGradient id="paint8_linear_699_27" x1="521.128" y1="270.542" x2="521.128" y2="107.376" gradientUnits="userSpaceOnUse">
<stop stop-color="#515676"/>
<stop offset="1" stop-color="#9E3749"/>
</linearGradient>
<linearGradient id="paint9_linear_699_27" x1="520.903" y1="120.827" x2="520.903" y2="257.066" gradientUnits="userSpaceOnUse">
<stop stop-color="#9E3749"/>
<stop offset="1" stop-color="#515676"/>
</linearGradient>
<linearGradient id="paint10_linear_699_27" x1="520.635" y1="243.759" x2="520.635" y2="134.2" gradientUnits="userSpaceOnUse">
<stop stop-color="#515676"/>
<stop offset="1" stop-color="#9E3749"/>
</linearGradient>
<linearGradient id="paint11_linear_699_27" x1="520.429" y1="230.327" x2="520.429" y2="147.632" gradientUnits="userSpaceOnUse">
<stop stop-color="#515676"/>
<stop offset="1" stop-color="#9E3749"/>
</linearGradient>
</defs>
</svg>
